<svg version="1" xmlns="http://www.w3.org/2000/svg" width="213.333" height="213.333" viewBox="0 0 160.000000 160.000000"><path d="M3.7 11.8C1 14.7.7 18.7 1.9 36.1c1.9 28 5 43 10.2 49.2l2.7 3.2H28c9.2-.1 12.5.2 10.8.9-14 5.6-23 12.8-24.9 20-2.1 7.7.9 21.3 6.3 28.9 5.1 7.1 23.8 15.7 31.2 14.3 1.9-.4 4.8-2.1 6.5-3.8 3.2-3.3 9.3-14.4 14.7-26.8l3.3-7.4.7 6.2c.3 3.4 1.3 7 2 7.9 1.3 1.7 1.5 1.7 2.8 0 .7-.9 1.7-4.5 2-7.9l.7-6.2 3.3 7.4c5.4 12.4 11.5 23.5 14.7 26.8 1.7 1.7 4.6 3.4 6.5 3.8 7.9 1.5 26.7-7.5 31.8-15.3 5.2-7.9 7.8-20.3 5.7-27.9-1.9-7.2-10.9-14.4-24.9-20-1.7-.7 1.6-1 10.8-.9h13.2l2.7-3.2c5.2-6.2 8.3-21.2 10.2-49.2 1.6-23.4.7-26.1-8.5-26.1-6.2 0-12.7 2.9-21.3 9.4-12 9.1-21.6 21.1-36.5 46-4.3 7.1-7.8 12.8-7.9 12.5-1.2-10.4 1.8-25.3 6.2-30.4 2.8-3.2 3.8-6.5 2-6.5-2.6 0-6.5 10.1-9.1 23-.8 4.5-1.4 5.6-3 5.6s-2.2-1.1-3-5.6c-2.6-12.9-6.5-23-9.1-23-1.8 0-.8 3.3 2 6.5 4.4 5.1 7.4 20 6.2 30.4-.1.3-3.6-5.4-7.9-12.5-18.5-30.7-31.8-45.5-47.7-53-6.3-3-14.4-3.3-16.8-.6zm14.7 4.8c.9.4 2.1 1.5 2.7 2.5.9 1.8.7 1.9-4.8 1.3-6.7-.8-6.7-.8-6-2.9.6-1.5 5.1-2 8.1-.9zm131.4 1.5c.2 1.3-.9 1.7-5.5 2.2-3.1.3-5.9.4-6.1.2-.2-.2.6-1.3 1.8-2.5 2.6-2.6 9.3-2.5 9.8.1zM30.6 23.5c3.8 3.4 3.9 3.5 1.9 5-3 2.4-6.6 3-7.6 1.4-1.6-2.5-.8-9.9 1-9.9.4 0 2.5 1.6 4.7 3.5zm104.8-1.9c.9 2.3.7 6.7-.3 8.3-1 1.6-4.6 1-7.6-1.4-2-1.5-1.9-1.6 1.9-5 4.4-3.9 5.1-4.2 6-1.9zM20.5 25.5c0 2.6-5.5 4.3-9.1 2.7-2.1-1-2.3-1.5-1.4-3.2.9-1.8 1.9-2.1 5.8-1.8 3.9.2 4.7.6 4.7 2.3zM150 25c1.4 2.6-1.9 4.4-6.6 3.6-3.7-.7-4.9-1.9-4-4.1.9-2.4 9.3-2 10.6.5zM18.1 34.3c-.1.4-.1 1.1-.1 1.7 0 1.1-3.9 1.3-6.4.4-2.4-.9-1.9-3.2.7-3.6 2.5-.4 5.9.4 5.8 1.5zm131.9.2c0 2.7-7.4 3.5-8.4 1-.4-1 .2-1.9 1.6-2.4 2.8-1 6.8-.2 6.8 1.4zM11.8 41.8c.2.7-.6 1.2-1.7 1.2-2.1 0-2.7-1.1-1.4-2.4.9-.9 2.6-.2 3.1 1.2zm140-.6c-.3.7-1.1 1.3-1.8 1.3s-1.5-.6-1.7-1.3c-.3-.7.4-1.2 1.7-1.2 1.3 0 2 .5 1.8 1.2zM48.1 46.7l2.4 2.8-2.7-2.4c-2-1.8-3.5-2.2-6.2-1.9-2 .2-3.6 0-3.6-.4s1.7-.8 3.8-.8c2.9 0 4.4.7 6.3 2.7zm73.9-1.9c0 .4-1.6.6-3.6.4-2.7-.3-4.2.1-6.2 1.9l-2.7 2.4 2.4-2.8c1.9-2 3.4-2.7 6.3-2.7 2.1 0 3.8.4 3.8.8zM11.6 47.1c1 1.7-1.3 3.6-2.7 2.2C7.7 48.1 8.5 46 10 46c.5 0 1.2.5 1.6 1.1zm139.9-.1c.3.6-.1 1.3-1 1.6-1.9.8-3 0-2-1.5.8-1.4 2.2-1.4 3-.1zm-98 6c1 1.1 1.6 2 1.3 2-.3 0-1.3-.9-2.3-2-1-1.1-1.6-2-1.3-2 .3 0 1.3.9 2.3 2zm55.5-1.7c0 .2-1 1.2-2.2 2.3l-2.3 1.9 1.9-2.3c1.8-2.1 2.6-2.7 2.6-1.9zm-97.2 3.9c-.3.7-1.1 1.3-1.8 1.3s-1.5-.6-1.7-1.3C8 54.5 8.7 54 10 54c1.3 0 2 .5 1.8 1.2zm140 0c-.3.7-1.1 1.3-1.8 1.3s-1.5-.6-1.7-1.3c-.3-.7.4-1.2 1.7-1.2 1.3 0 2 .5 1.8 1.2zM47.1 57.7c1.3 1.6 1.2 1.7-.3.4-1-.7-1.8-1.5-1.8-1.7 0-.8.8-.3 2.1 1.3zm67.9-1.3c0 .2-.8 1-1.7 1.7-1.6 1.3-1.7 1.2-.4-.4 1.3-1.6 2.1-2.1 2.1-1.3zm-62 8.1c1.9 1.9 3.2 3.5 2.9 3.5-.3 0-2-1.6-3.9-3.5S48.8 61 49.1 61c.3 0 2 1.6 3.9 3.5zm58-3.2c0 .2-1.7 1.9-3.7 3.8l-3.8 3.4 3.4-3.8c3.3-3.4 4.1-4.2 4.1-3.4zM12 63c0 .5-.7 1-1.5 1S9 63.5 9 63c0-.6.7-1 1.5-1s1.5.4 1.5 1zm139 0c0 .5-.7 1-1.5 1s-1.5-.5-1.5-1c0-.6.7-1 1.5-1s1.5.4 1.5 1zM42.3 68.7c-3.4.2-9.3.2-13 0-3.7-.2-.9-.3 6.2-.3 7.2 0 10.2.1 6.8.3zm89 0c-3.4.2-9.3.2-13 0-3.7-.2-.9-.3 6.2-.3 7.2 0 10.2.1 6.8.3zM62 72.5c1.3 1.4 2.1 2.5 1.8 2.5-.2 0-1.5-1.1-2.8-2.5-1.3-1.4-2.1-2.5-1.8-2.5.2 0 1.5 1.1 2.8 2.5zm39-2.2c0 .2-1.2 1.4-2.7 2.8l-2.8 2.4 2.4-2.8c2.3-2.5 3.1-3.2 3.1-2.4zM54.5 73c1 1.1 1.6 2 1.3 2-.3 0-1.3-.9-2.3-2-1-1.1-1.6-2-1.3-2 .3 0 1.3.9 2.3 2zm53.5-1.7c0 .2-1 1.2-2.2 2.3l-2.3 1.9 1.9-2.3c1.8-2.1 2.6-2.7 2.6-1.9zm-88.6 5.2l1.7 3-2-2.4c-1.2-1.3-2.1-2.8-2.1-3.4 0-1.2 0-1.1 2.4 2.8zm49.1-.4c1.6 2.9 1.6 3-.4 2-1.1-.6-2.3-1.6-2.7-2.3-.5-.7-.3-.8.6-.3 1 .6 1.2.4.7-.8-1.1-2.8.1-1.9 1.8 1.4zm24.8-1.4c-.5 1.2-.3 1.4.7.8.9-.5 1.1-.4.6.3-.4.7-1.6 1.7-2.7 2.3-2 1-2 .9-.4-2 1.7-3.3 2.9-4.2 1.8-1.4zm49.7-.8c0 .5-.9 1.9-2 3.2l-2 2.4 1.7-3.2c1.9-3.4 2.3-3.9 2.3-2.4zM26.8 79.7c-1 .2-2.6.2-3.5 0-1-.3-.2-.5 1.7-.5s2.7.2 1.8.5zm110 0c-1 .2-2.6.2-3.5 0-1-.3-.2-.5 1.7-.5s2.7.2 1.8.5zm-100 1c-1 .2-2.8.2-4 0-1.3-.2-.5-.4 1.7-.4 2.2-.1 3.2.1 2.3.4zm91 0c-1 .2-2.8.2-4 0-1.3-.2-.5-.4 1.7-.4 2.2-.1 3.2.1 2.3.4zm-81 1c-1 .2-2.8.2-4 0-1.3-.2-.5-.4 1.7-.4 2.2-.1 3.2.1 2.3.4zm23.1 2c.2.2-.5.3-1.6.3s-2-.7-2-1.5c0-1.2.3-1.2 1.6-.3.9.7 1.8 1.4 2 1.5zm23.8-1.2c0 .8-.9 1.5-2.1 1.5-2 0-2 0 0-1.5 1-.8 1.9-1.5 2-1.5 0 0 .1.7.1 1.5zm24.1-.8c-1 .2-2.8.2-4 0-1.3-.2-.5-.4 1.7-.4 2.2-.1 3.2.1 2.3.4zm-61 1c-1 .2-2.8.2-4 0-1.3-.2-.5-.4 1.7-.4 2.2-.1 3.2.1 2.3.4zm51 0c-1 .2-2.8.2-4 0-1.3-.2-.5-.4 1.7-.4 2.2-.1 3.2.1 2.3.4zM63 91.1c-6 1.5-8.2 1.6-10.9.8-5.3-1.8-1.8-2.9 8.9-2.8l9.5.1-7.5 1.9zm46.9-1.2c1 .6.5 1.2-2 2-2.7.8-4.9.7-10.9-.8l-7.5-1.9 9.5-.1c5.2 0 10.1.3 10.9.8zm-37.9 3c0 .5-3.7 4.4-8.2 8.6C55 109.7 47.6 114 42.1 114h-3.3l1.7-2.8c1-1.5 4.2-5.5 7.2-8.8 5.4-6.3 6.4-6.8 17.8-9.3 5.5-1.2 6.5-1.3 6.5-.2zm28.5 1.7c5.4 1.3 6.6 2.1 11.7 7.7 3.1 3.4 6.4 7.4 7.3 8.9l1.6 2.8h-3.3c-5.4 0-12.8-4.3-21.5-12.5-4.6-4.2-8.3-8.1-8.3-8.7 0-1 2.1-.7 12.5 1.8zm-57.2-.9c-.7.2-1.9.2-2.5 0-.7-.3-.2-.5 1.2-.5s1.9.2 1.3.5zm6.7.3c1.8 1.2.2 1.2-2.5 0-1.3-.6-1.5-.9-.5-.9.8 0 2.2.4 3 .9zm62.5 0c-2.7 1.2-4.3 1.2-2.5 0 .8-.5 2.2-.9 3-.9 1 0 .8.3-.5.9zm7.2-.4c-.3.3-1.2.4-1.9.1-.8-.3-.5-.6.6-.6 1.1-.1 1.7.2 1.3.5zM35 95.9c-2.9 1.6-3.1 1.9-1.5 2.4 1.6.4 1.6.5.3.6-2.9.2-3-1.7-.1-3.3 1.5-.8 3.3-1.5 3.8-1.5.6 0-.6.8-2.5 1.8zm91.1-.4c3 1.6 3.1 3.6.1 3.4-1.3-.1-1.3-.2.3-.6 1.6-.5 1.4-.8-1.5-2.4-1.9-1-3.1-1.8-2.7-1.9.4 0 2.1.7 3.8 1.5zm-78.8.2c-.7.2-1.9.2-2.5 0-.7-.3-.2-.5 1.2-.5s1.9.2 1.3.5zm68 0c-.7.2-1.9.2-2.5 0-.7-.3-.2-.5 1.2-.5s1.9.2 1.3.5zm-72.6.9c-.3.3-1.2.4-1.9.1-.8-.3-.5-.6.6-.6 1.1-.1 1.7.2 1.3.5zm77 0c-.3.3-1.2.4-1.9.1-.8-.3-.5-.6.6-.6 1.1-.1 1.7.2 1.3.5zM73.9 108c0 4.1-.8 7.7-3.4 13.8-2.9 7.2-8.5 17.4-7.2 13.2.2-.8 1.9-5.9 3.6-11.4 1.7-5.4 3.7-13.2 4.3-17.3 1.3-8.4 2.6-7.6 2.7 1.7zm19.2 15.8c1.8 5.3 3.4 10.4 3.6 11.2 1.3 4.2-4.3-6-7.2-13.2-3.5-8.3-4.4-15.1-2.8-20.8.5-1.9 1-.7 2 5.3.8 4.3 2.7 12.2 4.4 17.5zm-30.8-11.1c-3.1 6.5-7.2 15.8-9.2 20.8-2.5 6.3-4.2 9.1-5.5 9.3-2.3.5-3.6-1.4-3.6-5.1 0-3.5 1.1-5.7 5-9.5 2.1-2.1 3-4 3-6.2 0-1.7.5-4.1 1.1-5.3.9-1.8 13.8-15.7 14.6-15.7.1 0-2.4 5.3-5.4 11.7zm44.3 3.5c.8 1.5 1.4 4.1 1.4 5.8 0 2.2.9 4.1 3 6.2 3.9 3.8 5 6 5 9.5 0 3.7-1.3 5.6-3.6 5.1-1.3-.2-3-3-5.5-9.3-2-5-6.1-14.4-9.3-21l-5.7-12 6.6 6.5c3.7 3.6 7.3 7.7 8.1 9.2zm-37-9.5c-1.4 7.7-9.8 32.5-11.6 34.3-2.6 2.6-5 2.6-5-.1 0-3.4 15.1-37.9 16.6-37.9.4 0 .3 1.7 0 3.7zm23.8 1c4.5 9.1 13.6 31.2 13.6 33.2 0 2.7-2.4 2.7-5 .1-1-1-3.9-8.3-6.4-16.2-6.5-20.7-7.4-27.2-2.2-17.1zm-43.5 9.5c-.7 1.3-2 3.4-3 4.7-1 1.3-2.6 5-3.5 8.3-1.3 4.7-2.3 6.2-4.2 6.9-3 1.1-3.8.5-4.6-3.6-1.2-5.6 8-16 16.2-18.4.1-.1-.3.9-.9 2.1zm71.8 7.2c3.7 5 4.3 6.4 3.7 9-.8 4.2-1.6 4.8-4.6 3.7-1.9-.7-2.8-2.2-3.8-5.8-1.2-4.7-2.9-8.1-6.5-13.6l-1.7-2.6 4.2 1.7c3.1 1.2 5.5 3.4 8.7 7.6zm-86.2-1.5c-4.6 6.4-5.5 7.1-8.2 6-4-1.5-2.3-4.4 4.7-8.3 6.6-3.8 7.4-3.2 3.5 2.3zm91.6-2.9c4.3 2.3 7.9 5.4 7.9 7 0 1.6-4.3 2.9-5.7 1.8-2.3-1.9-8.3-10.8-7.3-10.8.6 0 2.9.9 5.1 2z"/></svg>