<?xml version="1.0" encoding="UTF-8" standalone="no"?>
<!-- Created with Inkscape (http://www.inkscape.org/) -->

<svg
   xmlns:dc="http://purl.org/dc/elements/1.1/"
   xmlns:cc="http://creativecommons.org/ns#"
   xmlns:rdf="http://www.w3.org/1999/02/22-rdf-syntax-ns#"
   xmlns:svg="http://www.w3.org/2000/svg"
   xmlns="http://www.w3.org/2000/svg"
   xmlns:xlink="http://www.w3.org/1999/xlink"
   xmlns:sodipodi="http://sodipodi.sourceforge.net/DTD/sodipodi-0.dtd"
   xmlns:inkscape="http://www.inkscape.org/namespaces/inkscape"
   width="720"
   height="360"
   viewBox="0 0 720 360"
   id="svg2"
   version="1.1"
   inkscape:version="0.91 r13725"
   sodipodi:docname="2016-08-22-openwrt-for-sfr-minihub.svg"
   inkscape:export-filename="/home/erdnaxe/erdnaxe.github.io/assets/images/posts_cover/2016-08-22-openwrt-for-sfr-minihub.png"
   inkscape:export-xdpi="90"
   inkscape:export-ydpi="90">
  <defs
     id="defs4">
    <marker
       inkscape:stockid="Arrow1Lend"
       orient="auto"
       refY="0.0"
       refX="0.0"
       id="Arrow1Lend"
       style="overflow:visible;"
       inkscape:isstock="true">
      <path
         id="path4594"
         d="M 0.0,0.0 L 5.0,-5.0 L -12.5,0.0 L 5.0,5.0 L 0.0,0.0 z "
         style="fill-rule:evenodd;stroke:#ffffff;stroke-width:1pt;stroke-opacity:1;fill:#ffffff;fill-opacity:1"
         transform="scale(0.8) rotate(180) translate(12.5,0)" />
    </marker>
    <linearGradient
       inkscape:collect="always"
       id="linearGradient4154">
      <stop
         style="stop-color:#fc331e;stop-opacity:1"
         offset="0"
         id="stop4156" />
      <stop
         style="stop-color:#b5382d;stop-opacity:1"
         offset="1"
         id="stop4158" />
    </linearGradient>
    <filter
       inkscape:collect="always"
       style="color-interpolation-filters:sRGB"
       id="filter4489"
       x="-0.025361597"
       width="1.0507232"
       y="-0.055427546"
       height="1.1108551">
      <feGaussianBlur
         inkscape:collect="always"
         stdDeviation="54.033728"
         id="feGaussianBlur4491" />
    </filter>
    <filter
       inkscape:collect="always"
       style="color-interpolation-filters:sRGB"
       id="filter4489-7"
       x="-0.025361598"
       width="1.0507232"
       y="-0.055427548"
       height="1.1108551">
      <feGaussianBlur
         inkscape:collect="always"
         stdDeviation="54.033728"
         id="feGaussianBlur4491-5" />
    </filter>
    <filter
       inkscape:collect="always"
       style="color-interpolation-filters:sRGB"
       id="filter4670"
       x="-0.11927214"
       width="1.2385443"
       y="-0.032921266"
       height="1.0658425">
      <feGaussianBlur
         inkscape:collect="always"
         stdDeviation="25.791905"
         id="feGaussianBlur4672" />
    </filter>
    <radialGradient
       inkscape:collect="always"
       xlink:href="#linearGradient4154"
       id="radialGradient4160"
       cx="50845.844"
       cy="-5178.5068"
       fx="50845.844"
       fy="-5178.5068"
       r="1310.0558"
       gradientTransform="matrix(1.4287589,-0.15586469,0.03890035,0.35658297,-22211.738,24844.274)"
       gradientUnits="userSpaceOnUse" />
    <filter
       inkscape:collect="always"
       style="color-interpolation-filters:sRGB"
       id="filter4554"
       x="-0.059352171"
       width="1.1187043"
       y="-0.16715513"
       height="1.3343103">
      <feGaussianBlur
         inkscape:collect="always"
         stdDeviation="58.071153"
         id="feGaussianBlur4556" />
    </filter>
  </defs>
  <sodipodi:namedview
     id="base"
     pagecolor="#ffffff"
     bordercolor="#666666"
     borderopacity="1.0"
     inkscape:pageopacity="0.0"
     inkscape:pageshadow="2"
     inkscape:zoom="1.4692108"
     inkscape:cx="345.04519"
     inkscape:cy="135.63384"
     inkscape:document-units="px"
     inkscape:current-layer="layer1"
     showgrid="false"
     units="px"
     inkscape:window-width="1920"
     inkscape:window-height="1016"
     inkscape:window-x="0"
     inkscape:window-y="0"
     inkscape:window-maximized="1" />
  <metadata
     id="metadata7">
    <rdf:RDF>
      <cc:Work
         rdf:about="">
        <dc:format>image/svg+xml</dc:format>
        <dc:type
           rdf:resource="http://purl.org/dc/dcmitype/StillImage" />
        <dc:title />
      </cc:Work>
    </rdf:RDF>
  </metadata>
  <g
     inkscape:label="Layer 1"
     inkscape:groupmode="layer"
     id="layer1"
     transform="translate(0,-692.36216)">
    <rect
       style="opacity:1;fill:#4d4d4d;fill-opacity:1;stroke:none;stroke-width:5;stroke-miterlimit:4;stroke-dasharray:none"
       id="rect3355"
       width="720"
       height="360"
       x="0"
       y="692.36218" />
    <g
       id="g4570"
       transform="matrix(2.7972599,0,0,2.7972599,-1245.7341,-1838.1392)">
      <path
         style="fill:#e6e6e6;fill-rule:evenodd;stroke:#000000;stroke-width:1px;stroke-linecap:butt;stroke-linejoin:miter;stroke-opacity:1"
         d="m 572.77656,940.44181 c -21.58575,6.42982 -42.55955,16.00681 -61.91016,33.93164 l -0.65625,0.11328 0.32031,0.0703 -0.32031,0.17579 -0.002,26.10938 70.38867,15.6426 0.11719,-0.08 0.002,0.019 0,-0.022 57.15234,-39.74417 0,-24.18555 -0.22461,-0.041 c 0.0761,-0.0268 0.15043,-0.0573 0.22657,-0.084 l -0.34961,0.0605 z"
         id="path4675"
         inkscape:connector-curvature="0"
         sodipodi:nodetypes="cccccccccccccccc" />
      <path
         style="fill:none;fill-rule:evenodd;stroke:#000000;stroke-width:1px;stroke-linecap:butt;stroke-linejoin:miter;stroke-opacity:1"
         d="m 510.20954,974.48637 70.50758,15.52138 c 16.67295,-17.46771 35.66678,-30.13894 57.15242,-37.66042"
         id="path3368-3"
         inkscape:connector-curvature="0"
         sodipodi:nodetypes="ccc" />
      <path
         style="fill:none;fill-rule:evenodd;stroke:#000000;stroke-width:1px;stroke-linecap:butt;stroke-linejoin:miter;stroke-opacity:1"
         d="m 580.71682,990.07365 0,26.35025 -0.0602,-0.4211"
         id="path3385"
         inkscape:connector-curvature="0"
         sodipodi:nodetypes="ccc" />
      <path
         transform="matrix(0.01,0,0,0.01,61.915812,811.11102)"
         style="fill:none;fill-rule:evenodd;stroke:#000000;stroke-width:50;stroke-linecap:butt;stroke-linejoin:miter;stroke-miterlimit:4;stroke-dasharray:none;stroke-opacity:1;filter:url(#filter4670)"
         d="m 54635.416,16255.242 0,1531.435 518.986,-314.795 0,-1565.466 z"
         id="path3387"
         inkscape:connector-curvature="0" />
      <path
         transform="matrix(0.01,0,0,0.01,61.915812,811.11102)"
         style="opacity:1;fill:#000000;fill-rule:evenodd;stroke:none;stroke-width:100px;stroke-linecap:butt;stroke-linejoin:miter;stroke-opacity:1;filter:url(#filter4489)"
         d="m 45792.128,17174.132 c -2.148,158.724 -4.296,317.447 -6.444,476.171 55.794,-2.819 165.683,59.832 185.156,13.054 0,-150.249 0,-300.499 0,-450.749 -59.571,-12.825 -119.141,-25.651 -178.712,-38.476 z m 467.97,100.781 c 0,155.469 0,310.937 0,466.406 60.073,3.933 167.985,65.694 136.132,-41.501 0,-131.869 0,-263.739 0,-395.608 -45.377,-9.766 -90.754,-19.531 -136.132,-29.297 z m 391.405,84.375 c 0,152.344 0,304.687 0,457.031 76.564,14.714 153.125,29.427 229.689,44.141 0,-150.586 0,-301.172 0,-451.758 -76.564,-16.471 -153.125,-32.943 -229.689,-49.414 z m 459.375,98.828 c 0,148.763 0,297.526 0,446.289 52.58,-4.502 162.935,60.942 178.712,11.882 0,-139.898 0,-279.797 0,-419.695 -59.571,-12.825 -119.141,-25.651 -178.712,-38.476 z m 408.399,87.891 c 0,145.573 0,291.145 0,436.718 52.581,-4.502 162.935,60.942 178.712,11.882 0,-136.708 0,-273.416 0,-410.124 -59.57,-12.825 -119.141,-25.651 -178.712,-38.476 z m 408.398,88.085 c 0,142.318 0,284.636 0,426.954 73.699,14.127 147.396,28.255 221.094,42.382 0,-140.625 0,-281.25 0,-421.875 -73.698,-15.82 -147.395,-31.641 -221.094,-47.461 z m 450.782,97.071 c 0,138.802 0,277.604 0,416.406 73.762,14.128 147.526,28.255 221.289,42.383 0,-137.044 0,-274.089 0,-411.133 -73.763,-15.885 -147.527,-31.771 -221.289,-47.656 z m 450.977,97.07 c 0,135.221 0,270.443 0,405.664 61.395,4.166 152.786,44.66 195.703,26.449 0,-129.975 0,-259.95 0,-389.925 -65.235,-14.063 -130.47,-28.125 -195.703,-42.188 z m -3046.29,9.961 c -2.668,195.508 -5.338,391.016 -8.007,586.524 61.485,5.489 152.594,47.559 195.703,30.355 0,-192.671 0,-385.341 0,-578.012 -62.565,-12.956 -125.131,-25.911 -187.696,-38.867 z m 3471.681,81.641 c 0,131.901 0,263.802 0,395.703 76.562,14.713 153.125,29.427 229.687,44.14 0,-130.143 0,-260.286 0,-390.429 -76.562,-16.471 -153.125,-32.943 -229.687,-49.414 z m -2994.727,17.187 c 0,197.005 0,394.011 0,591.016 59.943,5.125 167.744,69.338 136.132,-38.572 0,-174.773 0,-349.546 0,-524.319 -45.377,-9.375 -90.754,-18.75 -136.132,-28.125 z m 391.405,80.86 c 0,197.851 0,395.703 0,593.554 76.564,16.276 153.125,32.552 229.689,48.828 0,-198.242 0,-396.484 0,-594.726 -76.564,-15.885 -153.125,-31.771 -229.689,-47.656 z m 3062.697,0.781 c 0,128.32 0,256.641 0,384.961 52.58,-4.502 162.933,60.942 178.711,11.882 0,-119.455 0,-238.911 0,-358.367 -59.57,-12.825 -119.142,-25.651 -178.711,-38.476 z m 408.398,88.086 c 0,125.065 0,250.13 0,375.195 87.955,16.862 175.91,33.724 263.867,50.586 0,-122.982 0,-245.963 0,-368.945 -87.957,-18.945 -175.912,-37.891 -263.867,-56.836 z m -3011.72,6.25 c 0,198.763 0,397.526 0,596.289 52.735,-3.249 162.578,64.064 178.712,15.593 0,-191.591 0,-383.182 0,-574.773 -59.571,-12.37 -119.141,-24.739 -178.712,-37.109 z m 408.399,84.57 c 0,199.544 0,399.089 0,598.633 52.735,-3.249 162.578,64.064 178.712,15.593 0,-192.372 0,-384.745 0,-577.117 -59.57,-12.37 -119.141,-24.739 -178.712,-37.109 z m 3096.875,15.43 c 0,121.224 0,242.448 0,363.672 90.756,17.383 181.51,34.765 272.265,52.148 0,-119.076 0,-238.151 0,-357.227 -90.755,-19.531 -181.509,-39.062 -272.265,-58.593 z m -2688.477,69.14 c 0,200.326 0,400.651 0,600.977 73.699,15.69 147.396,31.38 221.094,47.07 0,-200.781 0,-401.563 0,-602.344 -73.698,-15.234 -147.395,-30.469 -221.094,-45.703 z m 450.782,93.36 c 0,201.237 0,402.474 0,603.711 73.762,15.69 147.526,31.38 221.289,47.07 0,-201.693 0,-403.385 0,-605.078 -73.763,-15.234 -147.527,-30.469 -221.289,-45.703 z m 450.977,93.359 c 0,202.148 0,404.297 0,606.445 61.486,5.49 152.593,47.56 195.703,30.356 0,-198.791 0,-397.581 0,-596.371 -65.235,-13.477 -130.47,-26.953 -195.703,-40.43 z m 425.391,88.086 c 0,202.995 0,405.989 0,608.984 76.562,16.276 153.125,32.553 229.687,48.829 0,-203.451 0,-406.901 0,-610.352 -76.562,-15.82 -153.125,-31.641 -229.687,-47.461 z m 459.375,94.922 c 0,203.971 0,407.943 0,611.914 52.725,-3.315 162.595,63.901 178.711,15.398 0,-196.734 0,-393.469 0,-590.203 -59.57,-12.37 -119.142,-24.739 -178.711,-37.109 z m 408.398,84.57 c 0,204.753 0,409.505 0,614.258 87.955,18.75 175.91,37.5 263.867,56.25 0,-205.273 0,-410.547 0,-615.82 -87.957,-18.229 -175.912,-36.459 -263.867,-54.688 z m 493.554,102.149 c 0,205.729 0,411.458 0,617.187 90.756,19.336 181.51,38.672 272.265,58.008 0,-206.25 0,-412.5 0,-618.75 -90.755,-18.815 -181.509,-37.63 -272.265,-56.445 z"
         id="path4191"
         inkscape:connector-curvature="0" />
      <path
         style="opacity:1;fill:#000000;fill-rule:evenodd;stroke:none;stroke-width:100px;stroke-linecap:butt;stroke-linejoin:miter;stroke-opacity:1;filter:url(#filter4489-7)"
         d="m 52599.866,18409.44 0,466.406 c 60.073,3.933 167.985,65.694 136.132,-41.501 l 0,-395.608 c -45.377,-9.766 -90.754,-19.531 -136.132,-29.297 z m 391.405,84.375 0,457.031 c 76.564,14.714 153.125,29.427 229.689,44.141 l 0,-451.758 c -76.564,-16.471 -153.125,-32.943 -229.689,-49.414 z m 459.375,98.828 0,446.289 c 52.58,-4.502 162.935,60.942 178.712,11.882 l 0,-419.695 c -59.571,-12.825 -119.141,-25.651 -178.712,-38.476 z m 408.399,87.891 0,436.718 c 52.581,-4.502 162.935,60.942 178.712,11.882 l 0,-410.124 c -59.57,-12.825 -119.141,-25.651 -178.712,-38.476 z m 1735.548,373.828 0,395.703 c 76.562,14.713 153.125,29.427 229.687,44.14 l 0,-390.429 c -76.562,-16.471 -153.125,-32.943 -229.687,-49.414 z m -2994.727,17.187 0,591.016 c 59.943,5.125 167.744,69.338 136.132,-38.572 l 0,-524.319 c -45.377,-9.375 -90.754,-18.75 -136.132,-28.125 z m 391.405,80.86 0,593.554 c 76.564,16.276 153.125,32.552 229.689,48.828 l 0,-594.726 c -76.564,-15.885 -153.125,-31.771 -229.689,-47.656 z m 3062.697,0.781 0,384.961 c 52.58,-4.502 162.933,60.942 178.711,11.882 l 0,-358.367 c -59.57,-12.825 -119.142,-25.651 -178.711,-38.476 z m 408.398,88.086 0,375.195 c 87.955,16.862 175.91,33.724 263.867,50.586 l 0,-368.945 c -87.957,-18.945 -175.912,-37.891 -263.867,-56.836 z m -3011.72,6.25 0,596.289 c 52.735,-3.249 162.578,64.064 178.712,15.593 l 0,-574.773 c -59.571,-12.37 -119.141,-24.739 -178.712,-37.109 z m 408.399,84.57 0,598.633 c 52.735,-3.249 162.578,64.064 178.712,15.593 l 0,-577.117 c -59.57,-12.37 -119.141,-24.739 -178.712,-37.109 z m 3096.875,15.43 0,363.672 c 90.756,17.383 181.51,34.765 272.265,52.148 l 0,-357.227 c -90.755,-19.531 -181.509,-39.062 -272.265,-58.593 z m -1361.327,343.945 0,608.984 c 76.562,16.276 153.125,32.553 229.687,48.829 l 0,-610.352 c -76.562,-15.82 -153.125,-31.641 -229.687,-47.461 z m 459.375,94.922 0,611.914 c 52.725,-3.315 162.595,63.901 178.711,15.398 l 0,-590.203 c -59.57,-12.37 -119.142,-24.739 -178.711,-37.109 z m 408.398,84.57 0,614.258 c 87.955,18.75 175.91,37.5 263.867,56.25 l 0,-615.82 c -87.957,-18.229 -175.912,-36.459 -263.867,-54.688 z m 493.554,102.149 0,617.187 c 90.756,19.336 181.51,38.672 272.265,58.008 l 0,-618.75 c -90.755,-18.815 -181.509,-37.63 -272.265,-56.445 z"
         id="path4191-3"
         inkscape:connector-curvature="0"
         transform="matrix(-0.00541011,0.00130705,9.75138e-5,0.01016153,905.57917,709.13293)"
         sodipodi:nodetypes="cccccccccccccccccccccccccccccccccccccccccccccccccccccccccccccccccccccccccccccccc" />
      <path
         style="fill:url(#radialGradient4160);fill-opacity:1;fill-rule:evenodd;stroke:none;stroke-width:100px;stroke-linecap:butt;stroke-linejoin:miter;stroke-opacity:1;filter:url(#filter4554)"
         d="m 50114.159,15140.699 833.782,-493.462 1514.418,306.287 -918.861,527.494 z"
         id="path4152"
         inkscape:connector-curvature="0"
         sodipodi:nodetypes="ccccc"
         transform="matrix(0.01310919,0,0,0.01310919,-97.548938,764.27384)" />
    </g>
    <g
       id="g4579"
       transform="matrix(1.1624653,0,0,1.1624653,55.531958,-235.52606)">
      <path
         id="path3337"
         d="m 400.08581,895.34102 c 0,0.63 0.08,1.53 0.5,2.04 0.3,0.35 0.64,0.53 1.1,0.53 0.46,0 0.81,-0.16 1.1,-0.51 0.42,-0.5 0.49,-1.48 0.49,-2.1 0,-0.62 -0.07,-1.48 -0.5,-1.98 -0.29,-0.34 -0.61,-0.51 -1.06,-0.51 -0.47,0 -0.83,0.17 -1.13,0.53 -0.42,0.5 -0.5,1.37 -0.5,2 l 0,0 0,0 z m -15.67,-0.07 c 0,-0.55 -0.07,-1.3 -0.44,-1.74 -0.27,-0.31 -0.57,-0.45 -0.98,-0.45 -0.34,0 -0.57,0.14 -0.78,0.4 -0.35,0.43 -0.4,1.38 -0.4,1.9 0,0.53 0.06,1.37 0.42,1.8 0.22,0.27 0.47,0.42 0.82,0.42 0.39,0 0.68,-0.15 0.93,-0.44 0.37,-0.44 0.43,-1.35 0.43,-1.89 l 0,0 z m -17.74,-2.01 c -0.08,-0.22 -0.19,-0.43 -0.33,-0.57 -0.29,-0.29 -0.66,-0.37 -1.06,-0.37 -0.52,0 -0.9,0.19 -1.22,0.61 -0.07,0.1 -0.13,0.21 -0.19,0.34 l 2.8,0 0,-0.01 0,0 z m -18.24,0 c -0.08,-0.22 -0.19,-0.43 -0.33,-0.57 -0.29,-0.29 -0.66,-0.37 -1.06,-0.37 -0.52,0 -0.9,0.19 -1.22,0.61 -0.07,0.1 -0.13,0.21 -0.19,0.34 l 2.8,0 0,-0.01 0,0 z m -89.5,0 c -0.08,-0.22 -0.19,-0.43 -0.33,-0.57 -0.29,-0.29 -0.66,-0.37 -1.06,-0.37 -0.52,0 -0.9,0.19 -1.22,0.61 -0.07,0.1 -0.13,0.21 -0.19,0.34 l 2.8,0 0,-0.01 0,0 z m -27.95,0 c -0.08,-0.22 -0.19,-0.43 -0.33,-0.57 -0.29,-0.29 -0.66,-0.37 -1.06,-0.37 -0.52,0 -0.9,0.19 -1.22,0.61 -0.07,0.1 -0.13,0.21 -0.19,0.34 l 2.8,0 0,-0.01 0,0 z m 187.65,-4.69 c 0.24,-0.17 0.5,-0.32 0.76,-0.45 0.91,-0.44 1.92,-0.6 2.92,-0.6 1.02,0 2.1,0.16 2.98,0.69 0.46,0.28 0.85,0.62 1.18,1.02 0.5,-0.46 1.06,-0.88 1.65,-1.16 0.88,-0.41 1.86,-0.55 2.82,-0.55 1.51,0 2.92,0.43 3.98,1.54 1.14,1.21 1.44,2.96 1.44,4.56 l 0,9.19 -6.9,0 0,-8.43 c 0,-0.19 -0.02,-0.61 -0.15,-0.77 l -0.02,-0.04 c -0.14,-0.19 -0.29,-0.32 -0.53,-0.32 -0.31,0 -0.55,0.09 -0.75,0.33 -0.29,0.34 -0.33,1.08 -0.33,1.5 l 0,7.73 -6.9,0 0,-8.16 c 0,-0.21 0,-0.7 -0.06,-0.9 -0.05,-0.15 -0.13,-0.27 -0.25,-0.36 -0.11,-0.09 -0.24,-0.12 -0.39,-0.12 -0.31,0 -0.55,0.1 -0.75,0.34 -0.3,0.35 -0.35,1.14 -0.35,1.58 l 0,7.63 -6.9,0 0,-14.98 6.55,0 0,0.73 0,0 z m -25.45,6.78 c 0,-2.18 0.73,-4.1 2.32,-5.63 1.68,-1.61 3.85,-2.2 6.15,-2.2 2.53,0 4.97,0.66 6.69,2.6 1.29,1.46 1.86,3.22 1.86,5.15 0,2.18 -0.71,4.11 -2.3,5.64 -1.69,1.63 -3.93,2.2 -6.23,2.2 -2.08,0 -4.11,-0.48 -5.74,-1.82 -1.85,-1.53 -2.75,-3.55 -2.75,-5.94 l 0,0 z m -8.43,6.77 c -0.16,0.12 -0.33,0.22 -0.49,0.31 -0.89,0.47 -1.87,0.68 -2.87,0.68 -2.03,0 -3.72,-0.77 -4.88,-2.44 -1.14,-1.63 -1.59,-3.53 -1.59,-5.49 0,-2.01 0.42,-4.09 1.81,-5.62 1.24,-1.37 2.83,-2.04 4.68,-2.04 0.86,0 1.7,0.14 2.5,0.46 0.16,0.07 0.31,0.14 0.47,0.22 l 0,-5.37 6.95,0 0,19.98 -6.57,0 0,-0.69 -0.01,0 0,0 z m -20.86,-4.65 c 0.06,0.12 0.12,0.23 0.2,0.32 0.34,0.38 0.73,0.54 1.24,0.54 0.35,0 0.68,-0.08 0.98,-0.25 0.22,-0.12 0.47,-0.4 0.62,-0.6 l 0.01,-0.01 -3.05,0 0,0 z m 7.38,0 2.88,0.26 -0.71,1.22 c -0.76,1.31 -1.77,2.47 -3.13,3.19 -1.49,0.79 -3.43,0.97 -5.09,0.97 -1.5,0 -3.19,-0.17 -4.55,-0.83 -1.22,-0.6 -2.17,-1.53 -2.88,-2.68 -0.8,-1.29 -1.13,-2.75 -1.13,-4.26 0,-2.18 0.68,-4.13 2.27,-5.65 1.67,-1.6 3.86,-2.16 6.13,-2.16 1.63,0 3.45,0.2 4.91,0.96 1.26,0.66 2.23,1.61 2.9,2.86 0.75,1.41 0.97,3.08 0.97,4.66 l 0,1.47 -2.57,0 0,-0.01 0,0 z m -25.62,0 c 0.06,0.12 0.12,0.23 0.2,0.32 0.33,0.38 0.73,0.54 1.24,0.54 0.35,0 0.68,-0.08 0.98,-0.25 0.22,-0.12 0.47,-0.4 0.62,-0.6 l 0.01,-0.01 -3.05,0 0,0 z m 7.38,0 2.88,0.26 -0.71,1.22 c -0.76,1.31 -1.77,2.47 -3.13,3.19 -1.49,0.79 -3.43,0.97 -5.09,0.97 -1.5,0 -3.19,-0.17 -4.55,-0.83 -1.22,-0.6 -2.17,-1.53 -2.88,-2.68 -0.8,-1.29 -1.12,-2.75 -1.12,-4.26 0,-2.18 0.68,-4.13 2.27,-5.65 1.67,-1.6 3.86,-2.16 6.13,-2.16 1.63,0 3.45,0.2 4.91,0.96 1.26,0.66 2.23,1.61 2.9,2.86 0.75,1.41 0.97,3.08 0.97,4.66 l 0,1.47 -2.58,0 0,-0.01 z m -20.28,-9.27 c 0.68,-0.49 1.48,-0.68 2.32,-0.68 1.01,0 2,0.34 2.89,0.8 l 0.74,0.39 -2.27,5.16 -0.82,-0.34 c -0.28,-0.12 -0.77,-0.3 -1.08,-0.3 -0.36,0 -0.6,0.13 -0.8,0.42 -0.57,0.85 -0.63,2.84 -0.63,3.82 l 0,5.33 -6.92,0 0,-14.98 6.57,0 0,0.38 0,0 z m -16.15,0.33 0,1.38 7.11,0 0,5.48 -7.1,0 0,7.42 -7.5,0 0,-19.99 15.79,0 0,5.71 -8.3,0 0,0 z m -24.12,3.88 c -0.04,-0.07 -0.09,-0.14 -0.16,-0.19 -0.27,-0.18 -0.61,-0.24 -0.94,-0.24 -0.14,0 -0.53,0.02 -0.67,0.1 0.4,0.17 1.36,0.29 1.77,0.33 z m 0.67,5.79 c -0.02,-0.02 -0.06,-0.04 -0.08,-0.05 -0.37,-0.18 -1.5,-0.36 -1.92,-0.43 -0.19,-0.03 -0.38,-0.06 -0.58,-0.1 0.1,0.26 0.26,0.55 0.48,0.7 0.27,0.18 0.67,0.23 0.99,0.23 0.32,0 0.76,-0.04 1.02,-0.24 l 0.03,-0.02 c 0.01,-0.02 0.04,-0.05 0.06,-0.09 l 0,0 z m -5.19,-1.16 c -0.23,-0.07 -0.44,-0.14 -0.65,-0.22 -0.87,-0.33 -1.58,-0.89 -2.13,-1.62 -0.6,-0.79 -0.88,-1.69 -0.88,-2.67 0,-1.04 0.3,-1.99 0.96,-2.81 0.65,-0.81 1.52,-1.36 2.51,-1.7 1.2,-0.42 2.61,-0.52 3.88,-0.52 1.17,0 2.65,0.04 3.77,0.4 0.85,0.27 1.62,0.71 2.25,1.34 0.66,0.66 1.12,1.5 1.45,2.36 l 0.43,1.1 -3.56,0.34 c 0.19,0.06 0.37,0.13 0.55,0.2 0.92,0.38 1.72,0.95 2.29,1.77 0.54,0.77 0.82,1.64 0.82,2.58 0,0.98 -0.31,1.89 -0.84,2.71 -0.62,0.96 -1.55,1.61 -2.58,2.06 -1.34,0.57 -2.97,0.71 -4.42,0.71 -1.78,0 -4.15,-0.17 -5.68,-1.19 -1.25,-0.83 -2.02,-2.02 -2.35,-3.47 l -0.23,-1 4.41,-0.37 0,0 z m -12.29,-4.63 c -0.04,-0.07 -0.1,-0.14 -0.16,-0.19 -0.27,-0.18 -0.61,-0.24 -0.94,-0.24 -0.14,0 -0.53,0.02 -0.67,0.1 0.4,0.17 1.37,0.29 1.77,0.33 z m 0.67,5.79 c -0.02,-0.02 -0.06,-0.04 -0.08,-0.05 -0.37,-0.18 -1.5,-0.36 -1.92,-0.43 -0.19,-0.03 -0.38,-0.06 -0.58,-0.1 0.1,0.26 0.26,0.55 0.48,0.7 0.27,0.18 0.67,0.23 0.99,0.23 0.32,0 0.76,-0.04 1.02,-0.24 l 0.03,-0.02 c 0.02,-0.02 0.05,-0.05 0.06,-0.09 l 0,0 z m -5.19,-1.16 c -0.23,-0.07 -0.44,-0.14 -0.65,-0.22 -0.87,-0.33 -1.58,-0.89 -2.13,-1.62 -0.6,-0.79 -0.89,-1.69 -0.89,-2.67 0,-1.04 0.3,-1.99 0.96,-2.81 0.65,-0.81 1.52,-1.36 2.5,-1.7 1.2,-0.42 2.61,-0.52 3.88,-0.52 1.17,0 2.65,0.04 3.77,0.4 0.85,0.27 1.62,0.71 2.25,1.34 0.66,0.66 1.12,1.5 1.45,2.36 l 0.42,1.1 -3.56,0.34 c 0.19,0.06 0.38,0.13 0.55,0.2 0.92,0.38 1.72,0.95 2.29,1.77 0.54,0.77 0.82,1.64 0.82,2.58 0,0.98 -0.31,1.89 -0.83,2.71 -0.62,0.96 -1.55,1.61 -2.58,2.06 -1.34,0.57 -2.98,0.71 -4.42,0.71 -1.78,0 -4.16,-0.17 -5.68,-1.19 -1.25,-0.83 -2.02,-2.02 -2.35,-3.47 l -0.23,-1 4.43,-0.37 0,0 z m -15,0.43 c 0.06,0.12 0.12,0.23 0.2,0.32 0.33,0.38 0.73,0.54 1.24,0.54 0.35,0 0.68,-0.08 0.99,-0.25 0.22,-0.12 0.47,-0.4 0.62,-0.6 l 0.01,-0.01 -3.06,0 0,0 z m 7.38,0 2.88,0.26 -0.71,1.22 c -0.76,1.31 -1.77,2.47 -3.13,3.19 -1.49,0.79 -3.42,0.97 -5.09,0.97 -1.5,0 -3.18,-0.17 -4.55,-0.83 -1.22,-0.6 -2.17,-1.53 -2.88,-2.68 -0.8,-1.29 -1.12,-2.75 -1.12,-4.26 0,-2.18 0.68,-4.13 2.27,-5.65 1.67,-1.6 3.86,-2.16 6.13,-2.16 1.63,0 3.45,0.2 4.91,0.96 1.26,0.66 2.23,1.61 2.9,2.86 0.75,1.41 0.96,3.08 0.96,4.66 l 0,1.47 -2.57,0 0,-0.01 z m -23.49,-14.65 6.9,0 0,19.98 -6.9,0 0,-19.98 z m -11.84,14.65 c 0.06,0.12 0.12,0.23 0.2,0.32 0.34,0.38 0.73,0.54 1.24,0.54 0.35,0 0.68,-0.08 0.99,-0.25 0.22,-0.12 0.47,-0.4 0.62,-0.6 l 0.01,-0.01 -3.06,0 0,0 z m 7.38,0 2.88,0.26 -0.71,1.22 c -0.76,1.31 -1.77,2.47 -3.13,3.19 -1.49,0.79 -3.42,0.97 -5.09,0.97 -1.5,0 -3.19,-0.17 -4.55,-0.83 -1.22,-0.6 -2.17,-1.53 -2.88,-2.68 -0.8,-1.29 -1.13,-2.75 -1.13,-4.26 0,-2.18 0.68,-4.13 2.27,-5.65 1.67,-1.6 3.86,-2.16 6.13,-2.16 1.63,0 3.45,0.2 4.91,0.96 1.26,0.66 2.23,1.61 2.9,2.86 0.75,1.41 0.96,3.08 0.96,4.66 l 0,1.47 -2.56,0 0,-0.01 z m -20.28,-9.27 c 0.69,-0.49 1.48,-0.68 2.32,-0.68 1.01,0 2,0.34 2.89,0.8 l 0.75,0.39 -2.27,5.16 -0.82,-0.34 c -0.28,-0.12 -0.77,-0.3 -1.08,-0.3 -0.36,0 -0.6,0.13 -0.8,0.42 -0.57,0.85 -0.63,2.84 -0.63,3.82 l 0,5.33 -6.92,0 0,-14.98 6.57,0 0,0.38 -0.01,0 0,0 z m -37.1,1.7 1.97,-7.08 6.7,0 2,7.12 1.36,-7.11 7.22,0 -4.43,19.98 -6.96,0 -2.52,-8.99 -2.5,8.99 -6.95,0 -4.47,-19.98 7.25,0 1.33,7.07 0,0 z m 27.84,-2.08 0,14.98 -6.9,0 0,-19.98 6.9,0 0,5 z"
         inkscape:connector-curvature="0"
         style="fill:#a6a6a6" />
      <path
         id="path3339"
         d="m 412.99581,888.72102 4.74,0 0,1.92 c 0.68,-0.8 1.37,-1.38 2.07,-1.71 0.69,-0.34 1.53,-0.51 2.52,-0.51 1.06,0 1.89,0.19 2.51,0.56 0.62,0.37 1.12,0.93 1.51,1.66 0.8,-0.86 1.52,-1.45 2.18,-1.76 0.66,-0.31 1.47,-0.47 2.43,-0.47 1.42,0 2.53,0.42 3.32,1.26 0.8,0.84 1.2,2.15 1.2,3.94 l 0,8.28 -5.08,0 0,-7.53 c 0,-0.6 -0.12,-1.05 -0.35,-1.33 -0.34,-0.46 -0.76,-0.68 -1.26,-0.68 -0.6,0 -1.08,0.22 -1.44,0.65 -0.36,0.43 -0.55,1.13 -0.55,2.08 l 0,6.82 -5.09,0 0,-7.26 c 0,-0.58 -0.03,-0.97 -0.1,-1.18 -0.11,-0.33 -0.29,-0.6 -0.56,-0.8 -0.26,-0.2 -0.58,-0.3 -0.94,-0.3 -0.58,0 -1.06,0.22 -1.44,0.66 -0.38,0.44 -0.56,1.16 -0.56,2.16 l 0,6.73 -5.09,0 0,-13.19 -0.02,0 0,0 z m -13.82,6.62 c 0,1.18 0.24,2.06 0.72,2.62 0.48,0.56 1.07,0.85 1.8,0.85 0.73,0 1.33,-0.28 1.79,-0.83 0.47,-0.56 0.7,-1.45 0.7,-2.68 0,-1.15 -0.23,-2 -0.71,-2.56 -0.47,-0.56 -1.06,-0.84 -1.76,-0.84 -0.74,0 -1.35,0.28 -1.83,0.85 -0.47,0.57 -0.71,1.43 -0.71,2.59 l 0,0 z m -5.08,0.01 c 0,-2.02 0.68,-3.67 2.05,-4.98 1.36,-1.3 3.2,-1.96 5.52,-1.96 2.65,0 4.66,0.77 6.01,2.3 1.09,1.24 1.63,2.76 1.63,4.56 0,2.03 -0.67,3.69 -2.02,4.99 -1.35,1.29 -3.22,1.94 -5.61,1.94 -2.12,0 -3.85,-0.54 -5.16,-1.62 -1.62,-1.32 -2.42,-3.07 -2.42,-5.23 l 0,0 z m -8.78,-0.09 c 0,-1.04 -0.22,-1.81 -0.66,-2.32 -0.44,-0.51 -1,-0.77 -1.67,-0.77 -0.59,0 -1.08,0.24 -1.48,0.74 -0.4,0.49 -0.6,1.31 -0.6,2.46 0,1.08 0.21,1.87 0.62,2.37 0.41,0.5 0.92,0.75 1.53,0.75 0.65,0 1.19,-0.25 1.62,-0.76 0.43,-0.49 0.64,-1.32 0.64,-2.47 l 0,0 z m 5.1,-11.54 0,18.18 -4.76,0 0,-1.95 c -0.66,0.83 -1.27,1.39 -1.82,1.69 -0.73,0.38 -1.55,0.57 -2.44,0.57 -1.8,0 -3.18,-0.68 -4.14,-2.05 -0.95,-1.37 -1.43,-3.03 -1.43,-4.98 0,-2.19 0.53,-3.86 1.58,-5.02 1.05,-1.16 2.39,-1.74 4.01,-1.74 0.79,0 1.51,0.13 2.15,0.39 0.65,0.27 1.22,0.66 1.72,1.19 l 0,-6.28 5.13,0 z m -22.63,10.44 c -0.1,-0.98 -0.37,-1.69 -0.8,-2.11 -0.43,-0.42 -0.99,-0.64 -1.69,-0.64 -0.81,0 -1.46,0.32 -1.94,0.96 -0.31,0.4 -0.5,0.99 -0.59,1.78 l 5.02,0 0,0.01 z m 5.16,2.41 -10.2,0 c 0.09,0.81 0.31,1.41 0.67,1.81 0.49,0.57 1.13,0.85 1.93,0.85 0.5,0 0.98,-0.12 1.43,-0.37 0.28,-0.16 0.57,-0.43 0.89,-0.82 l 5.01,0.46 c -0.77,1.32 -1.69,2.27 -2.77,2.85 -1.08,0.57 -2.64,0.86 -4.66,0.86 -1.76,0 -3.14,-0.24 -4.15,-0.74 -1,-0.49 -1.84,-1.27 -2.5,-2.35 -0.66,-1.07 -0.99,-2.34 -0.99,-3.78 0,-2.06 0.66,-3.73 1.99,-5.01 1.33,-1.27 3.16,-1.91 5.5,-1.91 1.9,0 3.4,0.29 4.49,0.86 1.09,0.57 1.94,1.4 2.51,2.48 0.57,1.09 0.86,2.5 0.86,4.24 l 0,0.57 -0.01,0 0,0 z m -23.4,-2.41 c -0.1,-0.98 -0.37,-1.69 -0.8,-2.11 -0.43,-0.42 -0.99,-0.64 -1.69,-0.64 -0.81,0 -1.46,0.32 -1.94,0.96 -0.31,0.4 -0.5,0.99 -0.59,1.78 l 5.02,0 0,0.01 z m 5.16,2.41 -10.2,0 c 0.09,0.81 0.31,1.41 0.66,1.81 0.49,0.57 1.13,0.85 1.93,0.85 0.5,0 0.98,-0.12 1.43,-0.37 0.28,-0.16 0.57,-0.43 0.89,-0.82 l 5.01,0.46 c -0.77,1.32 -1.69,2.27 -2.77,2.85 -1.08,0.57 -2.64,0.86 -4.66,0.86 -1.76,0 -3.14,-0.24 -4.15,-0.74 -1.01,-0.49 -1.84,-1.27 -2.5,-2.35 -0.66,-1.07 -0.99,-2.34 -0.99,-3.78 0,-2.06 0.67,-3.73 1.99,-5.01 1.33,-1.27 3.16,-1.91 5.5,-1.91 1.9,0 3.4,0.29 4.49,0.86 1.1,0.57 1.94,1.4 2.51,2.48 0.57,1.09 0.86,2.5 0.86,4.24 l 0,0.57 0,0 z m -27.62,-7.85 4.76,0 0,2.15 c 0.46,-0.94 0.93,-1.58 1.42,-1.93 0.49,-0.35 1.09,-0.52 1.81,-0.52 0.75,0 1.58,0.23 2.47,0.7 l -1.58,3.59 c -0.6,-0.25 -1.08,-0.37 -1.43,-0.37 -0.67,0 -1.18,0.27 -1.55,0.82 -0.52,0.77 -0.79,2.21 -0.79,4.33 l 0,4.43 -5.11,0 0,-13.2 0,0 z m -17.06,-5 13.98,0 0,3.91 -8.31,0 0,3.17 7.11,0 0,3.68 -7.11,0 0,7.42 -5.67,0 0,-18.18 z m -25.39,14.53 5.04,-0.46 c 0.21,0.59 0.5,1.02 0.87,1.27 0.38,0.25 0.87,0.38 1.5,0.38 0.68,0 1.21,-0.14 1.59,-0.44 0.29,-0.21 0.44,-0.48 0.44,-0.8 0,-0.36 -0.19,-0.65 -0.57,-0.85 -0.27,-0.14 -1,-0.31 -2.18,-0.52 -1.76,-0.3 -2.99,-0.59 -3.68,-0.85 -0.69,-0.26 -1.26,-0.7 -1.73,-1.32 -0.47,-0.62 -0.7,-1.33 -0.7,-2.12 0,-0.87 0.25,-1.62 0.76,-2.24 0.51,-0.63 1.21,-1.1 2.1,-1.41 0.89,-0.31 2.08,-0.47 3.58,-0.47 1.58,0 2.74,0.12 3.49,0.36 0.75,0.24 1.38,0.61 1.88,1.12 0.5,0.51 0.92,1.19 1.25,2.05 l -4.8,0.46 c -0.12,-0.42 -0.33,-0.73 -0.62,-0.93 -0.4,-0.26 -0.88,-0.39 -1.44,-0.39 -0.57,0 -0.99,0.1 -1.25,0.31 -0.26,0.21 -0.39,0.45 -0.39,0.74 0,0.33 0.17,0.57 0.49,0.73 0.33,0.17 1.05,0.32 2.16,0.45 1.69,0.19 2.94,0.46 3.77,0.8 0.82,0.34 1.45,0.82 1.89,1.45 0.44,0.63 0.66,1.32 0.66,2.07 0,0.76 -0.23,1.5 -0.69,2.22 -0.46,0.72 -1.19,1.29 -2.18,1.72 -0.99,0.43 -2.35,0.64 -4.06,0.64 -2.42,0 -4.14,-0.34 -5.17,-1.03 -1.06,-0.7 -1.72,-1.68 -2.01,-2.94 l 0,0 z m -16.81,0 5.04,-0.46 c 0.21,0.59 0.5,1.02 0.87,1.27 0.38,0.25 0.87,0.38 1.5,0.38 0.68,0 1.21,-0.14 1.58,-0.44 0.29,-0.21 0.44,-0.48 0.44,-0.8 0,-0.36 -0.19,-0.65 -0.57,-0.85 -0.27,-0.14 -1,-0.31 -2.18,-0.52 -1.76,-0.3 -2.98,-0.59 -3.68,-0.85 -0.69,-0.26 -1.26,-0.7 -1.73,-1.32 -0.47,-0.62 -0.7,-1.33 -0.7,-2.12 0,-0.87 0.25,-1.62 0.76,-2.24 0.51,-0.63 1.21,-1.1 2.1,-1.41 0.89,-0.31 2.08,-0.47 3.58,-0.47 1.58,0 2.74,0.12 3.49,0.36 0.75,0.24 1.38,0.61 1.88,1.12 0.5,0.51 0.92,1.19 1.25,2.05 l -4.81,0.46 c -0.12,-0.42 -0.33,-0.73 -0.62,-0.93 -0.4,-0.26 -0.88,-0.39 -1.44,-0.39 -0.57,0 -0.99,0.1 -1.25,0.31 -0.26,0.2 -0.39,0.45 -0.39,0.74 0,0.33 0.17,0.57 0.49,0.73 0.33,0.17 1.05,0.32 2.16,0.45 1.69,0.19 2.94,0.46 3.77,0.8 0.82,0.34 1.45,0.82 1.89,1.45 0.44,0.63 0.66,1.32 0.66,2.07 0,0.76 -0.23,1.5 -0.69,2.22 -0.46,0.72 -1.19,1.29 -2.18,1.72 -0.99,0.43 -2.35,0.64 -4.06,0.64 -2.42,0 -4.15,-0.34 -5.17,-1.03 -1.04,-0.7 -1.7,-1.68 -1.99,-2.94 l 0,0 z m -7.79,-4.09 c -0.1,-0.98 -0.37,-1.69 -0.8,-2.11 -0.43,-0.42 -0.99,-0.64 -1.69,-0.64 -0.81,0 -1.46,0.32 -1.94,0.96 -0.31,0.4 -0.5,0.99 -0.59,1.78 l 5.02,0 0,0.01 z m 5.17,2.41 -10.2,0 c 0.09,0.81 0.31,1.41 0.67,1.81 0.49,0.57 1.13,0.85 1.93,0.85 0.5,0 0.98,-0.12 1.43,-0.37 0.28,-0.16 0.57,-0.43 0.89,-0.82 l 5.01,0.46 c -0.77,1.32 -1.69,2.27 -2.77,2.85 -1.08,0.57 -2.64,0.86 -4.66,0.86 -1.76,0 -3.14,-0.24 -4.15,-0.74 -1,-0.49 -1.84,-1.27 -2.5,-2.35 -0.66,-1.07 -0.99,-2.34 -0.99,-3.78 0,-2.06 0.66,-3.73 1.99,-5.01 1.33,-1.27 3.16,-1.91 5.5,-1.91 1.9,0 3.4,0.29 4.49,0.86 1.1,0.57 1.94,1.4 2.52,2.48 0.57,1.09 0.86,2.5 0.86,4.24 l 0,0.57 -0.02,0 0,0 z m -24.25,-12.85 5.09,0 0,18.18 -5.09,0 0,-18.18 z m -8.86,10.44 c -0.1,-0.98 -0.37,-1.69 -0.8,-2.11 -0.43,-0.42 -0.99,-0.64 -1.7,-0.64 -0.81,0 -1.46,0.32 -1.94,0.96 -0.31,0.4 -0.5,0.99 -0.59,1.78 l 5.03,0 0,0.01 z m 5.16,2.41 -10.2,0 c 0.09,0.81 0.31,1.41 0.67,1.81 0.49,0.57 1.13,0.85 1.93,0.85 0.5,0 0.98,-0.12 1.43,-0.37 0.28,-0.16 0.57,-0.43 0.89,-0.82 l 5.01,0.46 c -0.77,1.32 -1.69,2.27 -2.77,2.85 -1.08,0.57 -2.64,0.86 -4.66,0.86 -1.76,0 -3.14,-0.24 -4.15,-0.74 -1,-0.49 -1.84,-1.27 -2.5,-2.35 -0.66,-1.07 -0.99,-2.34 -0.99,-3.78 0,-2.06 0.67,-3.73 1.99,-5.01 1.33,-1.27 3.16,-1.91 5.5,-1.91 1.9,0 3.4,0.29 4.49,0.86 1.1,0.57 1.94,1.4 2.51,2.48 0.57,1.09 0.86,2.5 0.86,4.24 l 0,0.57 -0.01,0 0,0 z m -27.62,-7.85 4.76,0 0,2.15 c 0.46,-0.94 0.93,-1.58 1.42,-1.93 0.49,-0.35 1.09,-0.52 1.81,-0.52 0.75,0 1.58,0.23 2.47,0.7 l -1.58,3.59 c -0.6,-0.25 -1.08,-0.37 -1.43,-0.37 -0.66,0 -1.18,0.27 -1.55,0.82 -0.52,0.77 -0.79,2.21 -0.79,4.33 l 0,4.43 -5.11,0 0,-13.2 0,0 z m -9.58,0 5.09,0 0,13.18 -5.09,0 0,-13.18 z m 0,-5 5.09,0 0,3.43 -5.09,0 0,-3.43 z m -29.31,0 5.37,0 1.93,10.15 2.83,-10.15 5.33,0 2.85,10.16 1.94,-10.16 5.34,0 -4.03,18.18 -5.55,0 -3.21,-11.45 -3.19,11.45 -5.54,0 -4.07,-18.18 z"
         inkscape:connector-curvature="0"
         style="fill:#000000" />
      <path
         id="path3341"
         d="m 217.41581,847.77102 c -0.63,-0.42 -1.37,-0.53 -2.16,-0.53 -0.81,0 -1.44,0.17 -2,0.53 l 4.16,0 0,0 z m -59.78,8.1 c 0,1.4 0.16,3.73 1.13,4.86 0.62,0.73 1.27,1.02 2.23,1.02 0.7,0 1.11,-0.28 1.55,-0.82 0.87,-1.06 1,-4.14 1,-5.41 0,-1.36 -0.14,-3.92 -1.07,-5.04 -0.48,-0.58 -0.92,-0.92 -1.68,-0.92 -0.9,0 -1.47,0.31 -2.04,0.99 -0.97,1.13 -1.12,3.93 -1.12,5.32 z m -68.869998,-8.2 c 0,2.94 0.31,7.78 2.34,10.15 1.56,1.82 3.57,2.44 5.94,2.44 2.31,0 4.439998,-0.54 5.969998,-2.34 2.01,-2.37 2.26,-8.15 2.26,-11.06 0,-2.87 -0.34,-7.15 -2.35,-9.43 -1.6,-1.82 -3.649998,-2.43 -6.049998,-2.43 -2.33,0 -4.22,0.68 -5.76,2.45 -2.04,2.37 -2.35,7.27 -2.35,10.22 z m -26.85,-0.05 c 0,-9.51 2.45,-18.67 9.37,-25.53 6.91,-6.86 16.07,-9.3 25.64,-9.3 9.549998,0 18.949998,2.29 25.909998,9.14 6.87,6.76 9.3,15.81 9.3,25.22 0,6.44 -0.94,13.2 -4,18.97 -2.73,5.16 -6.72,9.2 -11.84,12.05 -5.67,3.16 -12.21,4.23 -18.639998,4.23 -6.27,0 -12.84,-0.85 -18.54,-3.61 -5.36,-2.59 -9.48,-6.66 -12.5,-11.74 -3.49,-5.88 -4.7,-12.69 -4.7,-19.43 z m 151.819998,16.4 c 0.5,0.2 1.05,0.29 1.68,0.29 0.61,0 1.19,-0.09 1.74,-0.29 l -3.42,0 z m 29.8,-15.04 0,-18.91 23.88,0 0,1.77 c 0.26,-0.15 0.52,-0.3 0.79,-0.43 3.26,-1.7 6.91,-2.33 10.56,-2.33 5.26,0 10.13,1.53 13.8,5.37 3.94,4.12 5.03,9.96 5.03,15.45 l 0,31.49 -25.1,0 0,-27.81 c 0,-0.61 -0.07,-2.43 -0.43,-2.93 -0.23,-0.26 -0.73,-0.27 -1.04,-0.27 -0.69,0 -1.13,0.18 -1.56,0.71 -0.79,0.97 -0.91,4.32 -0.91,5.48 l 0,24.82 -25.02,0 0,-14.22 -0.6,1.04 c -2.6,4.47 -6.07,8.41 -10.7,10.87 -5.05,2.68 -11.53,3.31 -17.17,3.31 -5.1,0 -10.75,-0.58 -15.38,-2.84 -4.19,-2.05 -7.46,-5.26 -9.89,-9.21 -0.96,-1.56 -1.72,-3.18 -2.31,-4.86 -0.94,3.63 -2.56,7.04 -5.18,9.9 -4.29,4.69 -9.79,7.01 -16.17,7.01 -2.87,0 -5.7,-0.46 -8.37,-1.52 l 0,16.82 -25.18,0 0,-67.62 23.96,0 0,1.24 c 3.01,-1.52 6.29,-2.23 9.67,-2.23 6.95,0 12.77,2.7 16.83,8.35 2.03,2.82 3.42,5.9 4.3,9.13 1.24,-3.74 3.32,-7.14 6.37,-10.07 5.67,-5.44 13.12,-7.41 20.85,-7.41 5.54,0 11.62,0.69 16.6,3.28 4.33,2.25 7.69,5.56 9.97,9.86 1.11,2.11 1.88,4.4 2.4,6.76 l 0,0 z m 177.17,-18.09 0,-0.82 6.08,0 0,-6.24 25.02,-12.72 0,18.96 9.07,0 0,20.47 -9.07,0 0,10.99 c 0,0.19 0,0.45 0.01,0.72 1.01,-0.15 2.19,-0.52 2.99,-0.77 l 4.94,-1.57 2.17,20.24 -3.69,0.81 c -4.05,0.89 -8.21,1.44 -12.37,1.44 -3.61,0 -7.9,-0.34 -11.12,-2.08 -2.83,-1.52 -4.91,-3.87 -6.19,-6.8 -1.53,-3.48 -1.75,-8.31 -1.75,-12.07 l 0,-10.91 -6.08,0 0,-4.48 -2.92,6.63 -3.84,-1.6 c -0.71,-0.3 -2.23,-0.89 -3.02,-0.89 -0.75,0 -1.13,0.2 -1.54,0.82 -1.66,2.46 -1.85,8.9 -1.85,11.75 l 0,18.61 -25.1,0 0,-47.73 -10.59,47.74 -24.67,0 -7.24,-25.79 -7.19,25.8 -24.64,0 -15.1,-67.62 26.25,0 3.56,18.72 5.22,-18.72 23.77,0 5.29,18.87 3.61,-18.87 26.15,0 -3.61,16.29 23.17,0 0,0.3 c 1.95,-0.9 4.08,-1.29 6.27,-1.29 2.77,0 5.48,0.71 8.01,1.81 l 0,0 z"
         inkscape:connector-curvature="0"
         style="fill:#000000" />
      <path
         id="path3343"
         d="m 447.57581,817.98102 0,16.29 9.07,0 0,12.07 -9.07,0 0,15.19 c 0,1.82 0.18,3.03 0.53,3.63 0.54,0.91 1.5,1.37 2.86,1.37 1.22,0 2.93,-0.35 5.13,-1.05 l 1.22,11.37 c -4.09,0.9 -7.91,1.34 -11.46,1.34 -4.12,0 -7.16,-0.52 -9.11,-1.57 -1.94,-1.05 -3.38,-2.65 -4.33,-4.78 -0.93,-2.14 -1.4,-5.61 -1.4,-10.39 l 0,-15.11 -6.08,0 0,-12.07 6.08,0 0,-7.87 16.56,-8.42 0,0 0,0 z m -60.9,16.29 15.51,0 0,7 c 1.5,-3.05 3.04,-5.14 4.62,-6.29 1.6,-1.14 3.55,-1.71 5.88,-1.71 2.46,0 5.13,0.76 8.03,2.27 l -5.13,11.67 c -1.95,-0.81 -3.51,-1.21 -4.65,-1.21 -2.16,0 -3.86,0.9 -5.05,2.67 -1.71,2.51 -2.57,7.21 -2.57,14.09 l 0,14.42 -16.65,0 0,-42.91 0.01,0 0,0 z m -88.4,-16.29 17.48,0 6.28,33.04 9.21,-33.04 17.34,0 9.28,33.1 6.33,-33.1 17.4,0 -13.14,59.22 -18.06,0 -10.46,-37.28 -10.39,37.28 -18.03,0 -13.24,-59.22 0,0 z m -50.52,16.29 15.43,0 0,6.99 c 2.3,-2.87 4.62,-4.91 6.98,-6.13 2.36,-1.23 5.22,-1.85 8.6,-1.85 4.58,0 8.15,1.35 10.74,4.07 2.58,2.7 3.87,6.89 3.87,12.56 l 0,27.29 -16.65,0 0,-23.62 c 0,-2.7 -0.5,-4.6 -1.5,-5.72 -1,-1.12 -2.4,-1.68 -4.2,-1.68 -1.98,0 -3.61,0.76 -4.84,2.26 -1.23,1.52 -1.86,4.22 -1.86,8.13 l 0,20.62 -16.56,0 0,-42.92 -0.01,0 0,0 z m -24.39,17.7 c -0.32,-3.2 -1.19,-5.48 -2.59,-6.86 -1.4,-1.38 -3.23,-2.07 -5.52,-2.07 -2.64,0 -4.74,1.05 -6.33,3.13 -1,1.3 -1.64,3.23 -1.91,5.8 l 16.35,0 0,0 z m 16.82,7.86 -33.21,0 c 0.31,2.63 1.01,4.6 2.17,5.9 1.59,1.86 3.69,2.79 6.27,2.79 1.64,0 3.19,-0.4 4.65,-1.2 0.9,-0.51 1.87,-1.41 2.9,-2.69 l 16.31,1.49 c -2.5,4.3 -5.51,7.4 -9.03,9.26 -3.52,1.88 -8.59,2.81 -15.17,2.81 -5.73,0 -10.22,-0.8 -13.51,-2.41 -3.27,-1.6 -5.99,-4.15 -8.16,-7.64 -2.15,-3.5 -3.23,-7.61 -3.23,-12.32 0,-6.71 2.16,-12.16 6.49,-16.3 4.31,-4.15 10.29,-6.23 17.91,-6.23 6.19,0 11.06,0.94 14.64,2.8 3.58,1.86 6.31,4.55 8.19,8.09 1.87,3.53 2.8,8.13 2.8,13.8 l 0,1.85 -0.02,0 0,0 z m -86.77,-3.96 c 0,3.42 0.72,5.94 2.15,7.59 1.43,1.65 3.25,2.48 5.44,2.48 1.92,0 3.52,-0.78 4.83,-2.37 1.29,-1.58 1.94,-4.27 1.94,-8.06 0,-3.5 -0.68,-6.06 -2.02,-7.71 -1.36,-1.64 -3,-2.45 -4.95,-2.45 -2.11,0 -3.86,0.83 -5.27,2.48 -1.42,1.66 -2.12,4.33 -2.12,8.04 l 0,0 z m -16.61,37.61 0,-59.21 15.51,0 0,6.33 c 2.14,-2.67 4.11,-4.48 5.9,-5.42 2.4,-1.27 5.08,-1.9 8,-1.9 5.77,0 10.22,2.19 13.39,6.59 3.15,4.4 4.73,9.84 4.73,16.31 0,7.15 -1.72,12.61 -5.16,16.37 -3.44,3.77 -7.78,5.64 -13.04,5.64 -2.55,0 -4.87,-0.43 -6.96,-1.28 -2.11,-0.87 -3.98,-2.14 -5.63,-3.83 l 0,20.41 -16.74,0 0,-0.01 z m -52.269998,-45.81 c 0,5.97 1.12,10.27 3.36,12.87 2.25,2.6 5.3,3.92 9.16,3.92 3.949998,0 7.029998,-1.28 9.199998,-3.83 2.18,-2.56 3.26,-7.14 3.26,-13.77 0,-5.57 -1.14,-9.63 -3.4,-12.2 -2.27,-2.58 -5.34,-3.86 -9.219998,-3.86 -3.72,0 -6.71,1.31 -8.96,3.92 -2.27,2.6 -3.4,6.92 -3.4,12.95 l 0,0 z m -18.39,-0.04 c 0,-9.66 2.71,-17.19 8.13,-22.56 5.42,-5.39 12.97,-8.08 22.65,-8.08 9.919998,0 17.559998,2.65 22.929998,7.93 5.37,5.29 8.05,12.71 8.05,22.23 0,6.92 -1.16,12.59 -3.51,17.01 -2.34,4.42 -5.74,7.87 -10.17,10.34 -4.44,2.47 -9.96,3.69 -16.579998,3.69 -6.71,0 -12.28,-1.06 -16.69,-3.18 -4.4,-2.14 -7.98,-5.5 -10.71,-10.1 -2.73,-4.6 -4.1,-10.36 -4.1,-17.28 z"
         inkscape:connector-curvature="0"
         style="fill:#ffffff" />
    </g>
    <text
       xml:space="preserve"
       style="font-style:normal;font-weight:normal;font-size:52.42289734px;line-height:106.0000062%;font-family:sans-serif;letter-spacing:0px;word-spacing:0px;fill:#55ff55;fill-opacity:1;stroke:#008000;stroke-width:1.31057239px;stroke-linecap:butt;stroke-linejoin:miter;stroke-opacity:1"
       x="193.20599"
       y="1035.4974"
       id="text5517"
       sodipodi:linespacing="106.00001%"><tspan
         sodipodi:role="line"
         id="tspan5519"
         x="193.20599"
         y="1035.4974"
         style="font-style:normal;font-variant:normal;font-weight:bold;font-stretch:normal;font-size:91.74006653px;line-height:106.0000062%;font-family:monospace;-inkscape-font-specification:'monospace Bold';letter-spacing:0px;fill:#55ff55;stroke:#008000;stroke-width:1.31057239px">HACKED</tspan></text>
  </g>
</svg>
