<?xml version="1.0" encoding="UTF-8" standalone="no"?>
<!-- Created with Inkscape (http://www.inkscape.org/) -->

<svg
   xmlns:dc="http://purl.org/dc/elements/1.1/"
   xmlns:cc="http://creativecommons.org/ns#"
   xmlns:rdf="http://www.w3.org/1999/02/22-rdf-syntax-ns#"
   xmlns:svg="http://www.w3.org/2000/svg"
   xmlns="http://www.w3.org/2000/svg"
   xmlns:sodipodi="http://sodipodi.sourceforge.net/DTD/sodipodi-0.dtd"
   xmlns:inkscape="http://www.inkscape.org/namespaces/inkscape"
   width="720"
   height="360"
   viewBox="0 0 720 360"
   id="svg2"
   version="1.1"
   inkscape:version="0.91 r13725"
   sodipodi:docname="default.svg"
   inkscape:export-filename="/home/erdnaxe/erdnaxe.github.io/images/posts_cover/default.png"
   inkscape:export-xdpi="90"
   inkscape:export-ydpi="90">
  <defs
     id="defs4" />
  <sodipodi:namedview
     id="base"
     pagecolor="#ffffff"
     bordercolor="#666666"
     borderopacity="1.0"
     inkscape:pageopacity="0.0"
     inkscape:pageshadow="2"
     inkscape:zoom="0.98994949"
     inkscape:cx="60.752357"
     inkscape:cy="142.74031"
     inkscape:document-units="px"
     inkscape:current-layer="layer1"
     showgrid="false"
     units="px"
     inkscape:window-width="1920"
     inkscape:window-height="1016"
     inkscape:window-x="0"
     inkscape:window-y="0"
     inkscape:window-maximized="1" />
  <metadata
     id="metadata7">
    <rdf:RDF>
      <cc:Work
         rdf:about="">
        <dc:format>image/svg+xml</dc:format>
        <dc:type
           rdf:resource="http://purl.org/dc/dcmitype/StillImage" />
        <dc:title />
      </cc:Work>
    </rdf:RDF>
  </metadata>
  <g
     inkscape:label="Layer 1"
     inkscape:groupmode="layer"
     id="layer1"
     transform="translate(0,-692.36216)">
    <rect
       style="opacity:1;fill:#4d4d4d;fill-opacity:1;stroke:none;stroke-width:5;stroke-miterlimit:4;stroke-dasharray:none"
       id="rect3355"
       width="720"
       height="360"
       x="0"
       y="692.36218" />
    <path
       style="opacity:1;fill:#ff0000;fill-opacity:1;stroke:none;stroke-width:5;stroke-miterlimit:4;stroke-dasharray:none"
       d="M 360,739.02231 A 133.34015,133.34015 0 0 0 226.66015,872.36215 133.34015,133.34015 0 0 0 360,1005.702 133.34015,133.34015 0 0 0 493.33984,872.36215 133.34015,133.34015 0 0 0 360,739.02231 Z m 0,34.3457 a 98.994965,98.994965 0 0 1 56.14452,17.48047 L 278.55273,928.44223 A 98.994965,98.994965 0 0 1 261.00585,872.36215 98.994965,98.994965 0 0 1 360,773.36801 Z m 86.0996,50.38477 A 98.994965,98.994965 0 0 1 458.99413,872.36215 98.994965,98.994965 0 0 1 360,971.35824 98.994965,98.994965 0 0 1 311.3457,958.50668 l 134.7539,-134.7539 z"
       id="path3357"
       inkscape:connector-curvature="0" />
  </g>
</svg>
