<?xml version="1.0" encoding="UTF-8" standalone="no"?>
<!-- Created with Inkscape (http://www.inkscape.org/) -->

<svg
   xmlns:dc="http://purl.org/dc/elements/1.1/"
   xmlns:cc="http://creativecommons.org/ns#"
   xmlns:rdf="http://www.w3.org/1999/02/22-rdf-syntax-ns#"
   xmlns:svg="http://www.w3.org/2000/svg"
   xmlns="http://www.w3.org/2000/svg"
   xmlns:sodipodi="http://sodipodi.sourceforge.net/DTD/sodipodi-0.dtd"
   xmlns:inkscape="http://www.inkscape.org/namespaces/inkscape"
   width="256"
   height="287"
   viewBox="0 0 256 287"
   id="svg2"
   version="1.1"
   inkscape:version="0.91 r13725"
   sodipodi:docname="devicetree.svg"
   inkscape:export-filename="/home/erdnaxe/erdnaxe.github.io/assets/images/openwrt-add-ramips-target/devicetree.png"
   inkscape:export-xdpi="90"
   inkscape:export-ydpi="90">
  <defs
     id="defs4" />
  <sodipodi:namedview
     id="base"
     pagecolor="#ffffff"
     bordercolor="#666666"
     borderopacity="1.0"
     inkscape:pageopacity="0.0"
     inkscape:pageshadow="2"
     inkscape:zoom="0.7"
     inkscape:cx="-239.38139"
     inkscape:cy="216.75132"
     inkscape:document-units="px"
     inkscape:current-layer="layer1"
     showgrid="false"
     units="px"
     inkscape:window-width="1861"
     inkscape:window-height="1025"
     inkscape:window-x="59"
     inkscape:window-y="27"
     inkscape:window-maximized="1" />
  <metadata
     id="metadata7">
    <rdf:RDF>
      <cc:Work
         rdf:about="">
        <dc:format>image/svg+xml</dc:format>
        <dc:type
           rdf:resource="http://purl.org/dc/dcmitype/StillImage" />
        <dc:title />
      </cc:Work>
    </rdf:RDF>
  </metadata>
  <g
     inkscape:label="Layer 1"
     inkscape:groupmode="layer"
     id="layer1"
     transform="translate(0,-765.36216)">
    <path
       style="color:#000000;font-style:normal;font-variant:normal;font-weight:normal;font-stretch:normal;font-size:medium;line-height:normal;font-family:sans-serif;text-indent:0;text-align:start;text-decoration:none;text-decoration-line:none;text-decoration-style:solid;text-decoration-color:#000000;letter-spacing:normal;word-spacing:normal;text-transform:none;direction:ltr;block-progression:tb;writing-mode:lr-tb;baseline-shift:baseline;text-anchor:start;white-space:normal;clip-rule:nonzero;display:inline;overflow:visible;visibility:visible;opacity:1;isolation:auto;mix-blend-mode:normal;color-interpolation:sRGB;color-interpolation-filters:linearRGB;solid-color:#000000;solid-opacity:1;fill:#000000;fill-opacity:1;fill-rule:evenodd;stroke:none;stroke-width:2;stroke-linecap:round;stroke-linejoin:round;stroke-miterlimit:4;stroke-dasharray:none;stroke-dashoffset:0;stroke-opacity:1;color-rendering:auto;image-rendering:auto;shape-rendering:auto;text-rendering:auto;enable-background:accumulate"
       d="m 65.13288,765.73773 0,17.51071 -34.339127,0 a 2.9825863,2.9825863 0 0 0 -2.981507,2.98153 l 0,34.34485 -18.5370638,0 0,8.80696 18.5370638,0 0,29.98723 -18.5370638,0 0,8.80696 18.5370638,0 0,30.77269 -18.5370638,0 0,8.80696 18.5370638,0 0,30.24545 -18.5370638,0 0,8.80695 18.5370638,0 0,34.33893 a 2.9825863,2.9825863 0 0 0 2.981507,2.98732 l 34.339127,0 0,18.56003 8.80696,0 0,-18.56003 29.98723,0 0,18.56003 8.80696,0 0,-18.56003 30.77274,0 0,18.56003 8.80696,0 0,-18.56003 30.24527,0 0,18.56003 8.80696,0 0,-18.56003 34.86661,0 a 2.9825863,2.9825863 0 0 0 2.98151,-2.98732 l 0,-34.33893 17.51073,0 0,-8.80695 -17.51073,0 0,-30.24545 17.51073,0 0,-8.80696 -17.51073,0 0,-30.77269 17.51073,0 0,-8.80696 -17.51073,0 0,-29.98723 17.51073,0 0,-8.80696 -17.51073,0 0,-34.34485 a 2.9825863,2.9825863 0 0 0 -2.98151,-2.98153 l -34.86661,0 0,-17.51071 -8.80696,0 0,17.51071 -30.24527,0 0,-17.51071 -8.80696,0 0,17.51071 -30.77274,0 0,-17.51071 -8.80696,0 0,17.51071 -29.98723,0 0,-17.51071 -8.80696,0 z m -31.357589,23.47375 189.475739,0 0,188.95402 -189.475739,0 0,-188.95402 z m 93.906489,56.90121 a 2.9359467,2.9359467 0 0 0 -2.88979,2.98153 l 0,35.58907 -28.106593,-16.12316 a 2.9359467,2.9359467 0 0 0 -1.39329,-0.40709 2.9359467,2.9359467 0 0 0 -1.52516,5.50435 l 31.025043,17.7974 0,68.46034 -14.99934,0 0,-30.40573 a 2.9359467,2.9359467 0 0 0 -1.46783,-2.5458 L 82.540364,912.07896 a 2.9359467,2.9359467 0 0 0 -1.685711,-0.41305 2.9359467,2.9359467 0 0 0 -1.249942,5.49877 l 24.316629,14.03595 0,28.7145 -34.906763,0 a 2.9359467,2.9359467 0 1 0 0,5.8713 l 37.355043,0 a 2.9359467,2.9359467 0 0 0 0.9518,0 l 19.91887,0 a 2.9359467,2.9359467 0 0 0 0.95177,0 l 57.19938,0 a 2.9359467,2.9359467 0 1 0 0,-5.8713 l -33.76001,0 0,-68.12207 28.78317,-14.38584 a 2.9359467,2.9359467 0 0 0 -1.30155,-5.58461 2.9359467,2.9359467 0 0 0 -1.32448,0.33255 l -30.40582,15.20002 a 2.9359467,2.9359467 0 0 0 -1.62263,2.62603 l 0,69.93392 -15.09683,0 0,-110.82091 a 2.9359467,2.9359467 0 0 0 -2.98151,-2.98153 z"
       id="path4191"
       inkscape:connector-curvature="0" />
    <circle
       style="opacity:1;fill:#f68400;fill-opacity:1;stroke:none;stroke-width:3.078125;stroke-linecap:round;stroke-linejoin:round;stroke-miterlimit:4;stroke-dasharray:none;stroke-opacity:1"
       id="circle4187"
       cx="190.10947"
       cy="869.01233"
       r="20.955132" />
    <circle
       r="20.955132"
       cy="835.28027"
       cx="128.57619"
       id="circle4243"
       style="opacity:1;fill:#00b1df;fill-opacity:1;stroke:none;stroke-width:3.078125;stroke-linecap:round;stroke-linejoin:round;stroke-miterlimit:4;stroke-dasharray:none;stroke-opacity:1" />
    <circle
       style="opacity:1;fill:#8c61ab;fill-opacity:1;stroke:none;stroke-width:3.078125;stroke-linecap:round;stroke-linejoin:round;stroke-miterlimit:4;stroke-dasharray:none;stroke-opacity:1"
       id="circle4245"
       cx="81.12886"
       cy="860.11597"
       r="20.955132" />
    <circle
       r="20.955132"
       cy="906.45123"
       cx="67.042953"
       id="circle4247"
       style="opacity:1;fill:#00973d;fill-opacity:1;stroke:none;stroke-width:3.078125;stroke-linecap:round;stroke-linejoin:round;stroke-miterlimit:4;stroke-dasharray:none;stroke-opacity:1" />
    <text
       xml:space="preserve"
       style="font-style:normal;font-weight:normal;font-size:48.4553833px;line-height:0%;font-family:sans-serif;letter-spacing:0px;word-spacing:0px;fill:#000000;fill-opacity:1;stroke:none;stroke-width:1px;stroke-linecap:butt;stroke-linejoin:miter;stroke-opacity:1"
       x="-2.1767066"
       y="1051.6761"
       id="text4250"
       sodipodi:linespacing="0%"><tspan
         sodipodi:role="line"
         id="tspan4252"
         x="-2.1767066"
         y="1051.6761"
         style="font-style:normal;font-variant:normal;font-weight:bold;font-stretch:normal;line-height:0%;font-family:sans-serif;-inkscape-font-specification:'sans-serif Bold';letter-spacing:-3.30708003px">devicetree</tspan></text>
  </g>
</svg>
