<?xml version="1.0" encoding="UTF-8"?>
<svg version="1.1" viewBox="0 0 550 53.56" xml:space="preserve" xmlns="http://www.w3.org/2000/svg"><g transform="matrix(1.333 0 0 1.333 0 1.672e-6)" fill="#e6e6e6"><g><path d="m40.49 13.29v-0.32c-0.336 0-0.742-0.239-1.191-0.672l-1.762-1.75c-0.504-0.492-0.66-0.672-0.898-0.953l1.808-1.414c0.657-0.504 1.035-0.657 1.512-0.657v-0.421h-1.402c-0.895 0.898-1.555 1.511-2.098 1.945l-1.023 0.828v-6.398l-0.125-0.114c-0.618 0.239-1.079 0.352-2.184 0.52v0.39h0.781c0.254 0 0.352 0.157 0.352 0.575v7.254c0 0.882-0.043 0.98-0.52 1.007l-0.64 0.043v0.418c0.586-0.027 1.175-0.043 1.761-0.043 0.575 0 1.133 0.016 1.707 0.043v-0.418l-0.613-0.043c-0.476-0.027-0.519-0.125-0.519-1.007v-1.934l3.711 3.527z"/><path d="m46.72 9.621c0-1.609-1.035-2.66-2.606-2.66-0.515 0-1.121 0.184-1.695 0.519-1.145 0.657-1.609 1.528-1.609 2.981 0 0.883 0.199 1.641 0.589 2.172 0.547 0.742 1.497 1.176 2.547 1.176 0.52 0 1.035-0.114 1.61-0.364 0.379-0.156 0.672-0.336 0.73-0.422l0.277-0.476-0.179-0.137c-0.899 0.531-1.219 0.656-1.821 0.656-0.91 0-1.667-0.406-2.058-1.089-0.266-0.465-0.363-0.856-0.391-1.668h2.043c0.965 0 1.567-0.043 2.535-0.196 0.012-0.195 0.028-0.324 0.028-0.492zm-1.246 0.168-1.571 0.043c-0.64 0-1.007-0.012-1.761-0.082 0-0.66 0.054-0.969 0.238-1.332 0.293-0.617 0.894-0.992 1.566-0.992 0.461 0 0.828 0.179 1.078 0.558 0.309 0.461 0.45 0.868 0.45 1.805z"/><path d="m54.56 7.496v-0.394c-0.45 0.027-0.883 0.043-1.332 0.043-0.446 0-0.879-0.016-1.329-0.043v0.394l0.364 0.027c0.59 0.043 0.715 0.211 0.504 0.715l-1.664 4.086c-0.309-0.531-0.45-0.855-0.715-1.539l-0.899-2.351c-0.238-0.618-0.207-0.883 0.336-0.911l0.535-0.027v-0.394c-0.547 0.027-1.078 0.043-1.625 0.043-0.546 0-1.078-0.016-1.625-0.043v0.394l0.254 0.027c0.348 0.043 0.532 0.196 0.727 0.684l2.308 5.656-0.32 0.856c-0.449 1.176-0.996 1.832-1.527 1.832-0.223 0-0.477-0.11-0.715-0.321h-0.18l-0.336 1.051c0.266 0.141 0.489 0.211 0.754 0.211 0.942 0 1.543-0.504 2.074-1.722l2.84-6.555c0.563-1.274 0.828-1.664 1.176-1.692z"/><path d="m7.645 29.07c0-1.554-1.29-2.773-2.915-2.773-0.515 0-1.019 0.14-1.246 0.351l-1.144 1.051v-1.344l-0.129-0.058c-0.715 0.297-1.441 0.492-2.184 0.574v0.395h0.52c0.558 0 0.613 0.097 0.613 1.019v7.043c0 0.883-0.039 0.98-0.515 1.008l-0.645 0.043v0.418c0.59-0.028 1.16-0.039 1.75-0.039s1.16 0.011 1.75 0.039v-0.418l-0.645-0.043c-0.476-0.028-0.515-0.125-0.515-1.008v-2.644c0.418 0.25 0.867 0.347 1.496 0.347 0.406 0 0.769-0.082 0.992-0.223l1.598-1.035c0.558-0.363 1.219-1.808 1.219-2.703zm-1.219 0.52c0 1.566-0.938 2.73-2.199 2.73-0.77 0-1.344-0.254-1.887-0.828v-2.91c0-0.199 0.066-0.352 0.25-0.59 0.406-0.519 0.98-0.785 1.68-0.785 1.316 0 2.156 0.926 2.156 2.383z"/><path d="m12.1 32.91v-0.418l-0.645-0.043c-0.476-0.027-0.519-0.125-0.519-1.008v-8.625l-0.125-0.113c-0.618 0.238-1.079 0.352-2.184 0.52v0.39h0.781c0.254 0 0.352 0.157 0.352 0.575v7.253c0 0.883-0.043 0.981-0.52 1.008l-0.64 0.043v0.418c0.586-0.027 1.16-0.043 1.75-0.043 0.586 0 1.16 0.016 1.75 0.043z"/><path d="m18.97 32.91v-0.418l-0.543-0.031c-0.336-0.012-0.395-0.125-0.395-0.809v-2.562c0-2.047-0.586-2.789-2.211-2.789-0.601 0-1.164 0.156-1.695 0.476l-0.742 0.45v0.91l0.363 0.097 0.184-0.433c0.281-0.66 0.433-0.758 1.078-0.758 1.316 0 1.863 0.519 1.902 1.793l-1.383 0.254c-1.906 0.348-2.703 1.008-2.703 2.222 0 1.094 0.656 1.723 1.766 1.723 0.25 0 0.488-0.039 0.586-0.109l1.734-1.207-0.066 1.191c0.363-0.027 0.726-0.043 1.09-0.043 0.351 0 0.687 0.016 1.035 0.043zm-2.059-1.777c-0.402 0.574-1.285 1.105-1.832 1.105-0.558 0-1.051-0.519-1.051-1.121 0-0.515 0.282-1.008 0.7-1.273 0.351-0.211 1.121-0.406 2.183-0.559z"/><path d="m23.17 32.91v-0.418l-0.645-0.043c-0.476-0.027-0.519-0.125-0.519-1.008v-5.082l-0.125-0.058c-0.715 0.297-1.442 0.492-2.184 0.574v0.395h0.516c0.562 0 0.617 0.097 0.617 1.019v3.152c0 0.883-0.043 0.981-0.52 1.008l-0.64 0.043v0.418c0.586-0.027 1.16-0.043 1.75-0.043 0.586 0 1.16 0.016 1.75 0.043zm-1.051-8.328c0-0.406-0.281-0.703-0.687-0.703-0.434 0-0.715 0.281-0.715 0.703 0 0.418 0.281 0.699 0.703 0.699 0.418 0 0.699-0.281 0.699-0.699z"/><path d="m31.46 32.91v-0.418l-0.574-0.043c-0.477-0.027-0.516-0.113-0.516-1.008v-2.703c0-1.636-0.769-2.437-2.34-2.437-0.515 0-0.812 0.101-1.105 0.351l-1.063 0.926v-1.219l-0.129-0.058c-0.71 0.297-1.441 0.492-2.183 0.574v0.395h0.519c0.559 0 0.618 0.097 0.618 1.019v3.152c0 0.883-0.043 0.981-0.52 1.008l-0.629 0.043v0.418c0.574-0.027 1.16-0.043 1.735-0.043 0.574 0 1.164 0.016 1.738 0.043v-0.418l-0.633-0.043c-0.477-0.027-0.516-0.125-0.516-1.008v-2.968c0-0.629 0.922-1.317 1.778-1.317 0.937 0 1.554 0.699 1.554 1.778v3.976c0.364-0.027 0.743-0.043 1.106-0.043 0.391 0 0.769 0.016 1.16 0.043z"/><path d="m36.06 26.77-1.917 0.082v-0.532c0-0.589 0.043-1.093 0.156-1.988l-0.168-0.152c-0.336 0.207-0.758 0.39-1.192 0.531 0.043 0.418 0.055 0.684 0.055 1.105v0.981l-1.09 0.488v0.297l1.063-0.058v4.031c0 1.039 0.465 1.484 1.543 1.484 0.32 0 0.656-0.07 0.738-0.168l0.676-0.742-0.184-0.238c-0.351 0.199-0.558 0.269-0.828 0.269-0.543 0-0.769-0.281-0.769-0.968v-3.668h1.793z"/><path d="m42.43 28.96c0-1.609-1.036-2.66-2.606-2.66-0.516 0-1.117 0.183-1.691 0.519-1.149 0.657-1.61 1.528-1.61 2.981 0 0.883 0.196 1.64 0.586 2.172 0.547 0.742 1.5 1.175 2.547 1.175 0.52 0 1.039-0.113 1.613-0.363 0.375-0.156 0.672-0.336 0.727-0.422l0.281-0.476-0.183-0.137c-0.895 0.531-1.219 0.656-1.821 0.656-0.91 0-1.664-0.406-2.058-1.09-0.266-0.464-0.364-0.855-0.391-1.668h2.043c0.969 0 1.57-0.043 2.535-0.195 0.012-0.195 0.028-0.324 0.028-0.492zm-1.246 0.168-1.567 0.043c-0.644 0-1.008-0.012-1.766-0.082 0-0.66 0.055-0.969 0.239-1.332 0.293-0.617 0.894-0.992 1.566-0.992 0.465 0 0.828 0.179 1.078 0.558 0.309 0.461 0.45 0.867 0.45 1.805z"/><path d="m49.81 32.91v-0.418l-0.351-0.043c-0.168-0.015-0.336-0.125-0.488-0.336l-2.075-2.801 1.989-2.324c0.086-0.097 0.238-0.152 0.476-0.152h0.196v-0.395h-1.149l-1.734 2.45-1.063-1.621c-0.211-0.309-0.367-0.493-0.84-0.969l-1.625 0.281 0.071 0.363 0.293 0.028c0.254 0.031 0.558 0.211 0.699 0.406l1.68 2.437-2.086 2.465c-0.098 0.125-0.278 0.211-0.418 0.211h-0.239v0.375h1.204s0.097-0.32 0.839-1.316l1.036-1.371 1.863 2.73c0.281-0.027 0.574-0.043 0.855-0.043 0.293 0 0.575 0.016 0.867 0.043z"/><path d="m54.56 26.77-1.918 0.082v-0.532c0-0.589 0.043-1.093 0.152-1.988l-0.168-0.152c-0.336 0.207-0.754 0.39-1.187 0.531 0.039 0.418 0.054 0.684 0.054 1.105v0.981l-1.094 0.488v0.297l1.067-0.058v4.031c0 1.039 0.461 1.484 1.539 1.484 0.32 0 0.656-0.07 0.742-0.168l0.672-0.742-0.184-0.238c-0.347 0.199-0.558 0.269-0.824 0.269-0.547 0-0.769-0.281-0.769-0.968v-3.668h1.793z"/><path d="m109.1 24.95v-0.422l-0.422-0.039c-0.265-0.031-0.461-0.254-0.922-0.98l-2.464-3.922 2.156-2.91c0.558-0.758 0.742-0.938 0.953-0.953l0.574-0.043v-0.418h-1.414l-2.59 3.777-1.793-3.023c-0.324-0.532-0.531-0.77-0.8-0.911l-1.973 0.379 0.027 0.364 0.633 0.043c0.336 0.027 0.824 0.488 1.285 1.261l1.793 2.981-2.73 3.683c-0.348 0.473-0.516 0.629-0.825 0.672l-0.363 0.039v0.422c0.235-0.027 0.488-0.043 0.727-0.043 0.238 0 0.476 0.016 0.715 0.043l2.828-4.285 2.574 4.285c0.352-0.027 0.687-0.043 1.035-0.043 0.336 0 0.66 0.016 0.996 0.043z"/><path d="m119.3 19.77c0-2.942-1.961-4.79-5.067-4.79-3.195 0-5.32 2.071-5.32 5.153 0 2.941 2.043 5.055 4.871 5.055 3.137 0 5.516-2.34 5.516-5.418zm-1.5 0.418c0 2.773-1.286 4.41-3.457 4.41-2.352 0-3.934-1.989-3.934-4.985 0-2.59 1.289-4.043 3.586-4.043 2.391 0 3.805 1.707 3.805 4.618z"/><path d="m129 24.95v-0.422c-0.445-0.039-0.671-0.125-0.851-0.363l-3.18-4.144c0.785-0.196 1.149-0.348 1.61-0.672 0.73-0.516 1.121-1.219 1.121-2.028 0-1.347-0.91-2.101-2.731-2.101-0.84 0-1.664 0.043-2.504 0.043-0.812 0-1.609-0.016-2.422-0.043v0.418l0.575 0.043c0.644 0.043 0.711 0.168 0.711 1.261v6.286c0 1.105-0.067 1.218-0.711 1.261l-0.672 0.039v0.422c0.683-0.027 1.355-0.043 2.043-0.043 0.687 0 1.371 0.016 2.058 0.043v-0.422l-0.672-0.039c-0.644-0.043-0.714-0.156-0.714-1.261v-7.309c0.476-0.113 0.894-0.168 1.371-0.168 1.457 0 2.269 0.672 2.269 1.863 0 1.289-1.023 2.098-2.648 2.098h-0.406v0.227c0.308 0.335 0.421 0.488 0.644 0.796l2.578 3.457 0.574 0.758c0.321-0.027 0.629-0.043 0.95-0.043 0.336 0 0.672 0.016 1.007 0.043z"/><path d="m194.4 25.07v-0.418l-0.656-0.043c-0.477-0.027-0.52-0.125-0.52-1.007v-2.883c0-1.387-0.812-2.254-2.101-2.254-0.489 0-0.895 0.125-1.145 0.348l-1.066 0.953c-0.446-0.926-1.02-1.301-1.989-1.301-0.515 0-0.91 0.125-1.16 0.348l-0.965 0.898v-1.191l-0.128-0.055c-0.715 0.293-1.442 0.488-2.184 0.574v0.391h0.519c0.559 0 0.614 0.097 0.614 1.023v3.149c0 0.882-0.039 0.98-0.516 1.007l-0.644 0.043v0.418c0.589-0.027 1.191-0.039 1.777-0.039 0.562 0 1.105 0.012 1.668 0.039v-0.418l-0.59-0.043c-0.477-0.027-0.516-0.125-0.516-1.007v-2.969c0-0.629 0.922-1.317 1.762-1.317 0.758 0 1.274 0.715 1.274 1.778v2.508c0 0.882-0.043 0.98-0.516 1.007l-0.645 0.043v0.418c0.586-0.027 1.161-0.039 1.75-0.039 0.586 0 1.161 0.012 1.75 0.039v-0.418l-0.644-0.043c-0.477-0.027-0.52-0.125-0.52-1.007v-2.969c0-0.629 0.926-1.317 1.766-1.317 0.754 0 1.273 0.715 1.273 1.778v3.976c0.364-0.027 0.743-0.039 1.106-0.039 0.422 0 0.828 0.012 1.246 0.039z"/><path d="m201.2 25.07v-0.418l-0.543-0.027c-0.336-0.016-0.394-0.129-0.394-0.812v-2.563c0-2.043-0.586-2.785-2.211-2.785-0.602 0-1.161 0.152-1.696 0.473l-0.742 0.449v0.91l0.367 0.098 0.18-0.434c0.281-0.656 0.434-0.754 1.078-0.754 1.316 0 1.863 0.516 1.906 1.789l-1.386 0.254c-1.907 0.348-2.704 1.008-2.704 2.227 0 1.089 0.657 1.722 1.766 1.722 0.25 0 0.488-0.043 0.586-0.113l1.738-1.203-0.07 1.187c0.363-0.027 0.727-0.039 1.09-0.039 0.351 0 0.687 0.012 1.035 0.039zm-2.055-1.777c-0.406 0.574-1.289 1.106-1.836 1.106-0.558 0-1.05-0.516-1.05-1.118 0-0.519 0.281-1.011 0.699-1.277 0.351-0.207 1.121-0.406 2.187-0.559z"/><path d="m207.1 22.95c0-0.433-0.113-0.754-0.395-1.035-0.363-0.363-0.824-0.52-2.058-0.758-1.145-0.222-1.524-0.504-1.524-1.148 0-0.7 0.489-1.09 1.344-1.09 0.938 0 1.652 0.488 1.652 1.148v0.321h0.391c0.016-0.813 0.027-1.149 0.07-1.582-0.742-0.25-1.246-0.348-1.82-0.348-1.625 0-2.617 0.769-2.617 2.027 0 0.672 0.308 1.149 0.953 1.442 0.375 0.168 1.117 0.394 2.07 0.605 0.629 0.137 0.895 0.434 0.895 0.965 0 0.754-0.699 1.289-1.692 1.289-1.023 0-1.75-0.492-1.75-1.191v-0.575h-0.421c0 0.965-0.043 1.387-0.153 1.946 0.727 0.238 1.274 0.336 1.918 0.336 1.832 0 3.137-0.981 3.137-2.352z"/><path d="m215.2 24.79v-0.324c-0.336 0-0.742-0.238-1.191-0.672l-1.766-1.75c-0.504-0.488-0.656-0.672-0.894-0.953l1.804-1.414c0.661-0.504 1.036-0.656 1.512-0.656v-0.422h-1.398c-0.895 0.898-1.555 1.515-2.102 1.949l-1.019 0.824v-6.398l-0.129-0.11c-0.614 0.235-1.078 0.348-2.184 0.516v0.394h0.785c0.254 0 0.352 0.153 0.352 0.571v7.254c0 0.882-0.043 0.98-0.52 1.007l-0.644 0.043v0.418c0.59-0.027 1.176-0.039 1.765-0.039 0.575 0 1.133 0.012 1.707 0.039v-0.418l-0.617-0.043c-0.476-0.027-0.515-0.125-0.515-1.007v-1.934l3.707 3.531z"/><path d="m272.4 16.08v-0.422l-0.66-0.039c-0.477-0.031-0.516-0.129-0.516-1.012v-2.882c0-1.387-0.812-2.254-2.101-2.254-0.489 0-0.895 0.125-1.149 0.351l-1.062 0.949c-0.45-0.921-1.024-1.3-1.989-1.3-0.519 0-0.91 0.125-1.164 0.351l-0.965 0.895v-1.192l-0.124-0.054c-0.715 0.293-1.442 0.492-2.184 0.574v0.391h0.516c0.562 0 0.617 0.101 0.617 1.023v3.148c0 0.883-0.043 0.981-0.516 1.012l-0.644 0.039v0.422c0.585-0.027 1.187-0.043 1.777-0.043 0.558 0 1.105 0.016 1.664 0.043v-0.422l-0.586-0.039c-0.477-0.031-0.52-0.129-0.52-1.012v-2.964c0-0.633 0.926-1.317 1.766-1.317 0.754 0 1.274 0.715 1.274 1.777v2.504c0 0.883-0.043 0.981-0.52 1.012l-0.644 0.039v0.422c0.589-0.027 1.164-0.043 1.75-0.043 0.589 0 1.164 0.016 1.75 0.043v-0.422l-0.641-0.039c-0.477-0.031-0.52-0.129-0.52-1.012v-2.964c0-0.633 0.926-1.317 1.766-1.317 0.754 0 1.273 0.715 1.273 1.777v3.977c0.364-0.027 0.743-0.043 1.106-0.043 0.418 0 0.824 0.016 1.246 0.043z"/><path d="m279.2 16.08v-0.422l-0.547-0.027c-0.336-0.012-0.39-0.125-0.39-0.813v-2.562c0-2.043-0.59-2.785-2.211-2.785-0.602 0-1.164 0.156-1.696 0.476l-0.742 0.449v0.911l0.363 0.097 0.184-0.433c0.277-0.661 0.434-0.758 1.078-0.758 1.316 0 1.859 0.519 1.902 1.793l-1.386 0.25c-1.903 0.351-2.7 1.008-2.7 2.226 0 1.094 0.657 1.723 1.762 1.723 0.254 0 0.492-0.043 0.59-0.113l1.734-1.203-0.07 1.191c0.363-0.027 0.731-0.043 1.094-0.043 0.348 0 0.683 0.016 1.035 0.043zm-2.059-1.777c-0.406 0.574-1.289 1.105-1.832 1.105-0.562 0-1.05-0.519-1.05-1.121 0-0.519 0.281-1.008 0.699-1.273 0.351-0.211 1.121-0.407 2.183-0.559z"/><path d="m285.1 13.97c0-0.438-0.109-0.758-0.391-1.039-0.363-0.364-0.828-0.516-2.058-0.754-1.149-0.223-1.528-0.504-1.528-1.149 0-0.699 0.493-1.093 1.348-1.093 0.938 0 1.648 0.492 1.648 1.148v0.324h0.395c0.012-0.812 0.027-1.148 0.07-1.582-0.742-0.254-1.246-0.351-1.82-0.351-1.625 0-2.617 0.769-2.617 2.031 0 0.672 0.305 1.148 0.949 1.441 0.379 0.168 1.121 0.391 2.074 0.602 0.629 0.141 0.895 0.433 0.895 0.965 0 0.758-0.699 1.289-1.696 1.289-1.019 0-1.75-0.489-1.75-1.192v-0.57h-0.417c0 0.965-0.043 1.383-0.157 1.945 0.731 0.239 1.278 0.336 1.922 0.336 1.832 0 3.133-0.98 3.133-2.351z"/><path d="m293.2 15.8v-0.321c-0.336 0-0.742-0.238-1.187-0.671l-1.766-1.75c-0.504-0.493-0.656-0.672-0.894-0.954l1.804-1.414c0.657-0.503 1.036-0.66 1.512-0.66v-0.418h-1.398c-0.899 0.895-1.555 1.512-2.102 1.946l-1.023 0.828v-6.399l-0.125-0.113c-0.617 0.238-1.078 0.352-2.184 0.52v0.39h0.785c0.25 0 0.348 0.153 0.348 0.574v7.25c0 0.883-0.039 0.981-0.516 1.012l-0.644 0.039v0.422c0.586-0.027 1.176-0.043 1.761-0.043 0.575 0 1.137 0.016 1.711 0.043v-0.422l-0.617-0.039c-0.476-0.031-0.519-0.129-0.519-1.012v-1.929l3.711 3.527z"/><path d="m299.5 12.13c0-1.61-1.035-2.66-2.606-2.66-0.515 0-1.117 0.183-1.691 0.519-1.148 0.656-1.609 1.524-1.609 2.981 0 0.882 0.195 1.636 0.586 2.172 0.546 0.742 1.5 1.175 2.546 1.175 0.52 0 1.039-0.113 1.614-0.363 0.375-0.156 0.672-0.336 0.726-0.422l0.281-0.476-0.183-0.141c-0.895 0.535-1.219 0.66-1.82 0.66-0.911 0-1.664-0.406-2.059-1.094-0.266-0.461-0.363-0.851-0.391-1.664h2.043c0.969 0 1.571-0.043 2.536-0.195 0.015-0.199 0.027-0.324 0.027-0.492zm-1.246 0.168-1.567 0.043c-0.644 0-1.007-0.016-1.765-0.086 0-0.656 0.054-0.965 0.238-1.328 0.293-0.618 0.895-0.996 1.566-0.996 0.465 0 0.829 0.183 1.079 0.562 0.308 0.461 0.449 0.867 0.449 1.805z"/><path d="m308 16.08v-0.422l-0.645-0.039c-0.472-0.031-0.515-0.129-0.515-1.012v-8.621l-0.125-0.113c-0.617 0.238-1.078 0.352-2.184 0.52v0.39h0.781c0.254 0 0.352 0.153 0.352 0.574v2.563c-0.785-0.336-1.176-0.449-1.668-0.449-0.375 0-0.711 0.086-1.062 0.265l-1.231 0.645c-0.801 0.422-1.316 1.441-1.316 2.633 0 1.121 0.375 2.043 1.062 2.605 0.477 0.402 1.133 0.586 2.043 0.586 0.281 0 0.602-0.055 0.672-0.113l1.555-1.301-0.071 1.289c0.364-0.027 0.715-0.043 1.078-0.043 0.422 0 0.856 0.016 1.274 0.043zm-2.336-3.137c0 0.91-0.027 1.051-0.211 1.371-0.391 0.661-1.078 1.094-1.734 1.094-1.235 0-2.118-1.191-2.118-2.855 0-1.528 0.758-2.422 2.016-2.422 0.535 0 1.094 0.179 1.582 0.515 0.297 0.196 0.465 0.379 0.465 0.493z"/><path d="m308.5 17.09h7v0.699h-7z"/><path d="m263.1 34.06v-0.422l-0.645-0.039c-0.476-0.032-0.515-0.129-0.515-1.012v-5.082l-0.129-0.055c-0.711 0.293-1.442 0.493-2.184 0.575v0.39h0.52c0.558 0 0.617 0.102 0.617 1.024v3.148c0 0.883-0.043 0.98-0.52 1.012l-0.644 0.039v0.422c0.59-0.028 1.164-0.043 1.75-0.043 0.59 0 1.164 0.015 1.75 0.043zm-1.051-8.332c0-0.407-0.277-0.7-0.683-0.7-0.434 0-0.715 0.282-0.715 0.7 0 0.422 0.281 0.703 0.699 0.703 0.422 0 0.699-0.281 0.699-0.703z"/><path d="m271.4 34.06v-0.422l-0.574-0.039c-0.477-0.032-0.52-0.114-0.52-1.012v-2.699c0-1.641-0.769-2.438-2.336-2.438-0.519 0-0.812 0.098-1.105 0.352l-1.067 0.922v-1.219l-0.125-0.055c-0.714 0.293-1.441 0.493-2.183 0.575v0.39h0.515c0.563 0 0.618 0.102 0.618 1.024v3.148c0 0.883-0.043 0.98-0.516 1.012l-0.633 0.039v0.422c0.574-0.028 1.164-0.043 1.739-0.043 0.574 0 1.16 0.015 1.734 0.043v-0.422l-0.629-0.039c-0.477-0.032-0.52-0.129-0.52-1.012v-2.965c0-0.633 0.926-1.316 1.778-1.316 0.941 0 1.554 0.699 1.554 1.777v3.977c0.364-0.028 0.743-0.043 1.106-0.043 0.394 0 0.769 0.015 1.164 0.043z"/><path d="m278.6 27.98v-0.391c-0.433 0.027-0.882 0.043-1.316 0.043s-0.883-0.016-1.316-0.043v0.391l0.574 0.031c0.449 0.027 0.449 0.433 0.07 1.383l-0.586 1.484-0.871 1.961-1.664-4.031c-0.156-0.395-0.227-0.785 0.223-0.797l0.687-0.031v-0.391c-0.547 0.027-1.094 0.043-1.641 0.043-0.542 0-1.078-0.016-1.621-0.043v0.391l0.477 0.031c0.25 0.012 0.293 0.137 0.434 0.461l2.406 5.64h0.699c0.086-0.461 0.297-0.894 0.574-1.527l1.653-3.637c0.324-0.715 0.503-0.925 0.785-0.937z"/><path d="m284.6 30.1c0-1.609-1.036-2.66-2.602-2.66-0.52 0-1.121 0.184-1.695 0.52-1.149 0.656-1.61 1.523-1.61 2.98 0 0.883 0.196 1.637 0.586 2.172 0.547 0.742 1.5 1.176 2.551 1.176 0.516 0 1.035-0.113 1.609-0.363 0.379-0.157 0.672-0.336 0.727-0.422l0.281-0.477-0.183-0.14c-0.895 0.535-1.215 0.66-1.821 0.66-0.906 0-1.664-0.406-2.054-1.094-0.266-0.461-0.368-0.852-0.395-1.664h2.047c0.965 0 1.566-0.043 2.531-0.195 0.016-0.2 0.031-0.325 0.031-0.493zm-1.247 0.168-1.566 0.043c-0.644 0-1.008-0.015-1.766-0.086 0-0.656 0.059-0.964 0.239-1.328 0.297-0.617 0.898-0.996 1.57-0.996 0.461 0 0.824 0.184 1.078 0.563 0.309 0.461 0.445 0.867 0.445 1.804z"/><path d="m290.3 27.6c-0.152-0.102-0.406-0.157-0.66-0.157-0.418 0-0.867 0.223-1.16 0.575l-0.785 0.925v-1.445l-0.125-0.055c-0.715 0.293-1.441 0.493-2.184 0.575v0.39h0.52c0.558 0 0.613 0.102 0.613 1.024v3.148c0 0.883-0.039 0.98-0.515 1.012l-0.645 0.039v0.422c0.574-0.028 1.148-0.043 1.723-0.043 0.672 0 1.328 0.015 2 0.043v-0.422l-0.727-0.039c-0.633-0.043-0.66-0.086-0.66-1.012v-2.406c0-0.84 0.562-1.539 1.246-1.539 0.422 0 0.715 0.195 0.938 0.644h0.296z"/><path d="m296.1 31.94c0-0.433-0.113-0.757-0.395-1.039-0.363-0.363-0.824-0.515-2.058-0.754-1.149-0.222-1.524-0.503-1.524-1.148 0-0.699 0.489-1.094 1.344-1.094 0.938 0 1.652 0.492 1.652 1.149v0.324h0.391c0.016-0.813 0.027-1.149 0.07-1.582-0.742-0.254-1.246-0.352-1.82-0.352-1.625 0-2.617 0.77-2.617 2.032 0 0.671 0.309 1.148 0.953 1.441 0.375 0.168 1.117 0.391 2.07 0.602 0.629 0.14 0.895 0.433 0.895 0.964 0 0.758-0.699 1.289-1.692 1.289-1.023 0-1.75-0.488-1.75-1.191v-0.57h-0.421c0 0.965-0.043 1.383-0.153 1.945 0.727 0.238 1.274 0.336 1.918 0.336 1.832 0 3.137-0.981 3.137-2.352z"/><path d="m300.3 34.06v-0.422l-0.645-0.039c-0.476-0.032-0.515-0.129-0.515-1.012v-5.082l-0.129-0.055c-0.711 0.293-1.442 0.493-2.184 0.575v0.39h0.52c0.558 0 0.613 0.102 0.613 1.024v3.148c0 0.883-0.039 0.98-0.516 1.012l-0.644 0.039v0.422c0.59-0.028 1.16-0.043 1.75-0.043s1.16 0.015 1.75 0.043zm-1.051-8.332c0-0.407-0.277-0.7-0.684-0.7-0.433 0-0.714 0.282-0.714 0.7 0 0.422 0.281 0.703 0.699 0.703 0.422 0 0.699-0.281 0.699-0.703z"/><path d="m307.8 30.7c0-1.89-1.371-3.25-3.289-3.25-2.047 0-3.461 1.442-3.461 3.528 0 1.976 1.246 3.32 3.055 3.32 2.156 0 3.695-1.5 3.695-3.598zm-1.3 0.516c0 1.609-0.715 2.617-1.848 2.617-1.375 0-2.297-1.344-2.297-3.332 0-1.68 0.672-2.59 1.902-2.59 1.289 0 2.243 1.403 2.243 3.305z"/><path d="m316.3 34.06v-0.422l-0.574-0.039c-0.476-0.032-0.519-0.114-0.519-1.012v-2.699c0-1.641-0.77-2.438-2.336-2.438-0.52 0-0.813 0.098-1.11 0.352l-1.062 0.922v-1.219l-0.125-0.055c-0.715 0.293-1.442 0.493-2.184 0.575v0.39h0.516c0.562 0 0.617 0.102 0.617 1.024v3.148c0 0.883-0.043 0.98-0.519 1.012l-0.629 0.039v0.422c0.574-0.028 1.164-0.043 1.738-0.043 0.57 0 1.16 0.015 1.734 0.043v-0.422l-0.629-0.039c-0.476-0.032-0.519-0.129-0.519-1.012v-2.965c0-0.633 0.926-1.316 1.777-1.316 0.938 0 1.555 0.699 1.555 1.777v3.977c0.363-0.028 0.742-0.043 1.105-0.043 0.395 0 0.77 0.015 1.164 0.043z"/></g><path d="m83.5 0v40.17h62.23v-40.17zm2.836 2.836h56.56v34.5h-56.56z" color="#000000" style="-inkscape-stroke:none"/><path d="m167.7 0v40.17h62.23v-40.17zm2.836 2.836h56.56v34.5h-56.56z" color="#000000" style="-inkscape-stroke:none"/><path d="m252.1 0v40.17h71.71v-40.17zm2.836 2.836h66.04v34.5h-66.04z" color="#000000" style="-inkscape-stroke:none"/><path d="m144.1 19.37v1.418h21.52v-1.418z" color="#000000" style="-inkscape-stroke:none"/><path d="m159.9 20.08-2.836 2.836 9.922-2.836-9.922-2.832z" color="#000000" fill-rule="evenodd" stroke-width=".7559" style="-inkscape-stroke:none"/><path d="m155.8 23.68 12.6-3.6-12.6-3.596 3.602 3.596zm2.598-1.527 2.072-2.072-0.2676-0.2676-1.803-1.801 7.246 2.068z" color="#000000" fill-rule="evenodd" style="-inkscape-stroke:none"/><path d="m228.4 19.37v1.418h21.52v-1.418z" color="#000000" style="-inkscape-stroke:none"/><path d="m244.2 20.08-2.836 2.836 9.922-2.836-9.922-2.832z" color="#000000" fill-rule="evenodd" stroke-width=".7559" style="-inkscape-stroke:none"/><path d="m240.1 23.68 12.6-3.6-12.6-3.596 3.602 3.596zm2.598-1.527 2.072-2.072-0.2676-0.2676-1.803-1.801 7.246 2.068z" color="#000000" fill-rule="evenodd" style="-inkscape-stroke:none"/><path d="m322.4 19.37v1.418h21.52v-1.418z" color="#000000" style="-inkscape-stroke:none"/><path d="m338.2 20.08-2.836 2.836 9.922-2.836-9.922-2.832z" color="#000000" fill-rule="evenodd" stroke-width=".7559" style="-inkscape-stroke:none"/><path d="m334.1 23.68 12.6-3.6-12.6-3.596 3.602 3.596zm2.598-1.527 2.072-2.072-0.2676-0.2676-1.803-1.801 7.246 2.068z" color="#000000" fill-rule="evenodd" style="-inkscape-stroke:none"/><path d="m59.64 9.396v1.418h21.52v-1.418z" color="#000000" style="-inkscape-stroke:none"/><path d="m75.49 10.1-2.832 2.833 9.922-2.833-9.922-2.835z" color="#000000" fill-rule="evenodd" stroke-width=".7559" style="-inkscape-stroke:none"/><path d="m71.36 13.7 12.6-3.596-12.6-3.6 3.594 3.6zm2.596-1.527 2.068-2.068-0.2656-0.2676-1.803-1.805 7.25 2.072z" color="#000000" fill-rule="evenodd" style="-inkscape-stroke:none"/><path d="m59.64 28.9v1.418h21.52v-1.418z" color="#000000" style="-inkscape-stroke:none"/><path d="m75.49 29.61-2.832 2.832 9.922-2.832-9.922-2.836z" color="#000000" fill-rule="evenodd" stroke-width=".7559" style="-inkscape-stroke:none"/><path d="m71.36 33.21 12.6-3.596-12.6-3.6 3.594 3.6zm2.596-1.527 2.068-2.068-0.2656-0.2676-1.803-1.805 7.25 2.072z" color="#000000" fill-rule="evenodd" style="-inkscape-stroke:none"/><g><path d="m356.2 22.56-0.14-0.211c-0.52 0.281-0.965 0.406-1.469 0.406-1.555 0-2.578-1.203-2.578-3.051 0-1.5 0.699-2.34 1.961-2.34 0.617 0 1.289 0.282 1.539 0.633l0.097 0.852h0.395c0-0.645 0.07-1.219 0.195-1.723-0.558-0.336-1.051-0.488-1.625-0.488-0.672 0-1.457 0.265-2.297 0.797-0.98 0.617-1.496 1.597-1.496 2.828 0 1.89 1.328 3.222 3.207 3.222 0.727 0 1.778-0.269 1.918-0.476z"/><path d="m360.4 23.24v-0.422l-0.645-0.043c-0.472-0.027-0.515-0.125-0.515-1.007v-5.082l-0.125-0.055c-0.715 0.293-1.446 0.488-2.188 0.574v0.391h0.52c0.558 0 0.617 0.097 0.617 1.023v3.149c0 0.882-0.043 0.98-0.52 1.007l-0.644 0.043v0.422c0.59-0.031 1.164-0.043 1.75-0.043 0.59 0 1.164 0.012 1.75 0.043zm-1.051-8.332c0-0.406-0.277-0.699-0.684-0.699-0.433 0-0.714 0.281-0.714 0.699 0 0.422 0.281 0.699 0.699 0.699 0.422 0 0.699-0.277 0.699-0.699z"/><path d="m368.5 19.41c0-1.554-1.285-2.773-2.91-2.773-0.52 0-1.024 0.14-1.246 0.351l-1.149 1.047v-1.343l-0.125-0.055c-0.715 0.293-1.441 0.488-2.183 0.574v0.391h0.515c0.563 0 0.617 0.097 0.617 1.023v7.043c0 0.879-0.042 0.977-0.515 1.008l-0.645 0.039v0.422c0.586-0.028 1.16-0.043 1.75-0.043 0.586 0 1.16 0.015 1.75 0.043v-0.422l-0.644-0.039c-0.477-0.031-0.52-0.129-0.52-1.008v-2.648c0.422 0.254 0.867 0.351 1.5 0.351 0.406 0 0.77-0.086 0.992-0.226l1.598-1.036c0.559-0.363 1.219-1.804 1.219-2.699zm-1.215 0.516c0 1.57-0.937 2.73-2.199 2.73-0.77 0-1.344-0.25-1.891-0.824v-2.914c0-0.195 0.071-0.348 0.254-0.586 0.406-0.519 0.981-0.785 1.68-0.785 1.316 0 2.156 0.922 2.156 2.379z"/><path d="m377.1 23.24v-0.422l-0.574-0.043c-0.477-0.027-0.52-0.109-0.52-1.007v-2.7c0-1.64-0.769-2.437-2.336-2.437-0.519 0-0.812 0.097-1.105 0.351l-1.067 0.922v-4.758l-0.125-0.113c-0.617 0.238-1.078 0.348-2.183 0.516v0.394h0.785c0.25 0 0.348 0.153 0.348 0.575v7.25c0 0.882-0.04 0.98-0.516 1.007l-0.633 0.043v0.422c0.574-0.031 1.164-0.043 1.738-0.043 0.575 0 1.161 0.012 1.735 0.043v-0.422l-0.629-0.043c-0.477-0.027-0.52-0.125-0.52-1.007v-2.969c0-0.629 0.926-1.313 1.782-1.313 0.937 0 1.55 0.7 1.55 1.778v3.976c0.368-0.031 0.743-0.043 1.11-0.043 0.39 0 0.769 0.012 1.16 0.043z"/><path d="m383.5 19.29c0-1.609-1.035-2.66-2.601-2.66-0.52 0-1.122 0.183-1.696 0.519-1.148 0.657-1.609 1.524-1.609 2.981 0 0.883 0.195 1.637 0.59 2.168 0.543 0.742 1.496 1.179 2.547 1.179 0.515 0 1.035-0.113 1.609-0.367 0.379-0.152 0.672-0.336 0.726-0.418l0.282-0.476-0.184-0.141c-0.894 0.531-1.215 0.66-1.816 0.66-0.91 0-1.668-0.406-2.059-1.093-0.266-0.461-0.363-0.856-0.394-1.665h2.046c0.965 0 1.567-0.042 2.532-0.199 0.015-0.195 0.031-0.32 0.031-0.488zm-1.246 0.168-1.566 0.043c-0.645 0-1.008-0.016-1.766-0.086 0-0.656 0.059-0.965 0.238-1.328 0.297-0.617 0.899-0.996 1.571-0.996 0.46 0 0.824 0.183 1.078 0.562 0.308 0.461 0.449 0.867 0.449 1.805z"/><path d="m389.2 16.78c-0.152-0.097-0.406-0.152-0.656-0.152-0.422 0-0.871 0.222-1.164 0.574l-0.786 0.922v-1.441l-0.125-0.055c-0.714 0.293-1.441 0.488-2.183 0.574v0.391h0.519c0.559 0 0.614 0.097 0.614 1.023v3.149c0 0.882-0.039 0.98-0.516 1.007l-0.644 0.043v0.422c0.574-0.031 1.148-0.043 1.722-0.043 0.672 0 1.328 0.012 2 0.043v-0.422l-0.726-0.043c-0.633-0.039-0.661-0.082-0.661-1.007v-2.407c0-0.84 0.563-1.539 1.247-1.539 0.421 0 0.714 0.196 0.937 0.641h0.297z"/><path d="m394 17.09-1.918 0.086v-0.532c0-0.589 0.039-1.093 0.152-1.988l-0.168-0.156c-0.336 0.211-0.758 0.394-1.191 0.531 0.043 0.422 0.058 0.688 0.058 1.106v0.98l-1.094 0.492v0.293l1.063-0.054v4.031c0 1.035 0.465 1.484 1.543 1.484 0.32 0 0.656-0.07 0.742-0.168l0.672-0.742-0.184-0.238c-0.351 0.195-0.558 0.265-0.824 0.265-0.547 0-0.773-0.281-0.773-0.964v-3.668h1.793z"/><path d="m400.3 19.29c0-1.609-1.035-2.66-2.602-2.66-0.519 0-1.121 0.183-1.695 0.519-1.148 0.657-1.609 1.524-1.609 2.981 0 0.883 0.195 1.637 0.586 2.168 0.546 0.742 1.5 1.179 2.55 1.179 0.516 0 1.035-0.113 1.61-0.367 0.379-0.152 0.672-0.336 0.726-0.418l0.282-0.476-0.184-0.141c-0.895 0.531-1.219 0.66-1.82 0.66-0.911 0-1.664-0.406-2.059-1.093-0.266-0.461-0.363-0.856-0.391-1.665h2.043c0.969 0 1.571-0.042 2.535-0.199 0.016-0.195 0.028-0.32 0.028-0.488zm-1.246 0.168-1.567 0.043c-0.644 0-1.007-0.016-1.765-0.086 0-0.656 0.058-0.965 0.238-1.328 0.293-0.617 0.898-0.996 1.57-0.996 0.461 0 0.825 0.183 1.078 0.562 0.305 0.461 0.446 0.867 0.446 1.805z"/><path d="m407.7 23.24v-0.422l-0.352-0.043c-0.168-0.011-0.336-0.125-0.488-0.336l-2.07-2.8 1.984-2.321c0.086-0.101 0.238-0.156 0.477-0.156h0.195v-0.391h-1.145l-1.738 2.45-1.062-1.625c-0.211-0.309-0.364-0.489-0.84-0.965l-1.625 0.281 0.07 0.363 0.293 0.028c0.254 0.027 0.562 0.211 0.699 0.406l1.68 2.437-2.086 2.461c-0.098 0.129-0.277 0.211-0.418 0.211h-0.238v0.379h1.203s0.097-0.324 0.84-1.316l1.035-1.371 1.863 2.73c0.281-0.031 0.574-0.043 0.856-0.043 0.293 0 0.574 0.012 0.867 0.043z"/><path d="m412.5 17.09-1.918 0.086v-0.532c0-0.589 0.043-1.093 0.152-1.988l-0.168-0.156c-0.336 0.211-0.754 0.394-1.187 0.531 0.039 0.422 0.054 0.688 0.054 1.106v0.98l-1.089 0.492v0.293l1.062-0.054v4.031c0 1.035 0.461 1.484 1.539 1.484 0.324 0 0.66-0.07 0.742-0.168l0.672-0.742-0.179-0.238c-0.352 0.195-0.563 0.265-0.829 0.265-0.546 0-0.769-0.281-0.769-0.964v-3.668h1.793z"/></g></g></svg>
