<?xml version="1.0" encoding="UTF-8"?>
<svg width="410.6pt" height="320.6pt" version="1.1" viewBox="0 0 410.6 320.6" xmlns="http://www.w3.org/2000/svg">
    <defs>
        <style type="text/css">*{stroke-linejoin: round; stroke-linecap: butt}</style>
    </defs>
    <path d="m0 320.6h410.6v-320.6h-410.6z" fill="#fff" stroke-width=".9092"/>
    <path d="m43.71 288.2h357.1v-266.1h-357.1z"/>
    <g transform="translate(-13.89 -19.39)">
        <g>
            <g>
                <path d="m74.16 307.6v3.5" stroke="#000" stroke-width=".8"/>
            </g>
        </g>
        <g>
            <g transform="matrix(.1 0 0 -.1 66.21 322.2)" stroke-width=".01562">
                <path d="m31.78 66.41q-7.609 0-11.45-7.5-3.828-7.484-3.828-22.53 0-14.98 3.828-22.48 3.844-7.5 11.45-7.5 7.672 0 11.5 7.5 3.844 7.5 3.844 22.48 0 15.05-3.844 22.53-3.828 7.5-11.5 7.5zm0 7.812q12.27 0 18.73-9.703 6.469-9.688 6.469-28.14 0-18.41-6.469-28.11-6.469-9.688-18.73-9.688-12.25 0-18.72 9.688-6.469 9.703-6.469 28.11 0 18.45 6.469 28.14 6.469 9.703 18.72 9.703z"/>
                <path d="m74.31 12.41h10.31v-12.41h-10.31z"/>
                <path d="m127.2 66.41q-7.609 0-11.45-7.5-3.828-7.484-3.828-22.53 0-14.98 3.828-22.48 3.844-7.5 11.45-7.5 7.672 0 11.5 7.5 3.844 7.5 3.844 22.48 0 15.05-3.844 22.53-3.828 7.5-11.5 7.5zm0 7.812q12.27 0 18.73-9.703 6.469-9.688 6.469-28.14 0-18.41-6.469-28.11-6.469-9.688-18.73-9.688-12.25 0-18.72 9.688-6.469 9.703-6.469 28.11 0 18.45 6.469 28.14 6.469 9.703 18.72 9.703z"/>
            </g>
        </g>
    </g>
    <g transform="translate(-13.89 -19.39)">
        <g>
            <g>
                <path d="m151.5 307.6v3.5" stroke="#000" stroke-width=".8"/>
            </g>
        </g>
        <g>
            <g transform="matrix(.1 0 0 -.1 143.6 322.2)" stroke-width=".01562">
                <path d="m31.78 66.41q-7.609 0-11.45-7.5-3.828-7.484-3.828-22.53 0-14.98 3.828-22.48 3.844-7.5 11.45-7.5 7.672 0 11.5 7.5 3.844 7.5 3.844 22.48 0 15.05-3.844 22.53-3.828 7.5-11.5 7.5zm0 7.812q12.27 0 18.73-9.703 6.469-9.688 6.469-28.14 0-18.41-6.469-28.11-6.469-9.688-18.73-9.688-12.25 0-18.72 9.688-6.469 9.703-6.469 28.11 0 18.45 6.469 28.14 6.469 9.703 18.72 9.703z"/>
                <path d="m74.31 12.41h10.31v-12.41h-10.31z"/>
                <path d="m106.2 72.91h38.72v-8.312h-29.69v-17.86q2.141 0.7344 4.281 1.094 2.156 0.3594 4.312 0.3594 12.2 0 19.33-6.688 7.141-6.688 7.141-18.11 0-11.77-7.328-18.3-7.328-6.516-20.66-6.516-4.594 0-9.359 0.7812-4.75 0.7812-9.828 2.344v9.922q4.391-2.391 9.078-3.562t9.906-1.172q8.453 0 13.38 4.438 4.938 4.438 4.938 12.06 0 7.609-4.938 12.05-4.922 4.453-13.38 4.453-3.953 0-7.891-0.875-3.922-0.875-8.016-2.734z"/>
            </g>
        </g>
    </g>
    <g transform="translate(-13.89 -19.39)">
        <g>
            <g>
                <path d="m228.9 307.6v3.5" stroke="#000" stroke-width=".8"/>
            </g>
        </g>
        <g>
            <g transform="matrix(.1 0 0 -.1 220.9 322.2)" stroke-width=".01562">
                <path d="m12.41 8.297h16.11v55.62l-17.53-3.516v8.984l17.44 3.516h9.859v-64.61h16.11v-8.297h-41.98z"/>
                <path d="m74.31 12.41h10.31v-12.41h-10.31z"/>
                <path d="m127.2 66.41q-7.609 0-11.45-7.5-3.828-7.484-3.828-22.53 0-14.98 3.828-22.48 3.844-7.5 11.45-7.5 7.672 0 11.5 7.5 3.844 7.5 3.844 22.48 0 15.05-3.844 22.53-3.828 7.5-11.5 7.5zm0 7.812q12.27 0 18.73-9.703 6.469-9.688 6.469-28.14 0-18.41-6.469-28.11-6.469-9.688-18.73-9.688-12.25 0-18.72 9.688-6.469 9.703-6.469 28.11 0 18.45 6.469 28.14 6.469 9.703 18.72 9.703z"/>
            </g>
        </g>
    </g>
    <g transform="translate(-13.89 -19.39)">
        <g>
            <g>
                <path d="m306.2 307.6v3.5" stroke="#000" stroke-width=".8"/>
            </g>
        </g>
        <g>
            <g transform="matrix(.1 0 0 -.1 298.3 322.2)" stroke-width=".01562">
                <path d="m12.41 8.297h16.11v55.62l-17.53-3.516v8.984l17.44 3.516h9.859v-64.61h16.11v-8.297h-41.98z"/>
                <path d="m74.31 12.41h10.31v-12.41h-10.31z"/>
                <path d="m106.2 72.91h38.72v-8.312h-29.69v-17.86q2.141 0.7344 4.281 1.094 2.156 0.3594 4.312 0.3594 12.2 0 19.33-6.688 7.141-6.688 7.141-18.11 0-11.77-7.328-18.3-7.328-6.516-20.66-6.516-4.594 0-9.359 0.7812-4.75 0.7812-9.828 2.344v9.922q4.391-2.391 9.078-3.562t9.906-1.172q8.453 0 13.38 4.438 4.938 4.438 4.938 12.06 0 7.609-4.938 12.05-4.922 4.453-13.38 4.453-3.953 0-7.891-0.875-3.922-0.875-8.016-2.734z"/>
            </g>
        </g>
    </g>
    <g transform="translate(-13.89 -19.39)">
        <g>
            <g>
                <path d="m383.6 307.6v3.5" stroke="#000" stroke-width=".8"/>
            </g>
        </g>
        <g>
            <g transform="matrix(.1 0 0 -.1 375.7 322.2)" stroke-width=".01562">
                <path d="m19.19 8.297h34.42v-8.297h-46.28v8.297q5.609 5.812 15.3 15.59 9.703 9.797 12.19 12.64 4.734 5.312 6.609 9 1.891 3.688 1.891 7.25 0 5.812-4.078 9.469-4.078 3.672-10.62 3.672-4.641 0-9.797-1.609-5.141-1.609-11-4.891v9.969q5.953 2.391 11.12 3.609 5.188 1.219 9.484 1.219 11.33 0 18.06-5.672 6.734-5.656 6.734-15.12 0-4.5-1.688-8.531-1.672-4.016-6.125-9.484-1.219-1.422-7.766-8.188-6.531-6.766-18.45-18.92z"/>
                <path d="m74.31 12.41h10.31v-12.41h-10.31z"/>
                <path d="m127.2 66.41q-7.609 0-11.45-7.5-3.828-7.484-3.828-22.53 0-14.98 3.828-22.48 3.844-7.5 11.45-7.5 7.672 0 11.5 7.5 3.844 7.5 3.844 22.48 0 15.05-3.844 22.53-3.828 7.5-11.5 7.5zm0 7.812q12.27 0 18.73-9.703 6.469-9.688 6.469-28.14 0-18.41-6.469-28.11-6.469-9.688-18.73-9.688-12.25 0-18.72 9.688-6.469 9.703-6.469 28.11 0 18.45 6.469 28.14 6.469 9.703 18.72 9.703z"/>
            </g>
        </g>
    </g>
    <g transform="translate(-13.89 -19.39)">
        <g transform="matrix(.1 0 0 -.1 221.1 335.9)" stroke-width=".01562">
            <path d="m39.41 66.22q-10.75 0-17.08-8.016-6.312-8-6.312-21.83 0-13.77 6.312-21.78 6.328-8 17.08-8 10.73 0 17.02 8 6.281 8.016 6.281 21.78 0 13.83-6.281 21.83-6.281 8.016-17.02 8.016zm0 8q15.33 0 24.5-10.28 9.188-10.28 9.188-27.56 0-17.23-9.188-27.52-9.172-10.28-24.5-10.28-15.38 0-24.59 10.25-9.203 10.27-9.203 27.55t9.203 27.56q9.219 10.28 24.59 10.28z"/>
            <path d="m115.8 75.98v-7.484h-8.594q-4.828 0-6.719-1.953-1.875-1.953-1.875-7.031v-4.828h14.8v-6.984h-14.8v-47.7h-9.031v47.7h-8.594v6.984h8.594v3.812q0 9.125 4.25 13.3 4.25 4.188 13.47 4.188z"/>
            <path d="m151 75.98v-7.484h-8.594q-4.828 0-6.719-1.953-1.875-1.953-1.875-7.031v-4.828h14.8v-6.984h-14.8v-47.7h-9.031v47.7h-8.594v6.984h8.594v3.812q0 9.125 4.25 13.3 4.25 4.188 13.47 4.188z"/>
            <path d="m193.4 53.08v-8.5q-3.797 1.953-7.906 2.922-4.094 0.9844-8.5 0.9844-6.688 0-10.03-2.047t-3.344-6.156q0-3.125 2.391-4.906 2.391-1.781 9.625-3.391l3.078-0.6875q9.562-2.047 13.59-5.781t4.031-10.42q0-7.625-6.031-12.08-6.031-4.438-16.58-4.438-4.391 0-9.156 0.8594-4.766 0.8594-10.03 2.562v9.281q4.984-2.594 9.812-3.891 4.828-1.281 9.578-1.281 6.344 0 9.75 2.172 3.422 2.172 3.422 6.125 0 3.656-2.469 5.609-2.453 1.953-10.81 3.766l-3.125 0.7344q-8.344 1.75-12.06 5.391-3.703 3.641-3.703 9.984 0 7.719 5.469 11.91 5.469 4.203 15.53 4.203 4.969 0 9.359-0.7344 4.406-0.7188 8.109-2.188z"/>
            <path d="m257.4 29.59v-4.391h-41.31q0.5938-9.281 5.594-14.14t13.94-4.859q5.172 0 10.03 1.266 4.859 1.266 9.656 3.812v-8.5q-4.844-2.047-9.922-3.125-5.078-1.078-10.3-1.078-13.09 0-20.73 7.609-7.641 7.625-7.641 20.62 0 13.42 7.25 21.3 7.25 7.891 19.56 7.891 11.03 0 17.45-7.109 6.422-7.094 6.422-19.3zm-8.984 2.641q-0.0937 7.359-4.125 11.75-4.031 4.406-10.67 4.406-7.516 0-12.03-4.25-4.516-4.25-5.203-11.97z"/>
            <path d="m281.1 70.22v-15.53h18.5v-6.984h-18.5v-29.69q0-6.688 1.828-8.594 1.828-1.906 7.453-1.906h9.219v-7.516h-9.219q-10.41 0-14.36 3.875-3.953 3.891-3.953 14.14v29.69h-6.594v6.984h6.594v15.53z"/>
        </g>
    </g>
    <g transform="translate(-13.89 -19.39)">
        <g transform="matrix(.1 0 0 -.1 395.8 334.9)" stroke-width=".01562">
            <path d="m12.41 8.297h16.11v55.62l-17.53-3.516v8.984l17.44 3.516h9.859v-64.61h16.11v-8.297h-41.98z"/>
            <path d="m119.8 29.59v-4.391h-41.31q0.5938-9.281 5.594-14.14t13.94-4.859q5.172 0 10.03 1.266 4.859 1.266 9.656 3.812v-8.5q-4.844-2.047-9.922-3.125-5.078-1.078-10.3-1.078-13.09 0-20.73 7.609-7.641 7.625-7.641 20.62 0 13.42 7.25 21.3 7.25 7.891 19.56 7.891 11.03 0 17.45-7.109 6.422-7.094 6.422-19.3zm-8.984 2.641q-0.0937 7.359-4.125 11.75-4.031 4.406-10.67 4.406-7.516 0-12.03-4.25t-5.203-11.97z"/>
            <path d="m158.2 40.38q-6.641 0-10.53-4.547-3.875-4.531-3.875-12.44 0-7.859 3.875-12.44 3.891-4.562 10.53-4.562 6.641 0 10.52 4.562 3.875 4.578 3.875 12.44 0 7.906-3.875 12.44-3.875 4.547-10.52 4.547zm19.58 30.92v-8.984q-3.719 1.75-7.5 2.672-3.781 0.9375-7.5 0.9375-9.766 0-14.92-6.594-5.141-6.594-5.875-19.92 2.875 4.25 7.219 6.516 4.359 2.266 9.578 2.266 10.98 0 17.36-6.672 6.375-6.656 6.375-18.12 0-11.23-6.641-18.03-6.641-6.781-17.67-6.781-12.66 0-19.34 9.688-6.688 9.703-6.688 28.11 0 17.28 8.203 27.56 8.203 10.28 22.02 10.28 3.719 0 7.5-0.7344t7.891-2.188z"/>
        </g>
    </g>
    <g transform="translate(-13.89 -19.39)">
        <g>
            <g>
                <path d="m57.6 295.5h-3.5" stroke="#000" stroke-width=".8"/>
            </g>
        </g>
        <g>
            <g transform="matrix(.1 0 0 -.1 34.7 299.3)" stroke-width=".01562">
                <path d="m31.78 66.41q-7.609 0-11.45-7.5-3.828-7.484-3.828-22.53 0-14.98 3.828-22.48 3.844-7.5 11.45-7.5 7.672 0 11.5 7.5 3.844 7.5 3.844 22.48 0 15.05-3.844 22.53-3.828 7.5-11.5 7.5zm0 7.812q12.27 0 18.73-9.703 6.469-9.688 6.469-28.14 0-18.41-6.469-28.11-6.469-9.688-18.73-9.688-12.25 0-18.72 9.688-6.469 9.703-6.469 28.11 0 18.45 6.469 28.14 6.469 9.703 18.72 9.703z"/>
                <path d="m74.31 12.41h10.31v-12.41h-10.31z"/>
                <path d="m127.2 66.41q-7.609 0-11.45-7.5-3.828-7.484-3.828-22.53 0-14.98 3.828-22.48 3.844-7.5 11.45-7.5 7.672 0 11.5 7.5 3.844 7.5 3.844 22.48 0 15.05-3.844 22.53-3.828 7.5-11.5 7.5zm0 7.812q12.27 0 18.73-9.703 6.469-9.688 6.469-28.14 0-18.41-6.469-28.11-6.469-9.688-18.73-9.688-12.25 0-18.72 9.688-6.469 9.703-6.469 28.11 0 18.45 6.469 28.14 6.469 9.703 18.72 9.703z"/>
            </g>
        </g>
    </g>
    <g transform="translate(-13.89 -19.39)">
        <g>
            <g>
                <path d="m57.6 251.5h-3.5" stroke="#000" stroke-width=".8"/>
            </g>
        </g>
        <g>
            <g transform="matrix(.1 0 0 -.1 34.7 255.3)" stroke-width=".01562">
                <path d="m31.78 66.41q-7.609 0-11.45-7.5-3.828-7.484-3.828-22.53 0-14.98 3.828-22.48 3.844-7.5 11.45-7.5 7.672 0 11.5 7.5 3.844 7.5 3.844 22.48 0 15.05-3.844 22.53-3.828 7.5-11.5 7.5zm0 7.812q12.27 0 18.73-9.703 6.469-9.688 6.469-28.14 0-18.41-6.469-28.11-6.469-9.688-18.73-9.688-12.25 0-18.72 9.688-6.469 9.703-6.469 28.11 0 18.45 6.469 28.14 6.469 9.703 18.72 9.703z"/>
                <path d="m74.31 12.41h10.31v-12.41h-10.31z"/>
                <path d="m114.6 8.297h34.42v-8.297h-46.28v8.297q5.609 5.812 15.3 15.59 9.703 9.797 12.19 12.64 4.734 5.312 6.609 9 1.891 3.688 1.891 7.25 0 5.812-4.078 9.469-4.078 3.672-10.62 3.672-4.641 0-9.797-1.609-5.141-1.609-11-4.891v9.969q5.953 2.391 11.12 3.609 5.188 1.219 9.484 1.219 11.33 0 18.06-5.672 6.734-5.656 6.734-15.12 0-4.5-1.688-8.531-1.672-4.016-6.125-9.484-1.219-1.422-7.766-8.188-6.531-6.766-18.45-18.92z"/>
            </g>
        </g>
    </g>
    <g transform="translate(-13.89 -19.39)">
        <g>
            <g>
                <path d="m57.6 207.5h-3.5" stroke="#000" stroke-width=".8"/>
            </g>
        </g>
        <g>
            <g transform="matrix(.1 0 0 -.1 34.7 211.3)" stroke-width=".01562">
                <path d="m31.78 66.41q-7.609 0-11.45-7.5-3.828-7.484-3.828-22.53 0-14.98 3.828-22.48 3.844-7.5 11.45-7.5 7.672 0 11.5 7.5 3.844 7.5 3.844 22.48 0 15.05-3.844 22.53-3.828 7.5-11.5 7.5zm0 7.812q12.27 0 18.73-9.703 6.469-9.688 6.469-28.14 0-18.41-6.469-28.11-6.469-9.688-18.73-9.688-12.25 0-18.72 9.688-6.469 9.703-6.469 28.11 0 18.45 6.469 28.14 6.469 9.703 18.72 9.703z"/>
                <path d="m74.31 12.41h10.31v-12.41h-10.31z"/>
                <path d="m133.2 64.31-24.91-38.92h24.91zm-2.594 8.594h12.41v-47.52h10.41v-8.203h-10.41v-17.19h-9.812v17.19h-32.91v9.516z"/>
            </g>
        </g>
    </g>
    <g transform="translate(-13.89 -19.39)">
        <g>
            <g>
                <path d="m57.6 163.5h-3.5" stroke="#000" stroke-width=".8"/>
            </g>
        </g>
        <g>
            <g transform="matrix(.1 0 0 -.1 34.7 167.3)" stroke-width=".01562">
                <path d="m31.78 66.41q-7.609 0-11.45-7.5-3.828-7.484-3.828-22.53 0-14.98 3.828-22.48 3.844-7.5 11.45-7.5 7.672 0 11.5 7.5 3.844 7.5 3.844 22.48 0 15.05-3.844 22.53-3.828 7.5-11.5 7.5zm0 7.812q12.27 0 18.73-9.703 6.469-9.688 6.469-28.14 0-18.41-6.469-28.11-6.469-9.688-18.73-9.688-12.25 0-18.72 9.688-6.469 9.703-6.469 28.11 0 18.45 6.469 28.14 6.469 9.703 18.72 9.703z"/>
                <path d="m74.31 12.41h10.31v-12.41h-10.31z"/>
                <path d="m128.4 40.38q-6.641 0-10.53-4.547-3.875-4.531-3.875-12.44 0-7.859 3.875-12.44 3.891-4.562 10.53-4.562 6.641 0 10.52 4.562 3.875 4.578 3.875 12.44 0 7.906-3.875 12.44-3.875 4.547-10.52 4.547zm19.58 30.92v-8.984q-3.719 1.75-7.5 2.672-3.781 0.9375-7.5 0.9375-9.766 0-14.92-6.594-5.141-6.594-5.875-19.92 2.875 4.25 7.219 6.516 4.359 2.266 9.578 2.266 10.98 0 17.36-6.672 6.375-6.656 6.375-18.12 0-11.23-6.641-18.03-6.641-6.781-17.67-6.781-12.66 0-19.34 9.688-6.688 9.703-6.688 28.11 0 17.28 8.203 27.56 8.203 10.28 22.02 10.28 3.719 0 7.5-0.7344t7.891-2.188z"/>
            </g>
        </g>
    </g>
    <g transform="translate(-13.89 -19.39)">
        <g>
            <g>
                <path d="m57.6 119.5h-3.5" stroke="#000" stroke-width=".8"/>
            </g>
        </g>
        <g>
            <g transform="matrix(.1 0 0 -.1 34.7 123.3)" stroke-width=".01562">
                <path d="m31.78 66.41q-7.609 0-11.45-7.5-3.828-7.484-3.828-22.53 0-14.98 3.828-22.48 3.844-7.5 11.45-7.5 7.672 0 11.5 7.5 3.844 7.5 3.844 22.48 0 15.05-3.844 22.53-3.828 7.5-11.5 7.5zm0 7.812q12.27 0 18.73-9.703 6.469-9.688 6.469-28.14 0-18.41-6.469-28.11-6.469-9.688-18.73-9.688-12.25 0-18.72 9.688-6.469 9.703-6.469 28.11 0 18.45 6.469 28.14 6.469 9.703 18.72 9.703z"/>
                <path d="m74.31 12.41h10.31v-12.41h-10.31z"/>
                <path d="m127.2 34.62q-7.031 0-11.06-3.766-4.016-3.766-4.016-10.34 0-6.594 4.016-10.36 4.031-3.766 11.06-3.766t11.08 3.781q4.062 3.797 4.062 10.34 0 6.578-4.031 10.34-4.016 3.766-11.11 3.766zm-9.859 4.188q-6.344 1.562-9.891 5.906-3.531 4.359-3.531 10.61 0 8.734 6.219 13.81 6.234 5.078 17.06 5.078 10.89 0 17.09-5.078 6.203-5.078 6.203-13.81 0-6.25-3.547-10.61-3.531-4.344-9.828-5.906 7.125-1.656 11.09-6.5 3.984-4.828 3.984-11.8 0-10.61-6.469-16.28-6.469-5.656-18.53-5.656-12.05 0-18.53 5.656-6.469 5.672-6.469 16.28 0 6.969 4 11.8 4.016 4.844 11.14 6.5zm-3.609 15.58q0-5.656 3.531-8.828 3.547-3.172 9.938-3.172 6.359 0 9.938 3.172 3.594 3.172 3.594 8.828 0 5.672-3.594 8.844-3.578 3.172-9.938 3.172-6.391 0-9.938-3.172-3.531-3.172-3.531-8.844z"/>
            </g>
        </g>
    </g>
    <g transform="translate(-13.89 -19.39)">
        <g>
            <g>
                <path d="m57.6 75.56h-3.5" stroke="#000" stroke-width=".8"/>
            </g>
        </g>
        <g>
            <g transform="matrix(.1 0 0 -.1 34.7 79.36)" stroke-width=".01562">
                <path d="m12.41 8.297h16.11v55.62l-17.53-3.516v8.984l17.44 3.516h9.859v-64.61h16.11v-8.297h-41.98z"/>
                <path d="m74.31 12.41h10.31v-12.41h-10.31z"/>
                <path d="m127.2 66.41q-7.609 0-11.45-7.5-3.828-7.484-3.828-22.53 0-14.98 3.828-22.48 3.844-7.5 11.45-7.5 7.672 0 11.5 7.5 3.844 7.5 3.844 22.48 0 15.05-3.844 22.53-3.828 7.5-11.5 7.5zm0 7.812q12.27 0 18.73-9.703 6.469-9.688 6.469-28.14 0-18.41-6.469-28.11-6.469-9.688-18.73-9.688-12.25 0-18.72 9.688-6.469 9.703-6.469 28.11 0 18.45 6.469 28.14 6.469 9.703 18.72 9.703z"/>
            </g>
        </g>
    </g>
    <g transform="translate(-13.89 -19.39)">
        <g transform="matrix(0 -.1 -.1 0 28.62 194)" stroke-width=".01562">
            <path d="m9.812 72.91h46.09v-8.312h-36.23v-21.58h34.72v-8.297h-34.72v-26.42h37.11v-8.297h-46.97z"/>
            <path d="m118.1 33.02v-33.02h-8.984v32.72q0 7.766-3.031 11.61-3.031 3.859-9.078 3.859-7.281 0-11.48-4.641-4.203-4.625-4.203-12.64v-30.91h-9.031v54.69h9.031v-8.5q3.234 4.938 7.594 7.375 4.375 2.438 10.09 2.438 9.422 0 14.25-5.828 4.844-5.828 4.844-17.16z"/>
            <path d="m144.9 70.22v-15.53h18.5v-6.984h-18.5v-29.69q0-6.688 1.828-8.594 1.828-1.906 7.453-1.906h9.219v-7.516h-9.219q-10.41 0-14.36 3.875-3.953 3.891-3.953 14.14v29.69h-6.594v6.984h6.594v15.53z"/>
            <path d="m206.9 46.3q-1.516 0.875-3.297 1.281-1.781 0.4219-3.922 0.4219-7.625 0-11.7-4.953-4.078-4.953-4.078-14.23v-28.81h-9.031v54.69h9.031v-8.5q2.844 4.984 7.375 7.391 4.547 2.422 11.05 2.422 0.9219 0 2.047-0.125 1.125-0.1094 2.484-0.3594z"/>
            <path d="m235.2 48.39q-7.219 0-11.42-5.641-4.203-5.641-4.203-15.45t4.172-15.45q4.188-5.641 11.45-5.641 7.188 0 11.38 5.656 4.203 5.672 4.203 15.44 0 9.719-4.203 15.41-4.188 5.688-11.38 5.688zm0 7.609q11.72 0 18.41-7.625 6.703-7.609 6.703-21.08 0-13.42-6.703-21.08-6.688-7.641-18.41-7.641-11.77 0-18.44 7.641-6.656 7.656-6.656 21.08 0 13.47 6.656 21.08 6.672 7.625 18.44 7.625z"/>
            <path d="m283.9 8.203v-29h-9.031v75.48h9.031v-8.297q2.844 4.875 7.156 7.234 4.328 2.375 10.33 2.375 9.969 0 16.19-7.906 6.234-7.906 6.234-20.8t-6.234-20.81q-6.219-7.906-16.19-7.906-6 0-10.33 2.375-4.312 2.375-7.156 7.25zm30.58 19.09q0 9.906-4.078 15.55-4.078 5.641-11.2 5.641-7.141 0-11.22-5.641-4.078-5.641-4.078-15.55t4.078-15.55q4.078-5.641 11.22-5.641 7.125 0 11.2 5.641 4.078 5.641 4.078 15.55z"/>
            <path d="m361.5-5.078q-3.797-9.766-7.422-12.73-3.609-2.984-9.656-2.984h-7.188v7.516h5.281q3.703 0 5.75 1.766 2.062 1.75 4.547 8.297l1.609 4.094-22.11 53.81h9.516l17.09-42.77 17.09 42.77h9.516z"/>
        </g>
    </g>
    <path transform="translate(-13.89 -19.39)" d="m74.16 81.99 0.3169-1.053 0.1584-0.2783 0.1584 0.1041 0.1584-0.6106 0.3169 0.6454 0.1584-0.01276 0.1584 0.6433 0.1584-0.7826 0.1584-0.1213 0.3169 0.5663 0.1584 0.06869 0.1584-0.5313 0.1584 0.08121 0.1584-0.3146 0.3169 0.1878 0.1584-0.03942 0.1584-0.3913 0.3169 0.7168 0.1584 0.1519 0.1584-0.3927 0.1584 0.7084 0.1584-0.6748 0.1584 0.538 0.3169 214.3h0.7922l0.1584-58.58 0.1584 58.58h0.3169l0.1584-206.8 0.1584-8.557 0.1584 9.966 0.1584 205.4h13.31l0.1584-214.4 0.1584 0.09288 0.1584-0.7745 0.1584-0.08713 0.1584 0.584 0.3169-0.2146 0.1584-0.6742 0.1584 1.285 0.1584-0.2813 0.1584 0.1622 0.1584-0.827 0.1584 1.594 0.3169-1.423 0.1584 0.2292 0.1584-0.1731 0.1584 0.1124 0.1584 0.7397 0.1584-0.7456 0.1584 0.3137 0.1584 0.6817 0.1584-1.482 0.6338 1.292 0.1584-0.509 0.1584 0.7326 0.1584-1.043 0.1584 0.2694 0.1584 0.9027 0.1584-1.475 0.1584 0.6174 0.1584-0.4196 0.3169 0.4319 0.3169-0.03301 0.1584-0.2728 0.1584 0.8003 0.1584-1.071 0.1584-0.1521 0.1584 1.279 0.3169-0.9085 0.1584 0.7585 0.1584-0.6224 0.3169 0.4119 0.1584-0.2272 0.1584-0.7178 0.1584 0.7187 0.1584-0.7358 0.1584 1.031 0.1584-1.093 0.1584 0.7379 0.1584-0.7691 0.1584-0.0063 0.3169 1.585 0.1584-1.507 0.1584 0.8785 0.1584-0.159 0.1584 0.2495 0.1584-0.852 0.1584 0.8126 0.4753-0.7888 0.1584 0.2415 0.1584 0.5991 0.4753 0.04655 0.1584 0.3648 0.1584-1.149 0.1584 0.1209 0.1584 0.6206 0.1584-0.3744 0.1584 0.5474 0.3169-0.4188 0.1584-0.7924 0.3169 1.53 0.1584-1.407 0.3169 1.038 0.4753-0.6044 0.1584 0.4044 0.1584-1.394 0.1584 0.6898 0.7922 0.703 0.1584-0.972 0.3169 0.6108 0.1584 0.2548 0.1584-0.09808 0.1584 0.6653 0.1584-0.8738 0.1584-0.07657 0.1584 0.3901 0.1584-0.288 0.1584 0.3293 0.1584 0.6099 0.1584-0.5993 0.1584-0.05106 0.1584 0.4326 0.1584-1.026 0.1584 1.085 0.4753-0.7921 0.1584-0.02791 0.1584 0.2874 0.1584-0.4079 0.1584 0.7033 0.1584-0.0069 0.1584-1.195 0.1584 0.9746 0.1584 0.2334 0.4753-0.9643 0.1584 0.2513 0.1584-0.1013 0.1584 0.551 0.1584 0.127 0.1584-0.2765 0.1584 0.4337 0.3169-0.9558 0.1584-0.3067 0.1584 0.6952 0.1584-0.218 0.3169 0.7954 0.1584-1.404 0.1584 0.6403 0.1584-0.2995 0.3169 0.8068 0.1584-0.5184 0.1584 0.1214 0.1584-0.1078 0.1584 0.5461 0.1584-0.02552 0.1584 0.6547 0.1584-1.149 0.1584 0.2323 0.1584-0.4042 0.1584 0.6174 0.1584-1.218 0.1584 0.05802 0.1584 1.014 0.1584-0.782 0.3169 0.7468 0.1584 0.2679 0.1584-0.9663 0.1584 1.004 0.3169-0.8577 0.1584-0.02721 0.1584-0.2856 0.1584 0.6502 0.1584-0.0097 0.1584-0.1675 0.1584 0.7662 0.1584-0.9016 0.1584-0.05305 0.1584 0.957 0.1584 0.09279 0.1584-0.7783 0.1584 0.2293 0.1584-0.02997 0.1584 0.368 0.1584-0.5823 0.1584 0.3574 0.1584-0.07766 0.1584 0.3183 0.1584-0.5113 0.1584 0.5228 0.1584-0.4388 0.1584 0.01528 0.1584-0.598 0.1584 1.062 0.1584-0.8901 0.1584 0.9931 0.1584-0.5889 0.3169 0.4031 0.1584-0.6887 0.1584 0.4096 0.1584 1.064 0.1584-0.2034 0.1584-0.9035 0.1584 0.874 0.1584-1.051 0.1584-0.04532 0.1584 0.1735 0.1584-0.3552 0.3169 0.1259 0.1584-0.07153 0.1584 0.665 0.3169-0.8515 0.1584 0.6526 0.1584-0.7982 0.3169 1.045 0.1584-0.7809 0.1584 1.464 0.1584-0.8293 0.1584-0.01693 0.3169-0.4237 0.1584 0.5333 0.1584-0.4512 0.1584 0.348 0.1584-0.1963 0.1584-0.4472 0.1584 0.616 0.1584-0.9853 0.1584 1.286 0.1584-0.4832 0.4753 0.5126 0.1584-0.7779 0.1584 0.0704 0.1584 0.3002 0.1584-0.4683 0.1584 0.4119 0.1584-0.4513 0.1584 0.7452 0.1584-0.2395 0.1584 0.5109 0.1584-0.5734 0.1584 0.0076 0.1584 0.6454 0.3169-0.6606 0.1584 0.6552 0.1584-0.8431 0.1584 0.6764 0.1584 0.04779 0.3169-0.4206 0.1584-0.3989 0.1584 0.6098 0.3169-0.2149 0.3169-0.1443 0.1584 0.754 0.1584-1.497 0.3169 1.756 0.1584-1.13 0.1584 0.198 0.1584-0.1463 0.1584 0.1318 0.3169-0.7841 0.1584 1.37 0.1584-0.7913 0.1584-0.02663 0.1584-0.5624 0.1584 0.7795 0.1584-0.3999 0.3169 0.8588 0.3169-1.029 0.1584 1.314 0.1584-0.9914 0.1584 0.5554 0.1584-0.02258 0.1584-0.1896 0.1584-0.6308 0.1584 0.5823 0.1584-0.7568 0.1584 0.8128 0.1584-0.05403 0.1584 0.09378 0.1584-0.7929 0.1584 1.167 0.1584-0.6348 0.1584 0.9835 0.1584-0.8025 0.1584 0.3789 0.1584-0.423 0.1584 0.05558 0.3169-0.8291 0.4753 1.045 0.1584-0.7537 0.3169 0.5607 0.1584-0.4429 0.1584 0.9448 0.1584-0.8924 0.3169 0.5641 0.1584-0.6762 0.1584 0.4932 0.1584 0.09675 0.1584-0.7791 0.1584 0.3315 0.1584 1.006 0.1584-1.345 0.1584 0.8967 0.1584-0.922 0.1584 0.5738 0.1584 0.1218 0.3169-0.7942 0.3169 1.162 0.1584-1.435 0.1584 1.486 0.1584-0.7213 0.1584-0.03917 0.1584-0.8265 0.1584 1.458 0.1584-0.9251 0.1584 0.1761 0.1584 0.3544 0.1584-0.3174 0.1584 0.9893 0.1584-0.09551 0.1584-0.3369 0.1584-1.066 0.3169 0.78 0.1584-0.9853 0.1584 0.7582 0.1584 1.488 0.1584-1.721 0.1584 0.1366 0.1584-0.1937 0.1584 0.822 0.1584-1.152 0.1584 1.562 0.1584-0.1963 0.1584-0.7818 0.4753 0.676 0.1584-0.7936 0.3169 0.161 0.1584 0.3291 0.1584-0.1361 0.3169-0.4417 0.1584 1.605 0.1584-0.8077 0.1584 1.059 0.1584-0.7852 0.1584-0.01297 0.1584 0.2386 0.1584-0.7094 0.3169 0.04036 0.1584-0.324 0.1584 0.09984 0.1584 0.7168 0.1584-1.661 0.1584 1.002 0.1584-0.033 0.1584 0.3973 0.1584-0.968 0.1584 0.6689 0.1584-0.463 0.3169 0.3129 0.1584-0.7064 0.1584 0.9423 0.1584-0.3881 0.1584 0.6466 0.1584 0.1135 0.1584-1.236 0.3169 1.228 0.3169-1.769 0.3169 2.259 0.1584-1.252 0.3169 0.2115 0.1584-0.8753 0.3169 0.9643 0.1584-0.4534 0.1584 0.522 0.1584-0.2265 0.1584 0.5185 0.3169-0.7144 0.1584-0.19 0.1584 0.5209 0.1584 1.413 0.1584-1.119 0.1584-0.2082 0.1584 0.2187 0.3169-0.2733 0.1584 0.2126 0.1584-0.4713 0.1584 0.0087 0.1584 0.1216 0.1584 0.3753 0.1584-0.6441 0.1584 1.088 0.1584-0.4427 0.1584 0.5914 0.1584-0.3944 0.1584-1.174 0.1584 1.082 0.1584-0.3348 0.1584 0.7972 0.1584-1.149 0.1584 0.8363 0.1584 0.09149 0.3169-0.9847 0.1584-0.3759 0.1584 1.985 0.3169-0.8937 0.1584-0.5173 0.1584 1.077 0.1584-0.8813 0.1584 1.053 0.1584-1.241 0.1584-0.0449 0.1584 0.6934 0.1584-0.7503 0.1584 0.9897 0.1584-1.156 0.1584 0.4909 0.1584 1.462 0.1584-1.982 0.4753 0.9479 0.1584-1.637 0.1584 0.6255 0.1584 0.04106 0.1584-0.54 0.1584 1.335 0.1584-0.4734 0.3169 0.8034 0.1584-0.7682 0.1584 0.01886 0.1584-0.1776 0.1584 0.7827 0.1584-1.009 0.1584 0.5536 0.1584-0.1185 0.1584 0.1263 0.1584-0.2607 0.1584-0.6225 0.3169 0.5642 0.1584-0.3542 0.1584 0.1955 0.1584 0.6738 0.3169-0.6871 0.1584-0.01909 0.1584 0.4444 0.1584-0.09772 0.1584 0.2934 0.1584 0.6279 0.1584-0.6791 0.1584 0.4131 0.3169-1.229 0.1584 1.326 0.1584-0.09115 0.1584-0.3789 0.1584 0.4353 0.1584-0.7322 0.3169-0.0045 0.1584 1.054 0.1584-0.7124 0.1584 0.4986 0.1584-0.8044 0.4753-0.369 0.1584 0.8376 0.1584-0.5534 0.1584 1.067 0.1584-1.024 0.1584 0.01017 0.1584 0.4316 0.1584-0.4156 0.1584 0.3934 0.3169-0.4503 0.1584 0.2372 0.1584-0.7506 0.1584 0.08098 0.1584 0.2793 0.1584-0.2483 0.1584 0.9562 0.1584 0.01052 0.1584-0.8469 0.3169 1.162 0.3169-1.76 0.3169 1.743 0.1584-1.001 0.3169 1.07 0.3169-1.189 0.1584 1.268 0.1584-0.06881 0.1584-0.7586 0.1584 1.37 0.1584-1.49 0.1584-0.09606 0.1584-0.9945 0.4753 1.193 0.1584 1.03 0.1584-1.002 0.1584 0.3495 0.3169-0.3246 0.1584 0.4237 0.3169-0.3597 0.1584-1.198 0.1584 1.331 0.3169-0.3576 0.1584-7.72e-4 0.1584 0.114 0.1584-0.6526 0.1584 0.7582 0.1584-0.07114 0.1584 1.234 0.1584-1.184 0.4753-0.3694 0.1584 1.35 0.1584-1.103 0.3169 1.664 0.1584-1.605 0.1584-0.05491 0.1584 0.4613 0.1584-0.511 0.1584 0.1248 0.1584 0.3468 0.1584-0.299 0.1584 0.4046 0.1584-1.039 0.3169 1.244 0.1584-1.105 0.1584 0.7957 0.1584-0.1652 0.1584 0.5757 0.3169-0.6475 0.1584 0.3012 0.1584-1.028 0.1584 0.3038 0.3169 0.07863 0.1584-0.4085 0.1584 0.652 0.1584-0.1628 0.1584 0.347 0.1584 0.6381 0.3169-1.28 0.1584 0.7426 0.3169-1.251 0.1584 1.126 0.1584 0.08511 0.1584-0.2701 0.1584-0.5518 0.1584 0.8288 0.3169-0.3447 0.1584-0.4818 0.1584 0.9966 0.1584 0.1569 0.1584-0.2176 0.1584-0.7612 0.1584 0.432 0.1584-0.3329 0.1584-0.04245 0.1584 0.3262 0.1584-0.7313 0.1584 0.08178 0.1584-0.5449 0.1584 1.513 0.6338-0.7514 0.3169 1.203 0.1584-1.038 0.1584-0.2229 0.1584 0.6039 0.1584-0.0976 0.1584-0.3272 0.1584 1.065 0.1584-0.527 0.1584 0.6846 0.1584-1.041 0.1584 1.087 0.1584-1.218 0.1584 0.2877 0.1584 0.03593 0.1584 1.508 0.3169-1.948 0.1584 0.3281 0.1584 0.8221 0.3169 213.9h59.26l0.1584-19.69 0.1584 19.69h141.6v0" clip-path="url(#a)" fill="none" stroke="#bfbf00" stroke-linecap="square" stroke-width="2"/>
    <path transform="translate(-13.89 -19.39)" d="m73.83 53.57" clip-path="url(#a)" fill="none"/>
    <path transform="translate(-13.89 -19.39)" d="m73.83 295.5" clip-path="url(#a)" fill="none"/>
    <path d="m43.71 288.2v-266.1" fill="none" stroke="#000" stroke-linecap="square" stroke-width=".8"/>
    <path d="m400.8 288.2v-266.1" fill="none" stroke="#000" stroke-linecap="square" stroke-width=".8"/>
    <path d="m43.71 288.2h357.1" fill="none" stroke="#000" stroke-linecap="square" stroke-width=".8"/>
    <path d="m43.71 22.08h357.1" fill="none" stroke="#000" stroke-linecap="square" stroke-width=".8"/>
    <g transform="matrix(.12 0 0 -.12 199 16.08)" stroke-width=".01562">
        <path d="m9.812 72.91h46.09v-8.312h-36.23v-21.58h34.72v-8.297h-34.72v-26.42h37.11v-8.297h-46.97z"/>
        <path d="m118.1 33.02v-33.02h-8.984v32.72q0 7.766-3.031 11.61-3.031 3.859-9.078 3.859-7.281 0-11.48-4.641-4.203-4.625-4.203-12.64v-30.91h-9.031v54.69h9.031v-8.5q3.234 4.938 7.594 7.375 4.375 2.438 10.09 2.438 9.422 0 14.25-5.828 4.844-5.828 4.844-17.16z"/>
        <path d="m144.9 70.22v-15.53h18.5v-6.984h-18.5v-29.69q0-6.688 1.828-8.594 1.828-1.906 7.453-1.906h9.219v-7.516h-9.219q-10.41 0-14.36 3.875-3.953 3.891-3.953 14.14v29.69h-6.594v6.984h6.594v15.53z"/>
        <path d="m206.9 46.3q-1.516 0.875-3.297 1.281-1.781 0.4219-3.922 0.4219-7.625 0-11.7-4.953-4.078-4.953-4.078-14.23v-28.81h-9.031v54.69h9.031v-8.5q2.844 4.984 7.375 7.391 4.547 2.422 11.05 2.422 0.9219 0 2.047-0.125 1.125-0.1094 2.484-0.3594z"/>
        <path d="m235.2 48.39q-7.219 0-11.42-5.641-4.203-5.641-4.203-15.45t4.172-15.45q4.188-5.641 11.45-5.641 7.188 0 11.38 5.656 4.203 5.672 4.203 15.44 0 9.719-4.203 15.41-4.188 5.688-11.38 5.688zm0 7.609q11.72 0 18.41-7.625 6.703-7.609 6.703-21.08 0-13.42-6.703-21.08-6.688-7.641-18.41-7.641-11.77 0-18.44 7.641-6.656 7.656-6.656 21.08 0 13.47 6.656 21.08 6.672 7.625 18.44 7.625z"/>
        <path d="m283.9 8.203v-29h-9.031v75.48h9.031v-8.297q2.844 4.875 7.156 7.234 4.328 2.375 10.33 2.375 9.969 0 16.19-7.906 6.234-7.906 6.234-20.8t-6.234-20.81q-6.219-7.906-16.19-7.906-6 0-10.33 2.375-4.312 2.375-7.156 7.25zm30.58 19.09q0 9.906-4.078 15.55-4.078 5.641-11.2 5.641-7.141 0-11.22-5.641-4.078-5.641-4.078-15.55t4.078-15.55q4.078-5.641 11.22-5.641 7.125 0 11.2 5.641 4.078 5.641 4.078 15.55z"/>
        <path d="m361.5-5.078q-3.797-9.766-7.422-12.73-3.609-2.984-9.656-2.984h-7.188v7.516h5.281q3.703 0 5.75 1.766 2.062 1.75 4.547 8.297l1.609 4.094-22.11 53.81h9.516l17.09-42.77 17.09 42.77h9.516z"/>
    </g>
    <defs>
        <clipPath id="a">
            <rect x="57.6" y="41.47" width="357.1" height="266.1"/>
        </clipPath>
    </defs>
</svg>
