<?xml version="1.0" encoding="UTF-8" standalone="no"?>
<!-- Created with Inkscape (http://www.inkscape.org/) -->

<svg
   xmlns:dc="http://purl.org/dc/elements/1.1/"
   xmlns:cc="http://creativecommons.org/ns#"
   xmlns:rdf="http://www.w3.org/1999/02/22-rdf-syntax-ns#"
   xmlns:svg="http://www.w3.org/2000/svg"
   xmlns="http://www.w3.org/2000/svg"
   xmlns:sodipodi="http://sodipodi.sourceforge.net/DTD/sodipodi-0.dtd"
   xmlns:inkscape="http://www.inkscape.org/namespaces/inkscape"
   width="68.873001mm"
   height="141.668mm"
   viewBox="0 0 68.873001 141.668"
   version="1.1"
   id="svg8"
   sodipodi:docname="archos_red.svg"
   inkscape:version="0.92.2 (5c3e80d, 2017-08-06)"
   inkscape:export-filename="/home/alexandre/Desktop/archos/archos_red.png"
   inkscape:export-xdpi="90"
   inkscape:export-ydpi="90">
  <defs
     id="defs2" />
  <sodipodi:namedview
     id="base"
     pagecolor="#ffffff"
     bordercolor="#666666"
     borderopacity="1.0"
     inkscape:pageopacity="0.0"
     inkscape:pageshadow="2"
     inkscape:zoom="1.0205357"
     inkscape:cx="-288.63399"
     inkscape:cy="283.27311"
     inkscape:document-units="mm"
     inkscape:current-layer="layer1"
     showgrid="false"
     inkscape:window-width="1920"
     inkscape:window-height="1080"
     inkscape:window-x="0"
     inkscape:window-y="0"
     inkscape:window-maximized="1" />
  <metadata
     id="metadata5">
    <rdf:RDF>
      <cc:Work
         rdf:about="">
        <dc:format>image/svg+xml</dc:format>
        <dc:type
           rdf:resource="http://purl.org/dc/dcmitype/StillImage" />
        <dc:title />
      </cc:Work>
    </rdf:RDF>
  </metadata>
  <g
     inkscape:label="Layer 1"
     inkscape:groupmode="layer"
     id="layer1"
     transform="translate(0,-155.332)">
    <rect
       style="fill:#ff0000;fill-opacity:1;stroke:none;stroke-width:2;stroke-linecap:round;stroke-linejoin:round;stroke-miterlimit:4;stroke-dasharray:none;stroke-dashoffset:0"
       id="rect815"
       width="64.713364"
       height="113.84418"
       x="1.8332398"
       y="167.93991" />
    <path
       id="path870"
       d="m 51.88866,157.13937 c -0.0517,0.0757 -0.0771,0.15379 -0.0651,0.23513 -22.57371,1.83564 -6.21075,1.90835 -29.21202,0.0119 -0.001,-9e-5 -0.1752,0.001 -0.18293,0.001 v 5.17901 c 0,2.11083 2.82771,3.72276 4.24263,3.74603 20.15745,0.33153 1.13211,-0.0491 21.29261,-0.0367 2.03194,10e-4 3.92483,-1.76763 3.92483,-4.20181 z"
       style="fill:#4d4d4d;stroke:#000000;stroke-width:0.26458332px;stroke-linecap:butt;stroke-linejoin:miter;stroke-opacity:1"
       inkscape:connector-curvature="0"
       sodipodi:nodetypes="ccccssccc" />
    <path
       style="fill:#1a1a1a;stroke:#000000;stroke-width:0.26458332px;stroke-linecap:butt;stroke-linejoin:miter;stroke-opacity:1"
       d="m 33.884237,155.46492 c -10.330291,0.0125 -20.586162,0.28603 -30.6430912,0.83302 -1.8643679,0.10141 -3.10847579,2.69316 -3.10885414,3.73259 v 132.95519 c 0,2.11083 2.82771584,3.72275 4.24263604,3.74602 20.1574393,0.33153 40.2802533,-0.0491 60.4407543,-0.0367 2.031939,10e-4 3.924824,-1.76763 3.924824,-4.20181 V 160.49975 c 0,-1.72832 -1.308775,-4.18482 -3.766693,-4.30258 -10.354646,-0.49607 -20.759285,-0.74475 -31.089576,-0.73225 z m 11.814265,4.6762 a 1.7499999,1.7499999 0 0 1 1.750282,1.74976 1.7499999,1.7499999 0 0 1 -1.750282,1.75028 1.7499999,1.7499999 0 0 1 -1.749764,-1.75028 1.7499999,1.7499999 0 0 1 1.749764,-1.74976 z m -16.364892,0.26303 h 9.851597 a 1.0001,1.0001 0 1 1 0,1.99988 H 29.33361 a 1.0001,1.0001 0 1 1 0,-1.99988 z M 5.0586057,171.91197 H 63.814192 V 276.95672 H 5.0586057 Z"
       id="path826"
       inkscape:connector-curvature="0" />
    <path
       style="fill:#808080;stroke:#000000;stroke-width:0.26458332px;stroke-linecap:butt;stroke-linejoin:miter;stroke-opacity:1"
       d="m 68.740506,287.55866 c -0.05174,0.0757 -0.07711,0.15379 -0.06511,0.23513 -22.57371,1.83564 -45.358907,1.90834 -68.36016778,0.0119 -0.001061,-9e-5 -0.17520444,10e-4 -0.18293556,10e-4 v 5.17901 c 0,2.11083 2.82771584,3.72275 4.24263604,3.74602 20.1574393,0.33153 40.2802533,-0.0491 60.4407543,-0.0367 2.031939,10e-4 3.924824,-1.76763 3.924824,-4.20181 z"
       id="path836"
       inkscape:connector-curvature="0" />
    <text
       xml:space="preserve"
       style="font-style:normal;font-weight:normal;font-size:88.19444275px;line-height:1.25;font-family:sans-serif;letter-spacing:0px;word-spacing:0px;fill:#000000;fill-opacity:1;stroke:none;stroke-width:0.26458332"
       x="8.0662546"
       y="177.65608"
       id="text821"><tspan
         sodipodi:role="line"
         id="tspan819"
         x="8.0662546"
         y="177.65608"
         style="font-style:normal;font-variant:normal;font-weight:normal;font-stretch:normal;font-size:4.23333311px;font-family:'Latin Modern Roman';-inkscape-font-specification:'Latin Modern Roman, ';stroke-width:0.26458332">RECOVERY</tspan></text>
  </g>
</svg>
