<?xml version="1.0" encoding="UTF-8" standalone="no"?>
<!-- Created with Inkscape (http://www.inkscape.org/) -->

<svg
   xmlns:dc="http://purl.org/dc/elements/1.1/"
   xmlns:cc="http://creativecommons.org/ns#"
   xmlns:rdf="http://www.w3.org/1999/02/22-rdf-syntax-ns#"
   xmlns:svg="http://www.w3.org/2000/svg"
   xmlns="http://www.w3.org/2000/svg"
   xmlns:sodipodi="http://sodipodi.sourceforge.net/DTD/sodipodi-0.dtd"
   xmlns:inkscape="http://www.inkscape.org/namespaces/inkscape"
   width="256"
   height="360"
   viewBox="0 0 256 360.00001"
   id="svg2"
   version="1.1"
   inkscape:version="0.91 r13725"
   sodipodi:docname="dalek.svg"
   inkscape:export-filename="/home/erdnaxe/dalek.png"
   inkscape:export-xdpi="90"
   inkscape:export-ydpi="90">
  <defs
     id="defs4" />
  <sodipodi:namedview
     id="base"
     pagecolor="#ffffff"
     bordercolor="#666666"
     borderopacity="1.0"
     inkscape:pageopacity="0.0"
     inkscape:pageshadow="2"
     inkscape:zoom="0.98994949"
     inkscape:cx="-213.02945"
     inkscape:cy="176.37696"
     inkscape:document-units="px"
     inkscape:current-layer="layer1"
     showgrid="false"
     inkscape:window-width="1861"
     inkscape:window-height="1025"
     inkscape:window-x="59"
     inkscape:window-y="27"
     inkscape:window-maximized="1"
     units="px" />
  <metadata
     id="metadata7">
    <rdf:RDF>
      <cc:Work
         rdf:about="">
        <dc:format>image/svg+xml</dc:format>
        <dc:type
           rdf:resource="http://purl.org/dc/dcmitype/StillImage" />
        <dc:title></dc:title>
      </cc:Work>
    </rdf:RDF>
  </metadata>
  <g
     inkscape:label="Layer 1"
     inkscape:groupmode="layer"
     id="layer1"
     transform="translate(0,-692.36216)">
    <path
       style="fill:#636157;fill-opacity:1;fill-rule:evenodd;stroke:#000000;stroke-width:2.96920443px;stroke-linecap:butt;stroke-linejoin:miter;stroke-opacity:1"
       d="m 67.412351,831.29415 -30.74205,-19.6246 c 0.842169,-9.71566 0.634538,-19.22121 -13.250897,-25.98933 -9.770785,7.52207 -17.9275423,17.46686 -21.7314666,33.94525 9.7420766,5.87709 19.3374616,9.40564 28.0919016,-0.53039 l 34.452295,19.09421 z"
       id="path4261"
       inkscape:connector-curvature="0"
       sodipodi:nodetypes="ccccccc" />
    <rect
       style="opacity:1;fill:#666552;fill-opacity:1;stroke:#000000;stroke-width:2.96920443;stroke-linecap:round;stroke-linejoin:round;stroke-miterlimit:4;stroke-dasharray:none;stroke-opacity:1"
       id="rect4255"
       width="120.31805"
       height="65.768951"
       x="-196.21107"
       y="757.56927"
       transform="scale(-1,1)" />
    <ellipse
       style="opacity:1;fill:#fe3410;fill-opacity:1;stroke:#000000;stroke-width:2.96920443;stroke-linecap:round;stroke-linejoin:round;stroke-miterlimit:4;stroke-dasharray:none;stroke-opacity:1"
       id="path4166-3"
       cx="-93.242531"
       cy="712.22412"
       transform="scale(-1,1)"
       rx="18.36479"
       ry="18.377239" />
    <path
       style="fill:#969785;fill-opacity:1;fill-rule:evenodd;stroke:#000000;stroke-width:2.96920443px;stroke-linecap:butt;stroke-linejoin:miter;stroke-opacity:1"
       d="m 207.55398,765.4806 c -1.39565,-94.50248 -143.277023,-94.07767 -143.919996,0 z"
       id="path4189"
       inkscape:connector-curvature="0"
       sodipodi:nodetypes="ccc" />
    <ellipse
       style="opacity:1;fill:#fe3410;fill-opacity:1;stroke:#000000;stroke-width:2.96920443;stroke-linecap:round;stroke-linejoin:round;stroke-miterlimit:4;stroke-dasharray:none;stroke-opacity:1"
       id="path4166"
       cx="-177.57066"
       cy="712.97424"
       transform="scale(-1,1)"
       rx="18.36479"
       ry="18.377239" />
    <path
       style="fill:none;fill-rule:evenodd;stroke:#000000;stroke-width:11.8768177;stroke-linecap:round;stroke-linejoin:miter;stroke-miterlimit:4;stroke-dasharray:none;stroke-opacity:1"
       d="m 99.479022,736.61867 -39.752675,0"
       id="path4208"
       inkscape:connector-curvature="0" />
    <ellipse
       cy="736.57678"
       cx="-58.576275"
       id="circle4191"
       style="opacity:1;fill:#edffec;fill-opacity:1;stroke:#000000;stroke-width:2.96920443;stroke-linecap:round;stroke-linejoin:round;stroke-miterlimit:4;stroke-dasharray:none;stroke-opacity:1"
       transform="scale(-1,1)"
       rx="18.36479"
       ry="18.377239" />
    <path
       inkscape:connector-curvature="0"
       id="path4225"
       d="m 51.886438,736.61867 -32.02336,0"
       style="fill:none;fill-rule:evenodd;stroke:#000000;stroke-width:11.8768177;stroke-linecap:round;stroke-linejoin:miter;stroke-miterlimit:4;stroke-dasharray:none;stroke-opacity:1" />
    <ellipse
       cy="736.88397"
       cx="-23.948986"
       id="circle4191-7"
       style="opacity:1;fill:#5e614c;fill-opacity:1;stroke:#000000;stroke-width:2.96920443;stroke-linecap:round;stroke-linejoin:round;stroke-miterlimit:4;stroke-dasharray:none;stroke-opacity:1"
       transform="scale(-1,1)"
       rx="18.36479"
       ry="18.377239" />
    <path
       style="opacity:1;fill:#5e614c;fill-opacity:1;stroke:#000000;stroke-width:2.37536359;stroke-linecap:round;stroke-linejoin:round;stroke-miterlimit:4;stroke-dasharray:none;stroke-opacity:1"
       d="m 16.133181,727.33502 a 9.1431119,9.6797047 0 0 1 9.142288,9.6822 9.1431119,9.6797047 0 0 1 -9.142288,9.67639 9.1431119,9.6797047 0 0 1 -9.1422895,-9.67639 9.1431119,9.6797047 0 0 1 9.1422895,-9.6822 z m -2.44644,3.27186 a 4.3649917,5.3793358 0 0 0 -4.3653297,5.38351 4.3649917,5.3793358 0 0 0 4.3653297,5.37772 4.3649917,5.3793358 0 0 0 4.365357,-5.37772 4.3649917,5.3793358 0 0 0 -4.365357,-5.38351 z"
       id="path4229"
       inkscape:connector-curvature="0" />
    <path
       style="fill:#989987;fill-opacity:1;fill-rule:evenodd;stroke:#000000;stroke-width:5.93840885;stroke-linecap:butt;stroke-linejoin:round;stroke-miterlimit:4;stroke-dasharray:none;stroke-opacity:1"
       d="m 206.28229,813.26031 39.22264,188.82099 -36.57245,22.2767 -145.759753,1.5911 -37.632512,-20.1549 39.752633,-192.53389 z"
       id="path4253"
       inkscape:connector-curvature="0"
       sodipodi:nodetypes="ccccccc" />
    <path
       style="fill:#666552;fill-opacity:1;fill-rule:evenodd;stroke:#000000;stroke-width:2.96920443px;stroke-linecap:butt;stroke-linejoin:round;stroke-opacity:1"
       d="m 254.5154,996.24705 -10.60072,-4.24318 -32.33218,15.91183 -150.00002,0 -32.8622,-17.50305 -10.600691,5.30391 0,31.29334 45.053014,23.8678 142.579527,0 48.76327,-23.8678 z"
       id="path4251"
       inkscape:connector-curvature="0" />
    <path
       style="fill:none;fill-rule:evenodd;stroke:#000000;stroke-width:5.93840885;stroke-linecap:butt;stroke-linejoin:miter;stroke-miterlimit:4;stroke-dasharray:none;stroke-opacity:1"
       d="m 207.87313,798.4097 -143.639633,0"
       id="path4257"
       inkscape:connector-curvature="0" />
    <path
       inkscape:connector-curvature="0"
       id="path4259"
       d="m 207.87313,782.49786 -143.639633,0"
       style="fill:none;fill-rule:evenodd;stroke:#000000;stroke-width:5.93840885;stroke-linecap:butt;stroke-linejoin:miter;stroke-miterlimit:4;stroke-dasharray:none;stroke-opacity:1" />
    <path
       style="fill:#c7c8b6;fill-opacity:1;fill-rule:evenodd;stroke:#000000;stroke-width:4.45380688;stroke-linecap:butt;stroke-linejoin:miter;stroke-miterlimit:4;stroke-dasharray:none;stroke-opacity:1"
       d="m 188.26143,812.99596 6.89047,50.65228 -20.6714,1.59121 -6.75793,-52.24349 z"
       id="path4263"
       inkscape:connector-curvature="0"
       sodipodi:nodetypes="ccccc" />
    <path
       style="fill:#c7c8b6;fill-opacity:1;fill-rule:evenodd;stroke:#000000;stroke-width:4.45380688;stroke-linecap:butt;stroke-linejoin:miter;stroke-miterlimit:4;stroke-dasharray:none;stroke-opacity:1"
       d="m 148.50876,813.26075 -23.85161,0 0,51.9787 23.32159,0 z"
       id="path4265"
       inkscape:connector-curvature="0" />
    <path
       style="fill:none;fill-rule:evenodd;stroke:#000000;stroke-width:5.93840885;stroke-linecap:butt;stroke-linejoin:miter;stroke-miterlimit:4;stroke-dasharray:none;stroke-opacity:1"
       d="m 219.53286,875.31692 c -55.1237,13.08306 -110.24739,12.02228 -165.371088,0"
       id="path4267"
       inkscape:connector-curvature="0"
       sodipodi:nodetypes="cc" />
    <path
       style="opacity:1;fill:#c7c8b6;fill-opacity:1;stroke:#000000;stroke-width:3.10146284;stroke-linecap:round;stroke-linejoin:round;stroke-miterlimit:4;stroke-dasharray:none;stroke-opacity:1"
       d="m 195.1535,894.058 a 20.492064,20.505956 0 0 1 20.49331,20.5072 20.492064,20.505956 0 0 1 -20.49331,20.50723 20.492064,20.505956 0 0 1 -20.49333,-20.50723 20.492064,20.505956 0 0 1 20.49333,-20.5072 z m -116.606136,0 A 20.492064,20.505956 0 0 1 99.034885,914.5652 20.492064,20.505956 0 0 1 78.547364,935.07243 20.492064,20.505956 0 0 1 58.054036,914.5652 20.492064,20.505956 0 0 1 78.547364,894.058 Z m 58.303056,4.66415 a 19.931223,19.944734 0 0 1 19.93101,19.94449 19.931223,19.944734 0 0 1 -19.93101,19.94452 19.931223,19.944734 0 0 1 -19.93099,-19.94452 19.931223,19.944734 0 0 1 19.93099,-19.94449 z m 69.96136,49.43776 a 20.492064,20.505956 0 0 1 20.49334,20.50723 20.492064,20.505956 0 0 1 -20.49334,20.50726 20.492064,20.505956 0 0 1 -20.4875,-20.50726 20.492064,20.505956 0 0 1 20.4875,-20.50723 z m -139.928506,0 A 20.492064,20.505956 0 0 1 87.376602,968.66714 20.492064,20.505956 0 0 1 66.883274,989.1744 20.492064,20.505956 0 0 1 46.389931,968.66714 20.492064,20.505956 0 0 1 66.883274,948.15991 Z m 69.967146,7.07167 a 19.931223,19.944734 0 0 1 19.93101,19.94447 19.931223,19.944734 0 0 1 -19.93101,19.94465 19.931223,19.944734 0 0 1 -19.93099,-19.94465 19.931223,19.944734 0 0 1 19.93099,-19.94447 z"
       id="path4269"
       inkscape:connector-curvature="0" />
    <path
       style="fill:none;fill-rule:evenodd;stroke:#000000;stroke-width:8.90761375;stroke-linecap:round;stroke-linejoin:miter;stroke-miterlimit:4;stroke-dasharray:none;stroke-opacity:1"
       d="m 5.5562417,849.30333 36.1674203,0"
       id="path4299"
       inkscape:connector-curvature="0"
       sodipodi:nodetypes="cc" />
    <path
       style="fill:#fffefc;fill-opacity:1;fill-rule:evenodd;stroke:#000000;stroke-width:2.96920443px;stroke-linecap:butt;stroke-linejoin:miter;stroke-opacity:1"
       d="m 100.75335,849.49085 c -0.16414,-7.26742 -0.828279,-12.57029 -10.306767,-12.37651 l -62.402816,0 c -9.601357,0.45043 -8.693624,6.63688 -9.369806,11.62641 0.367728,4.79187 0.279897,11.80208 8.995005,13.12661 l 63.527209,0 c 5.928918,-0.53583 9.343465,-4.3186 9.557175,-12.37651 z"
       id="path4297"
       inkscape:connector-curvature="0"
       sodipodi:nodetypes="ccccccc" />
    <path
       style="fill:#000000;fill-opacity:1"
       d="m 60.403768,1036.1572 c -0.9751,-1.7739 0.415442,-4.1027 2.545307,-3.2911 3.610331,0 7.220675,0 10.831005,0 0.974342,-3.3305 -3.501512,-2.4796 -5.499067,-3.4253 -2.344392,-0.5741 -4.903008,-0.6959 -6.594393,-2.6413 -2.014345,-0.758 -1.558016,-2.717 -1.563631,-4.4515 1.519564,-1.5372 2.717062,-3.6219 5.10925,-3.6755 4.089712,-0.5248 8.304991,0.088 12.444688,0.017 2.175226,0.051 4.350452,0.1003 6.525665,0.1511 -0.01239,1.9053 0.640648,4.4549 -2.151376,3.6633 -3.715433,0.1153 -7.43088,0.2312 -11.146312,0.3468 -0.797897,2.4206 1.564153,2.3381 3.292132,2.7577 2.550318,0.7092 5.305487,1.0347 7.72959,1.9801 1.100556,1.2707 3.228014,2.0941 2.635368,4.1019 0.569125,2.3607 -2.212068,3.2723 -3.420548,4.8642 -2.133513,0.6688 -4.736402,0.1917 -7.047724,0.4264 -4.418452,0.103 -8.836889,0.2066 -13.255355,0.3101 -0.144848,-0.3779 -0.289723,-0.7556 -0.434599,-1.1333 z m 27.572513,0.2477 c -2.224248,-0.6422 -0.906454,-3.3217 -1.257902,-5.041 0,-3.7562 0,-7.5125 0,-11.2688 1.248282,-1.5082 2.863424,-1.9633 4.764216,-1.5985 5.240474,0.1153 10.480945,0.229 15.721435,0.3434 -0.0124,1.9057 0.63996,4.4393 -2.1491,3.7159 -3.59641,0.2 -7.192812,0.3999 -10.789215,0.5999 0,3.1169 0,6.2337 0,9.3506 4.215307,0.1389 8.430595,0.2777 12.645885,0.4166 1.3061,1.6295 0.31989,3.4711 -1.26927,4.258 -5.46939,-0.014 -10.938781,-0.029 -16.408163,-0.043 -0.419296,-0.2443 -0.838605,-0.4888 -1.257886,-0.7331 z m 28.919149,-2.9993 c -1.56308,-1.2576 -8.80409,-5.6683 -3.65959,-5.6297 2.41758,-0.4102 5.14037,-0.2511 7.37329,-1.0058 1.85085,-1.3046 1.30566,-2.609 -0.23327,-3.9136 -3.43222,-0.14 -6.86444,-0.2801 -10.29666,-0.4201 0.0124,-1.9053 -0.64056,-4.4527 2.15113,-3.6712 3.5009,0.045 7.12365,-0.5842 10.54731,-0.1112 1.79845,0.8066 3.95699,1.1644 4.75768,3.2152 1.12826,1.2352 1.4779,3.7942 -0.0216,4.8389 -1.47354,1.3905 -2.94706,2.7812 -4.4206,4.172 1.7511,1.7722 5.66242,3.1206 5.93005,5.1697 -0.58039,1.9672 -2.87676,0.8545 -4.39847,1.1325 -1.99217,0.4486 -3.52299,-0.5381 -4.96747,-1.7937 -0.92059,-0.6609 -1.84118,-1.3217 -2.76179,-1.9824 z m 14.19363,2.5198 c -2.06312,-1.4418 -0.74881,-4.1096 -0.97939,-6.2167 0.2467,-3.1122 0.003,-6.4121 0.55781,-9.4064 0.91299,-1.9734 2.68029,-2.073 4.61948,-1.7954 5.01491,0.1113 10.02985,0.2222 15.04476,0.3331 -0.0124,1.9057 0.63983,4.4373 -2.14869,3.7232 -3.34767,0.1975 -6.69532,0.3951 -10.04295,0.5926 -0.25734,2.3638 -1.06747,4.8187 -0.99842,7.129 0.66371,1.8424 1.66587,3.1414 3.80796,2.6101 3.12737,0.1098 6.25474,0.2206 9.3821,0.3308 -0.0124,1.9052 0.6408,4.4606 -2.1519,3.6442 -5.30582,0.1181 -10.61164,0.2351 -15.91744,0.353 -0.39111,-0.4325 -0.78221,-0.865 -1.17332,-1.2975 z m 22.94803,-0.059 c -2.09505,-1.5273 -0.86225,-4.3375 -1.1896,-6.5463 0,-2.8597 0,-5.7194 0,-8.5791 1.23818,-1.3148 2.38175,-2.8581 4.4115,-2.2605 4.96443,0 9.92885,0 14.89327,0 4.0776,2.5473 0.52497,6.8808 -0.65807,10.2174 -1.20956,2.2949 -1.7941,5.0798 -3.40544,7.0597 -1.34624,1.6586 -3.3027,1.5149 -5.24131,1.4243 -2.57567,-0.1514 -5.4202,0.3036 -7.82708,-0.2283 -0.32775,-0.3624 -0.65551,-0.7248 -0.98327,-1.0872 z m 11.27848,-7.4531 c 0.41659,-1.703 2.80331,-3.4948 1.41321,-5.1169 -1.2293,-1.1128 -3.58203,-0.2092 -5.26922,-0.5003 -3.06223,-0.1916 -1.83619,4.6964 -2.14292,6.848 -0.37086,1.5133 1.25577,3.6903 2.86023,3.063 1.97127,-0.022 2.0812,-3.0016 3.1387,-4.2938 z m 6.52294,7.8002 c -0.85562,-1.7631 1.07933,-3.4653 1.46738,-5.2012 1.56435,-3.1875 2.57808,-6.7733 4.49607,-9.7053 1.58499,-1.1594 2.75569,-3.4043 5.00362,-2.8265 6.75913,0 13.51824,0 20.27737,0 1.84327,1.716 4.03958,3.1792 4.65496,5.7753 1.60491,3.6837 3.20978,7.3677 4.81468,11.0515 -0.17421,2.979 -3.67648,1.7962 -5.58,1.3036 -1.84457,-1.1733 -1.91721,-3.8444 -3.0097,-5.6535 -0.51727,-1.3579 -4.50305,-10.6291 -4.39375,-5.9041 0,3.4674 0,6.9348 0,10.4022 -1.09006,1.8297 -2.90899,1.8986 -4.82777,1.7264 -1.62953,-1.2068 -1.79132,-3.0483 -1.68538,-4.9452 -0.10515,-3.0269 -0.21027,-6.054 -0.31539,-9.0809 -2.46571,-0.6777 -1.16165,2.5503 -1.57643,3.9976 -0.22176,2.775 0.0528,5.7388 -0.47972,8.3951 -0.839,1.9424 -2.70273,1.7009 -4.48489,1.6334 -1.94592,-1.1355 -1.8614,-3.1126 -1.7251,-5.1111 0,-2.6519 0,-5.304 0,-7.9562 -2.10666,0.065 -2.37623,2.1308 -3.10613,3.6957 -1.46689,3.2121 -2.61372,6.6856 -4.97664,9.3716 -1.36557,-0.3852 -4.29245,0.9168 -4.55318,-0.9684 z m -75.775798,-7.3039 c -1.836535,-1.0679 0.670155,-3.7057 2.173795,-3.2426 2.744613,0.1222 5.489243,0.2437 8.233873,0.3656 0.76982,1.8491 0.47877,3.6143 -1.73022,3.9348 -2.59422,0.014 -5.188418,0.015 -7.782624,0.021 -0.298283,-0.3595 -0.596568,-0.7191 -0.894824,-1.0788 z"
       id="path4162"
       inkscape:connector-curvature="0" />
  </g>
</svg>
