<?xml version="1.0" encoding="UTF-8" standalone="no"?>
<!-- Generator: Adobe Illustrator 18.0.0, SVG Export Plug-In . SVG Version: 6.00 Build 0)  -->

<svg
   xmlns:dc="http://purl.org/dc/elements/1.1/"
   xmlns:cc="http://creativecommons.org/ns#"
   xmlns:rdf="http://www.w3.org/1999/02/22-rdf-syntax-ns#"
   xmlns:svg="http://www.w3.org/2000/svg"
   xmlns="http://www.w3.org/2000/svg"
   xmlns:sodipodi="http://sodipodi.sourceforge.net/DTD/sodipodi-0.dtd"
   xmlns:inkscape="http://www.inkscape.org/namespaces/inkscape"
   version="1.1"
   id="Layer_1"
   x="0px"
   y="0px"
   viewBox="0 0 48 48"
   enable-background="new 0 0 1650 1231.9"
   xml:space="preserve"
   sodipodi:docname="icon-code.svg"
   width="48"
   height="48"
   inkscape:version="0.92.2 (5c3e80d, 2017-08-06)"><metadata
     id="metadata1863"><rdf:RDF><cc:Work
         rdf:about=""><dc:format>image/svg+xml</dc:format><dc:type
           rdf:resource="http://purl.org/dc/dcmitype/StillImage" /><dc:title></dc:title></cc:Work></rdf:RDF></metadata><defs
     id="defs1861"><clipPath
       id="clip1"><path
         id="path1865"
         d="m 1467,0 h 92.6016 V 88 H 1467 Z m 0,0"
         inkscape:connector-curvature="0" /></clipPath><clipPath
       id="clip2"><path
         id="path1868"
         d="m 1495,0 h 64.6016 V 66 H 1495 Z m 0,0"
         inkscape:connector-curvature="0" /></clipPath><clipPath
       id="clip3"><path
         id="path1871"
         d="m 1509,0 h 50.6016 V 66 H 1509 Z m 0,0"
         inkscape:connector-curvature="0" /></clipPath><clipPath
       id="clip4"><path
         id="path1874"
         d="m 1485,193 h 74.6016 v 73 H 1485 Z m 0,0"
         inkscape:connector-curvature="0" /></clipPath><clipPath
       id="clip5"><path
         id="path1877"
         d="m 1466,199 h 93.6016 V 303 H 1466 Z m 0,0"
         inkscape:connector-curvature="0" /></clipPath><clipPath
       id="clip6"><path
         id="path1880"
         d="m 1470,203 h 89.6016 v 96 H 1470 Z m 0,0"
         inkscape:connector-curvature="0" /></clipPath><clipPath
       id="clip7"><path
         id="path1883"
         d="m 1473,216 h 86.6016 v 70 H 1473 Z m 0,0"
         inkscape:connector-curvature="0" /></clipPath><clipPath
       id="clip8"><path
         id="path1886"
         d="m 1516,231 h 43.6016 v 66 H 1516 Z m 0,0"
         inkscape:connector-curvature="0" /></clipPath><clipPath
       id="clip9"><path
         id="path1889"
         d="m 1518,232 h 41.6016 v 64 H 1518 Z m 0,0"
         inkscape:connector-curvature="0" /></clipPath><clipPath
       id="clip10"><path
         id="path1892"
         d="m 1498,181 h 61.6016 v 70 H 1498 Z m 0,0"
         inkscape:connector-curvature="0" /></clipPath><clipPath
       id="clip11"><path
         id="path1895"
         d="m 1502,291 h 57.6016 v 84 H 1502 Z m 0,0"
         inkscape:connector-curvature="0" /></clipPath><clipPath
       id="clip12"><path
         id="path1898"
         d="m 1470,296 h 89.6016 V 407 H 1470 Z m 0,0"
         inkscape:connector-curvature="0" /></clipPath><clipPath
       id="clip13"><path
         id="path1901"
         d="m 1495,634 h 64.6016 v 65 H 1495 Z m 0,0"
         inkscape:connector-curvature="0" /></clipPath><clipPath
       id="clip14"><path
         id="path1904"
         d="m 1166,756 h 78 v 49.66016 h -78 z m 0,0"
         inkscape:connector-curvature="0" /></clipPath><clipPath
       id="clip15"><path
         id="path1907"
         d="m 1167,743 h 75 v 62.66016 h -75 z m 0,0"
         inkscape:connector-curvature="0" /></clipPath><clipPath
       id="clip16"><path
         id="path1910"
         d="m 1084,799 h 31 v 6.66016 h -31 z m 0,0"
         inkscape:connector-curvature="0" /></clipPath><clipPath
       id="clip17"><path
         id="path1913"
         d="m 720,733 h 115 v 72.66016 H 720 Z m 0,0"
         inkscape:connector-curvature="0" /></clipPath><clipPath
       id="clip18"><path
         id="path1916"
         d="m 613,712 h 119 v 93.66016 H 613 Z m 0,0"
         inkscape:connector-curvature="0" /></clipPath><clipPath
       id="clip19"><path
         id="path1919"
         d="m 622,721 h 101 v 84.66016 H 622 Z m 0,0"
         inkscape:connector-curvature="0" /></clipPath><clipPath
       id="clip20"><path
         id="path1922"
         d="m 612,741 h 91 v 64.66016 h -91 z m 0,0"
         inkscape:connector-curvature="0" /></clipPath><clipPath
       id="clip21"><path
         id="path1925"
         d="m 400,720 h 119 v 85.66016 H 400 Z m 0,0"
         inkscape:connector-curvature="0" /></clipPath><clipPath
       id="clip22"><path
         id="path1928"
         d="m 317,726 h 95 v 79.66016 h -95 z m 0,0"
         inkscape:connector-curvature="0" /></clipPath><clipPath
       id="clip23"><path
         id="path1931"
         d="m 293,744 h 77 v 61.66016 h -77 z m 0,0"
         inkscape:connector-curvature="0" /></clipPath><clipPath
       id="clip24"><path
         id="path1934"
         d="m 301,753 h 60 v 52.66016 h -60 z m 0,0"
         inkscape:connector-curvature="0" /></clipPath><clipPath
       id="clip25"><path
         id="path1937"
         d="m 303,722 h 90 v 83.66016 h -90 z m 0,0"
         inkscape:connector-curvature="0" /></clipPath><clipPath
       id="clip26"><path
         id="path1940"
         d="m 210,762 h 69 v 43.66016 h -69 z m 0,0"
         inkscape:connector-curvature="0" /></clipPath><clipPath
       id="clip27"><path
         id="path1943"
         d="m 88,761 h 69 v 44.66016 H 88 Z m 0,0"
         inkscape:connector-curvature="0" /></clipPath><clipPath
       id="clip28"><path
         id="path1946"
         d="m 116,761 h 69 v 44.66016 h -69 z m 0,0"
         inkscape:connector-curvature="0" /></clipPath><clipPath
       id="clip29"><path
         id="path1949"
         d="m 0,761 h 45 v 44.66016 H 0 Z m 0,0"
         inkscape:connector-curvature="0" /></clipPath><clipPath
       id="clip30"><path
         id="path1952"
         d="m 16,761 h 69 v 44.66016 H 16 Z m 0,0"
         inkscape:connector-curvature="0" /></clipPath><clipPath
       id="clip31"><path
         id="path1955"
         d="m 0,761 h 65 v 44.66016 H 0 Z m 0,0"
         inkscape:connector-curvature="0" /></clipPath><clipPath
       id="clip32"><path
         id="path1958"
         d="m 0,741 h 79 v 64.66016 H 0 Z m 0,0"
         inkscape:connector-curvature="0" /></clipPath><clipPath
       id="clip33"><path
         id="path1961"
         d="m 1478,502 h 81.6016 V 622 H 1478 Z m 0,0"
         inkscape:connector-curvature="0" /></clipPath></defs><sodipodi:namedview
     pagecolor="#ffffff"
     bordercolor="#666666"
     borderopacity="1"
     objecttolerance="10"
     gridtolerance="10"
     guidetolerance="10"
     inkscape:pageopacity="0"
     inkscape:pageshadow="2"
     inkscape:window-width="1920"
     inkscape:window-height="1053"
     id="namedview1859"
     showgrid="false"
     inkscape:zoom="6.089697"
     inkscape:cx="-34.482134"
     inkscape:cy="32.715803"
     inkscape:window-x="0"
     inkscape:window-y="27"
     inkscape:window-maximized="1"
     inkscape:current-layer="Layer_1" /><g
     id="g3185"
     transform="matrix(0.55384622,0,0,0.55384622,-906.05881,-15.696925)"><path
       id="path1968"
       d="m 1711.2518,29.445887 c -5.9687,0.895834 -4.9791,7.473958 -4.9791,7.473958 v 8.421874 h 2.625 c 5.0729,0 7.875,-2.875 7.875,-8.083332 0,-4.328125 -1.9584,-7.015625 -5.5209,-7.8125"
       style="fill:#bd8219;fill-opacity:1;fill-rule:nonzero;stroke:none;stroke-width:1.33333325"
       inkscape:connector-curvature="0" /><path
       id="path1970"
       d="m 1697.9393,113.67505 c -5.1562,0 -6.6666,-3.48959 -6.6666,-8 0,-4.51042 1.3437,-7.916669 6.5,-7.916669 l -46.5,-0.08333 V 39.008386 c 0,-5.156248 1.5104,-9.333332 6.6666,-9.333332 l 54.5,0.166667 c -7.6666,0 -6.5,7.499999 -6.5,7.499999 v 66.99999 c 0,5.15104 -1.5104,9.33334 -6.6666,9.33334 h -1.3334"
       style="fill:#fab83a;fill-opacity:1;fill-rule:nonzero;stroke:none;stroke-width:1.33333325"
       inkscape:connector-curvature="0" /><path
       id="path1972"
       d="m 1697.9393,113.67505 c -5.1562,0 -6.6666,-3.48959 -6.6666,-8 0,-4.51042 1.3437,-7.916669 6.5,-7.916669 l -49.1667,-0.08333 c -5.1563,0 -6.6667,2.843749 -6.6667,7.999999 0,5.15104 1.5104,8 6.6667,8 h 49.3333"
       style="fill:#e8b30f;fill-opacity:1;fill-rule:nonzero;stroke:none;stroke-width:1.33333325"
       inkscape:connector-curvature="0" /><path
       id="path1974"
       d="M 1651.2727,96.674994 V 39.008333 c 0,-5.15624 1.5104,-9.333333 6.6666,-9.333333 h 50.6667 c 5.1562,0 8,2.84376 8,8 0,5.151052 -2.8438,7.999999 -8,7.999999 h -2.8333"
       style="fill:none;stroke:#1e1c1c;stroke-width:2.66666651;stroke-linecap:butt;stroke-linejoin:miter;stroke-miterlimit:10;stroke-opacity:1"
       inkscape:connector-curvature="0" /><path
       id="path1976"
       d="m 1697.9393,113.67499 c -5.1562,0 -6.6666,-3.48957 -6.6666,-8 0,-4.51041 1.3437,-7.916663 6.5,-7.916663 l -49.1667,-0.08333 c -5.1563,0 -6.6667,2.843753 -6.6667,7.999993 0,5.15106 1.5104,8 6.6667,8 h 50.6667 c 5.1562,0 6.6666,-4.18228 6.6666,-9.33333 V 37.341666 c 0,0 -1.1666,-7.499999 6.5,-7.499999"
       style="fill:none;stroke:#1e1c1c;stroke-width:2.66666651;stroke-linecap:butt;stroke-linejoin:miter;stroke-miterlimit:10;stroke-opacity:1"
       inkscape:connector-curvature="0" /><path
       id="path1978"
       d="m 1669.9393,61.674997 -9.3333,10.666666 9.3333,10.666665"
       style="fill:none;stroke:#1e1c1c;stroke-width:2.66666651;stroke-linecap:butt;stroke-linejoin:miter;stroke-miterlimit:10;stroke-opacity:1"
       inkscape:connector-curvature="0" /><path
       id="path1980"
       d="m 1685.9393,83.008328 9.3334,-10.666665 -9.3334,-10.666666"
       style="fill:none;stroke:#1e1c1c;stroke-width:2.66666651;stroke-linecap:butt;stroke-linejoin:miter;stroke-miterlimit:10;stroke-opacity:1"
       inkscape:connector-curvature="0" /><path
       id="path1982"
       d="m 1674.0487,84.341662 8,-23.999998"
       style="fill:none;stroke:#1e1c1c;stroke-width:2.66666651;stroke-linecap:butt;stroke-linejoin:miter;stroke-miterlimit:10;stroke-opacity:1"
       inkscape:connector-curvature="0" /></g></svg>