<?xml version="1.0" encoding="UTF-8" standalone="no"?>
<!-- Generator: Adobe Illustrator 18.0.0, SVG Export Plug-In . SVG Version: 6.00 Build 0)  -->

<svg
   xmlns:dc="http://purl.org/dc/elements/1.1/"
   xmlns:cc="http://creativecommons.org/ns#"
   xmlns:rdf="http://www.w3.org/1999/02/22-rdf-syntax-ns#"
   xmlns:svg="http://www.w3.org/2000/svg"
   xmlns="http://www.w3.org/2000/svg"
   xmlns:sodipodi="http://sodipodi.sourceforge.net/DTD/sodipodi-0.dtd"
   xmlns:inkscape="http://www.inkscape.org/namespaces/inkscape"
   version="1.1"
   id="Layer_1"
   x="0px"
   y="0px"
   viewBox="0 0 48.000001 47.999999"
   enable-background="new 0 0 1650 1231.9"
   xml:space="preserve"
   sodipodi:docname="icon_parameters.svg"
   width="48"
   height="48"
   inkscape:version="0.92.2 (5c3e80d, 2017-08-06)"><metadata
     id="metadata1863"><rdf:RDF><cc:Work
         rdf:about=""><dc:format>image/svg+xml</dc:format><dc:type
           rdf:resource="http://purl.org/dc/dcmitype/StillImage" /><dc:title></dc:title></cc:Work></rdf:RDF></metadata><defs
     id="defs1861"><clipPath
       id="clip1"><path
         id="path1865"
         d="m 1467,0 h 92.6016 V 88 H 1467 Z m 0,0"
         inkscape:connector-curvature="0" /></clipPath><clipPath
       id="clip2"><path
         id="path1868"
         d="m 1495,0 h 64.6016 V 66 H 1495 Z m 0,0"
         inkscape:connector-curvature="0" /></clipPath><clipPath
       id="clip3"><path
         id="path1871"
         d="m 1509,0 h 50.6016 V 66 H 1509 Z m 0,0"
         inkscape:connector-curvature="0" /></clipPath><clipPath
       id="clip4"><path
         id="path1874"
         d="m 1485,193 h 74.6016 v 73 H 1485 Z m 0,0"
         inkscape:connector-curvature="0" /></clipPath><clipPath
       id="clip5"><path
         id="path1877"
         d="m 1466,199 h 93.6016 V 303 H 1466 Z m 0,0"
         inkscape:connector-curvature="0" /></clipPath><clipPath
       id="clip6"><path
         id="path1880"
         d="m 1470,203 h 89.6016 v 96 H 1470 Z m 0,0"
         inkscape:connector-curvature="0" /></clipPath><clipPath
       id="clip7"><path
         id="path1883"
         d="m 1473,216 h 86.6016 v 70 H 1473 Z m 0,0"
         inkscape:connector-curvature="0" /></clipPath><clipPath
       id="clip8"><path
         id="path1886"
         d="m 1516,231 h 43.6016 v 66 H 1516 Z m 0,0"
         inkscape:connector-curvature="0" /></clipPath><clipPath
       id="clip9"><path
         id="path1889"
         d="m 1518,232 h 41.6016 v 64 H 1518 Z m 0,0"
         inkscape:connector-curvature="0" /></clipPath><clipPath
       id="clip10"><path
         id="path1892"
         d="m 1498,181 h 61.6016 v 70 H 1498 Z m 0,0"
         inkscape:connector-curvature="0" /></clipPath><clipPath
       id="clip11"><path
         id="path1895"
         d="m 1502,291 h 57.6016 v 84 H 1502 Z m 0,0"
         inkscape:connector-curvature="0" /></clipPath><clipPath
       id="clip12"><path
         id="path1898"
         d="m 1470,296 h 89.6016 V 407 H 1470 Z m 0,0"
         inkscape:connector-curvature="0" /></clipPath><clipPath
       id="clip13"><path
         id="path1901"
         d="m 1495,634 h 64.6016 v 65 H 1495 Z m 0,0"
         inkscape:connector-curvature="0" /></clipPath><clipPath
       id="clip14"><path
         id="path1904"
         d="m 1166,756 h 78 v 49.66016 h -78 z m 0,0"
         inkscape:connector-curvature="0" /></clipPath><clipPath
       id="clip15"><path
         id="path1907"
         d="m 1167,743 h 75 v 62.66016 h -75 z m 0,0"
         inkscape:connector-curvature="0" /></clipPath><clipPath
       id="clip16"><path
         id="path1910"
         d="m 1084,799 h 31 v 6.66016 h -31 z m 0,0"
         inkscape:connector-curvature="0" /></clipPath><clipPath
       id="clip17"><path
         id="path1913"
         d="m 720,733 h 115 v 72.66016 H 720 Z m 0,0"
         inkscape:connector-curvature="0" /></clipPath><clipPath
       id="clip18"><path
         id="path1916"
         d="m 613,712 h 119 v 93.66016 H 613 Z m 0,0"
         inkscape:connector-curvature="0" /></clipPath><clipPath
       id="clip19"><path
         id="path1919"
         d="m 622,721 h 101 v 84.66016 H 622 Z m 0,0"
         inkscape:connector-curvature="0" /></clipPath><clipPath
       id="clip20"><path
         id="path1922"
         d="m 612,741 h 91 v 64.66016 h -91 z m 0,0"
         inkscape:connector-curvature="0" /></clipPath><clipPath
       id="clip21"><path
         id="path1925"
         d="m 400,720 h 119 v 85.66016 H 400 Z m 0,0"
         inkscape:connector-curvature="0" /></clipPath><clipPath
       id="clip22"><path
         id="path1928"
         d="m 317,726 h 95 v 79.66016 h -95 z m 0,0"
         inkscape:connector-curvature="0" /></clipPath><clipPath
       id="clip23"><path
         id="path1931"
         d="m 293,744 h 77 v 61.66016 h -77 z m 0,0"
         inkscape:connector-curvature="0" /></clipPath><clipPath
       id="clip24"><path
         id="path1934"
         d="m 301,753 h 60 v 52.66016 h -60 z m 0,0"
         inkscape:connector-curvature="0" /></clipPath><clipPath
       id="clip25"><path
         id="path1937"
         d="m 303,722 h 90 v 83.66016 h -90 z m 0,0"
         inkscape:connector-curvature="0" /></clipPath><clipPath
       id="clip26"><path
         id="path1940"
         d="m 210,762 h 69 v 43.66016 h -69 z m 0,0"
         inkscape:connector-curvature="0" /></clipPath><clipPath
       id="clip27"><path
         id="path1943"
         d="m 88,761 h 69 v 44.66016 H 88 Z m 0,0"
         inkscape:connector-curvature="0" /></clipPath><clipPath
       id="clip28"><path
         id="path1946"
         d="m 116,761 h 69 v 44.66016 h -69 z m 0,0"
         inkscape:connector-curvature="0" /></clipPath><clipPath
       id="clip29"><path
         id="path1949"
         d="m 0,761 h 45 v 44.66016 H 0 Z m 0,0"
         inkscape:connector-curvature="0" /></clipPath><clipPath
       id="clip30"><path
         id="path1952"
         d="m 16,761 h 69 v 44.66016 H 16 Z m 0,0"
         inkscape:connector-curvature="0" /></clipPath><clipPath
       id="clip31"><path
         id="path1955"
         d="m 0,761 h 65 v 44.66016 H 0 Z m 0,0"
         inkscape:connector-curvature="0" /></clipPath><clipPath
       id="clip32"><path
         id="path1958"
         d="m 0,741 h 79 v 64.66016 H 0 Z m 0,0"
         inkscape:connector-curvature="0" /></clipPath><clipPath
       id="clip33"><path
         id="path1961"
         d="m 1478,502 h 81.6016 V 622 H 1478 Z m 0,0"
         inkscape:connector-curvature="0" /></clipPath></defs><sodipodi:namedview
     pagecolor="#ffffff"
     bordercolor="#666666"
     borderopacity="1"
     objecttolerance="10"
     gridtolerance="10"
     guidetolerance="10"
     inkscape:pageopacity="0"
     inkscape:pageshadow="2"
     inkscape:window-width="1920"
     inkscape:window-height="1053"
     id="namedview1859"
     showgrid="false"
     inkscape:zoom="16.3125"
     inkscape:cx="24"
     inkscape:cy="24"
     inkscape:window-x="0"
     inkscape:window-y="27"
     inkscape:window-maximized="1"
     inkscape:current-layer="Layer_1" /><g
     id="g2722"
     transform="matrix(0.56250004,0,0,0.56250004,-1962.8852,-333.86308)"><path
       id="path3214"
       d="m 3571.4703,648.07604 -6.7186,-4.50521 c 0.5364,-2.375 0.8281,-4.83855 0.8281,-7.36979 0,-2.53125 -0.2917,-4.9948 -0.8281,-7.36459 l 6.7186,-4.51041 c 1.323,-0.76043 1.7866,-2.40625 1.0574,-3.68229 l -6.6667,-11.54688 c -0.7344,-1.27604 -2.4011,-1.69271 -3.724,-0.93749 l -7.2656,3.57812 c -3.6249,-3.35418 -7.9844,-5.91667 -12.8281,-7.40104 l -0.4635,-6.80208 c 0,-1.47396 -1.2032,-2.66667 -2.6667,-2.66667 h -13.3333 c -1.4792,0 -2.6667,1.19271 -2.6667,2.66667 l -0.4688,6.80208 c -4.8385,1.48437 -9.2134,4.04686 -12.8385,7.40104 l -7.2656,-3.57292 c -1.3073,-0.76042 -2.974,-0.34375 -3.7188,0.93229 l -6.6667,11.54688 c -0.7344,1.27604 -0.2552,2.92186 1.0522,3.68229 l 6.7344,4.51041 c -0.5366,2.36979 -0.8282,4.83334 -0.8282,7.36459 0,2.53124 0.2916,4.99479 0.8282,7.36979 l -6.7344,4.50521 c -1.3074,0.76041 -1.7866,2.41145 -1.0522,3.68749 l 6.6667,11.54688 c 0.7448,1.27604 2.4115,1.69271 3.7188,0.93229 l 7.2656,-3.57292 c 3.6251,3.35416 8,5.91146 12.8385,7.39583 l 0.4688,6.80209 c 0,1.47395 1.1875,2.66667 2.6667,2.66667 h 13.3333 c 1.4635,0 2.6667,-1.19272 2.6667,-2.66667 l 0.4635,-6.80209 c 4.8437,-1.48437 9.2032,-4.04167 12.8281,-7.39583 l 7.2656,3.57292 c 1.3229,0.76042 2.9896,0.34375 3.724,-0.93229 l 6.6667,-11.54688 c 0.7292,-1.27604 0.2656,-2.92708 -1.0574,-3.68749"
       style="fill:#338282;fill-opacity:1;fill-rule:nonzero;stroke:none;stroke-width:1.33333325"
       inkscape:connector-curvature="0" /><path
       id="path3216"
       d="m 3571.4703,648.07599 -6.7186,-4.50521 c 0.5364,-2.375 0.8281,-4.83855 0.8281,-7.36979 0,-2.53125 -0.2917,-4.9948 -0.8281,-7.36458 l 6.7186,-4.51042 c 1.323,-0.76042 1.7866,-2.40625 1.0574,-3.68229 l -6.6667,-11.54688 c -0.7344,-1.27604 -2.4011,-1.6927 -3.724,-0.93749 l -7.2656,3.57812 c -3.6249,-3.35417 -7.9844,-5.91667 -12.8281,-7.40104 l -0.4635,-6.80208 c 0,-1.47396 -1.2032,-2.66667 -2.6667,-2.66667 h -13.3333 c -1.4792,0 -2.6667,1.19271 -2.6667,2.66667 l -0.4688,6.80208 c -4.8385,1.48437 -9.2134,4.04687 -12.8385,7.40104 l -7.2656,-3.57292 c -1.3073,-0.76041 -2.974,-0.34375 -3.7188,0.93229 l -6.6667,11.54688 c -0.7344,1.27604 -0.2552,2.92187 1.0522,3.68229 l 6.7344,4.51042 c -0.5366,2.36978 -0.8282,4.83333 -0.8282,7.36458 0,2.53124 0.2916,4.99479 0.8282,7.36979 l -6.7344,4.50521 c -1.3074,0.76042 -1.7866,2.41146 -1.0522,3.68749 l 6.6667,11.54688 c 0.7448,1.27604 2.4115,1.69271 3.7188,0.9323 l 7.2656,-3.57292 c 3.6251,3.35416 8,5.91145 12.8385,7.39582 l 0.4688,6.8021 c 0,1.47394 1.1875,2.66666 2.6667,2.66666 h 13.3333 c 1.4635,0 2.6667,-1.19272 2.6667,-2.66666 l 0.4635,-6.8021 c 4.8437,-1.48437 9.2032,-4.04166 12.8281,-7.39582 l 7.2656,3.57292 c 1.3229,0.76041 2.9896,0.34374 3.724,-0.9323 l 6.6667,-11.54688 c 0.7292,-1.27603 0.2656,-2.92707 -1.0574,-3.68749 z m 0,0"
       style="fill:none;stroke:#1e1c1c;stroke-width:2.66666651;stroke-linecap:butt;stroke-linejoin:round;stroke-miterlimit:10;stroke-opacity:1"
       inkscape:connector-curvature="0" /><path
       id="path3218"
       d="m 3532.2465,660.20099 c -13.2552,0 -24,-10.7448 -24,-24"
       style="fill:#338282;fill-opacity:1;fill-rule:nonzero;stroke:#1e1c1c;stroke-width:2.66666651;stroke-linecap:butt;stroke-linejoin:round;stroke-miterlimit:10;stroke-opacity:1"
       inkscape:connector-curvature="0" /><path
       id="path3220"
       d="m 3532.2465,612.201 c 13.2552,0 24,10.74999 24,23.99999"
       style="fill:#338282;fill-opacity:1;fill-rule:nonzero;stroke:#1e1c1c;stroke-width:2.66666651;stroke-linecap:butt;stroke-linejoin:round;stroke-miterlimit:10;stroke-opacity:1"
       inkscape:connector-curvature="0" /><path
       id="path3222"
       d="m 3544.2465,636.20104 c 0,6.6302 -5.3751,12 -12,12 -6.6251,0 -12,-5.3698 -12,-12 0,-6.625 5.3749,-12 12,-12 6.6249,0 12,5.375 12,12"
       style="fill:#fab83a;fill-opacity:1;fill-rule:nonzero;stroke:none;stroke-width:1.33333325"
       inkscape:connector-curvature="0" /><path
       id="path3224"
       d="m 3544.2465,636.20099 c 0,6.6302 -5.3751,12 -12,12 -6.6251,0 -12,-5.3698 -12,-12 0,-6.625 5.3749,-12 12,-12 6.6249,0 12,5.375 12,12 z m 0,0"
       style="fill:none;stroke:#1e1c1c;stroke-width:2.66666651;stroke-linecap:butt;stroke-linejoin:round;stroke-miterlimit:10;stroke-opacity:1"
       inkscape:connector-curvature="0" /></g></svg>