<?xml version="1.0" encoding="UTF-8" standalone="no"?>
<!-- Generator: Adobe Illustrator 18.0.0, SVG Export Plug-In . SVG Version: 6.00 Build 0)  -->

<svg
   xmlns:dc="http://purl.org/dc/elements/1.1/"
   xmlns:cc="http://creativecommons.org/ns#"
   xmlns:rdf="http://www.w3.org/1999/02/22-rdf-syntax-ns#"
   xmlns:svg="http://www.w3.org/2000/svg"
   xmlns="http://www.w3.org/2000/svg"
   xmlns:sodipodi="http://sodipodi.sourceforge.net/DTD/sodipodi-0.dtd"
   xmlns:inkscape="http://www.inkscape.org/namespaces/inkscape"
   version="1.1"
   id="Layer_1"
   x="0px"
   y="0px"
   viewBox="0 0 48 48"
   enable-background="new 0 0 1650 1231.9"
   xml:space="preserve"
   sodipodi:docname="icon-tv.svg"
   width="48"
   height="48"
   inkscape:version="0.92.2 (5c3e80d, 2017-08-06)"><metadata
     id="metadata1863"><rdf:RDF><cc:Work
         rdf:about=""><dc:format>image/svg+xml</dc:format><dc:type
           rdf:resource="http://purl.org/dc/dcmitype/StillImage" /><dc:title></dc:title></cc:Work></rdf:RDF></metadata><defs
     id="defs1861"><clipPath
       id="clip1"><path
         id="path1865"
         d="m 1467,0 h 92.6016 V 88 H 1467 Z m 0,0"
         inkscape:connector-curvature="0" /></clipPath><clipPath
       id="clip2"><path
         id="path1868"
         d="m 1495,0 h 64.6016 V 66 H 1495 Z m 0,0"
         inkscape:connector-curvature="0" /></clipPath><clipPath
       id="clip3"><path
         id="path1871"
         d="m 1509,0 h 50.6016 V 66 H 1509 Z m 0,0"
         inkscape:connector-curvature="0" /></clipPath><clipPath
       id="clip4"><path
         id="path1874"
         d="m 1485,193 h 74.6016 v 73 H 1485 Z m 0,0"
         inkscape:connector-curvature="0" /></clipPath><clipPath
       id="clip5"><path
         id="path1877"
         d="m 1466,199 h 93.6016 V 303 H 1466 Z m 0,0"
         inkscape:connector-curvature="0" /></clipPath><clipPath
       id="clip6"><path
         id="path1880"
         d="m 1470,203 h 89.6016 v 96 H 1470 Z m 0,0"
         inkscape:connector-curvature="0" /></clipPath><clipPath
       id="clip7"><path
         id="path1883"
         d="m 1473,216 h 86.6016 v 70 H 1473 Z m 0,0"
         inkscape:connector-curvature="0" /></clipPath><clipPath
       id="clip8"><path
         id="path1886"
         d="m 1516,231 h 43.6016 v 66 H 1516 Z m 0,0"
         inkscape:connector-curvature="0" /></clipPath><clipPath
       id="clip9"><path
         id="path1889"
         d="m 1518,232 h 41.6016 v 64 H 1518 Z m 0,0"
         inkscape:connector-curvature="0" /></clipPath><clipPath
       id="clip10"><path
         id="path1892"
         d="m 1498,181 h 61.6016 v 70 H 1498 Z m 0,0"
         inkscape:connector-curvature="0" /></clipPath><clipPath
       id="clip11"><path
         id="path1895"
         d="m 1502,291 h 57.6016 v 84 H 1502 Z m 0,0"
         inkscape:connector-curvature="0" /></clipPath><clipPath
       id="clip12"><path
         id="path1898"
         d="m 1470,296 h 89.6016 V 407 H 1470 Z m 0,0"
         inkscape:connector-curvature="0" /></clipPath><clipPath
       id="clip13"><path
         id="path1901"
         d="m 1495,634 h 64.6016 v 65 H 1495 Z m 0,0"
         inkscape:connector-curvature="0" /></clipPath><clipPath
       id="clip14"><path
         id="path1904"
         d="m 1166,756 h 78 v 49.66016 h -78 z m 0,0"
         inkscape:connector-curvature="0" /></clipPath><clipPath
       id="clip15"><path
         id="path1907"
         d="m 1167,743 h 75 v 62.66016 h -75 z m 0,0"
         inkscape:connector-curvature="0" /></clipPath><clipPath
       id="clip16"><path
         id="path1910"
         d="m 1084,799 h 31 v 6.66016 h -31 z m 0,0"
         inkscape:connector-curvature="0" /></clipPath><clipPath
       id="clip17"><path
         id="path1913"
         d="m 720,733 h 115 v 72.66016 H 720 Z m 0,0"
         inkscape:connector-curvature="0" /></clipPath><clipPath
       id="clip18"><path
         id="path1916"
         d="m 613,712 h 119 v 93.66016 H 613 Z m 0,0"
         inkscape:connector-curvature="0" /></clipPath><clipPath
       id="clip19"><path
         id="path1919"
         d="m 622,721 h 101 v 84.66016 H 622 Z m 0,0"
         inkscape:connector-curvature="0" /></clipPath><clipPath
       id="clip20"><path
         id="path1922"
         d="m 612,741 h 91 v 64.66016 h -91 z m 0,0"
         inkscape:connector-curvature="0" /></clipPath><clipPath
       id="clip21"><path
         id="path1925"
         d="m 400,720 h 119 v 85.66016 H 400 Z m 0,0"
         inkscape:connector-curvature="0" /></clipPath><clipPath
       id="clip22"><path
         id="path1928"
         d="m 317,726 h 95 v 79.66016 h -95 z m 0,0"
         inkscape:connector-curvature="0" /></clipPath><clipPath
       id="clip23"><path
         id="path1931"
         d="m 293,744 h 77 v 61.66016 h -77 z m 0,0"
         inkscape:connector-curvature="0" /></clipPath><clipPath
       id="clip24"><path
         id="path1934"
         d="m 301,753 h 60 v 52.66016 h -60 z m 0,0"
         inkscape:connector-curvature="0" /></clipPath><clipPath
       id="clip25"><path
         id="path1937"
         d="m 303,722 h 90 v 83.66016 h -90 z m 0,0"
         inkscape:connector-curvature="0" /></clipPath><clipPath
       id="clip26"><path
         id="path1940"
         d="m 210,762 h 69 v 43.66016 h -69 z m 0,0"
         inkscape:connector-curvature="0" /></clipPath><clipPath
       id="clip27"><path
         id="path1943"
         d="m 88,761 h 69 v 44.66016 H 88 Z m 0,0"
         inkscape:connector-curvature="0" /></clipPath><clipPath
       id="clip28"><path
         id="path1946"
         d="m 116,761 h 69 v 44.66016 h -69 z m 0,0"
         inkscape:connector-curvature="0" /></clipPath><clipPath
       id="clip29"><path
         id="path1949"
         d="m 0,761 h 45 v 44.66016 H 0 Z m 0,0"
         inkscape:connector-curvature="0" /></clipPath><clipPath
       id="clip30"><path
         id="path1952"
         d="m 16,761 h 69 v 44.66016 H 16 Z m 0,0"
         inkscape:connector-curvature="0" /></clipPath><clipPath
       id="clip31"><path
         id="path1955"
         d="m 0,761 h 65 v 44.66016 H 0 Z m 0,0"
         inkscape:connector-curvature="0" /></clipPath><clipPath
       id="clip32"><path
         id="path1958"
         d="m 0,741 h 79 v 64.66016 H 0 Z m 0,0"
         inkscape:connector-curvature="0" /></clipPath><clipPath
       id="clip33"><path
         id="path1961"
         d="m 1478,502 h 81.6016 V 622 H 1478 Z m 0,0"
         inkscape:connector-curvature="0" /></clipPath></defs><sodipodi:namedview
     pagecolor="#ffffff"
     bordercolor="#666666"
     borderopacity="1"
     objecttolerance="10"
     gridtolerance="10"
     guidetolerance="10"
     inkscape:pageopacity="0"
     inkscape:pageshadow="2"
     inkscape:window-width="1920"
     inkscape:window-height="1053"
     id="namedview1859"
     showgrid="false"
     inkscape:zoom="19.5"
     inkscape:cx="-5.3589744"
     inkscape:cy="11.384616"
     inkscape:window-x="0"
     inkscape:window-y="27"
     inkscape:window-maximized="1"
     inkscape:current-layer="Layer_1" /><g
     id="g3199"
     transform="matrix(0.5454546,0,0,0.5454546,-1981.1318,-166.61103)"><path
       id="path2442"
       d="m 3691.5277,332.56044 c 0,5.46875 -7.2031,9.89583 -16.0834,9.89583 -8.8801,0 -16.0677,-4.42708 -16.0677,-9.89583 0,-5.46354 7.1876,-9.89062 16.0677,-9.89062 8.8803,0 16.0834,4.42708 16.0834,9.89062"
       style="fill:#425963;fill-opacity:1;fill-rule:nonzero;stroke:none;stroke-width:1.33333325"
       inkscape:connector-curvature="0" /><g
       transform="matrix(1.3333332,0,0,1.3333332,1640.606,26.404221)"
       id="g2446"
       clip-path="url(#clip4)"
       style="clip-rule:nonzero"><path
         id="path2444"
         transform="matrix(0.1,0,0,-0.1,0,805.66)"
         d="m 15381.914,5760.4281 c 0,-41.0156 -54.023,-74.2187 -120.625,-74.2187 -66.601,0 -120.508,33.2031 -120.508,74.2187 0,40.9766 53.907,74.1797 120.508,74.1797 66.602,0 120.625,-33.2031 120.625,-74.1797 z m 0,0"
         style="fill:none;stroke:#1e1c1c;stroke-width:20;stroke-linecap:butt;stroke-linejoin:miter;stroke-miterlimit:10;stroke-opacity:1"
         inkscape:connector-curvature="0" /></g><path
       id="path2448"
       d="m 3718.7413,389.45106 c 0,1.36458 -1.1095,2.47395 -2.4844,2.47395 h -80.3855 c -1.3593,0 -2.4635,-1.10937 -2.4635,-2.47395 v -56.89062 c 0,-1.36458 1.1042,-2.46876 2.4635,-2.46876 h 80.3855 c 1.3749,0 2.4844,1.10418 2.4844,2.46876 v 56.89062"
       style="fill:#ca9e47;fill-opacity:1;fill-rule:nonzero;stroke:none;stroke-width:1.33333325"
       inkscape:connector-curvature="0" /><g
       transform="matrix(1.3333332,0,0,1.3333332,1640.606,26.404221)"
       id="g2452"
       clip-path="url(#clip5)"
       style="clip-rule:nonzero"><path
         id="path2450"
         transform="matrix(0.1,0,0,-0.1,0,805.66)"
         d="m 15586.016,5333.7484 c 0,-10.2343 -8.321,-18.5546 -18.633,-18.5546 h -602.891 c -10.195,0 -18.476,8.3203 -18.476,18.5546 v 426.6797 c 0,10.2344 8.281,18.5157 18.476,18.5157 h 602.891 c 10.312,0 18.633,-8.2813 18.633,-18.5157 z m 0,0"
         style="fill:none;stroke:#1e1c1c;stroke-width:20;stroke-linecap:butt;stroke-linejoin:miter;stroke-miterlimit:10;stroke-opacity:1"
         inkscape:connector-curvature="0" /></g><path
       id="path2454"
       d="m 3694.0069,384.50315 c 0,1.36978 -1.1094,2.47395 -2.4792,2.47395 h -50.7083 c -1.3595,0 -2.4688,-1.10417 -2.4688,-2.47395 v -46.9948 c 0,-1.36457 1.1093,-2.47395 2.4688,-2.47395 h 50.7083 c 1.3698,0 2.4792,1.10938 2.4792,2.47395 v 46.9948"
       style="fill:#f3f3a8;fill-opacity:1;fill-rule:nonzero;stroke:none;stroke-width:1.33333325"
       inkscape:connector-curvature="0" /><g
       transform="matrix(1.3333332,0,0,1.3333332,1640.606,26.404221)"
       id="g2458"
       clip-path="url(#clip6)"
       style="clip-rule:nonzero"><path
         id="path2456"
         transform="matrix(0.1,0,0,-0.1,0,805.66)"
         d="m 15400.508,5370.8578 c 0,-10.2734 -8.32,-18.5547 -18.594,-18.5547 h -380.312 c -10.196,0 -18.516,8.2813 -18.516,18.5547 v 352.461 c 0,10.2343 8.32,18.5546 18.516,18.5546 h 380.312 c 10.274,0 18.594,-8.3203 18.594,-18.5546 z m 0,0"
         style="fill:none;stroke:#1e1c1c;stroke-width:20;stroke-linecap:butt;stroke-linejoin:miter;stroke-miterlimit:10;stroke-opacity:1"
         inkscape:connector-curvature="0" /></g><g
       transform="matrix(1.3333332,0,0,1.3333332,1640.606,26.404221)"
       id="g2462"
       clip-path="url(#clip7)"
       style="clip-rule:nonzero"><path
         id="path2460"
         transform="matrix(0.1,0,0,-0.1,0,805.66)"
         d="m 15020.195,5547.0688 h 46.407 l 46.289,-64.9219 46.406,64.9219 h 46.406 l 64.883,64.9218 74.219,-64.9218"
         style="fill:none;stroke:#1e1c1c;stroke-width:20;stroke-linecap:butt;stroke-linejoin:miter;stroke-miterlimit:10;stroke-opacity:1"
         inkscape:connector-curvature="0" /></g><path
       id="path2464"
       d="m 3698.9547,342.45622 h 14.8386"
       style="fill:none;stroke:#1e1c1c;stroke-width:2.66666651;stroke-linecap:butt;stroke-linejoin:miter;stroke-miterlimit:10;stroke-opacity:1"
       inkscape:connector-curvature="0" /><path
       id="path2466"
       d="m 3698.9547,347.40414 h 14.8386"
       style="fill:none;stroke:#1e1c1c;stroke-width:2.66666651;stroke-linecap:butt;stroke-linejoin:miter;stroke-miterlimit:10;stroke-opacity:1"
       inkscape:connector-curvature="0" /><path
       id="path2468"
       d="m 3698.9547,337.5083 h 14.8386"
       style="fill:none;stroke:#1e1c1c;stroke-width:2.66666651;stroke-linecap:butt;stroke-linejoin:miter;stroke-miterlimit:10;stroke-opacity:1"
       inkscape:connector-curvature="0" /><path
       id="path2470"
       d="m 3712.5537,378.32085 c 0,3.41667 -2.776,6.1823 -6.1875,6.1823 -3.4115,0 -6.1875,-2.76563 -6.1875,-6.1823 0,-3.41666 2.776,-6.18229 6.1875,-6.18229 3.4115,0 6.1875,2.76563 6.1875,6.18229"
       style="fill:#a8cc3d;fill-opacity:1;fill-rule:nonzero;stroke:none;stroke-width:1.33333325"
       inkscape:connector-curvature="0" /><g
       transform="matrix(1.3333332,0,0,1.3333332,1640.606,26.404221)"
       id="g2474"
       clip-path="url(#clip8)"
       style="clip-rule:nonzero"><path
         id="path2472"
         transform="matrix(0.1,0,0,-0.1,0,805.66)"
         d="m 15539.609,5417.225 c 0,-25.625 -20.82,-46.3672 -46.406,-46.3672 -25.586,0 -46.406,20.7422 -46.406,46.3672 0,25.625 20.82,46.3672 46.406,46.3672 25.586,0 46.406,-20.7422 46.406,-46.3672 z m 0,0"
         style="fill:none;stroke:#1e1c1c;stroke-width:20;stroke-linecap:butt;stroke-linejoin:miter;stroke-miterlimit:10;stroke-opacity:1"
         inkscape:connector-curvature="0" /></g><g
       transform="matrix(1.3333332,0,0,1.3333332,1640.606,26.404221)"
       id="g2478"
       clip-path="url(#clip9)"
       style="clip-rule:nonzero"><path
         id="path2476"
         transform="matrix(0.1,0,0,-0.1,0,805.66)"
         d="m 15521.016,5445.0375 -55.625,-55.625"
         style="fill:none;stroke:#1e1c1c;stroke-width:20;stroke-linecap:butt;stroke-linejoin:miter;stroke-miterlimit:10;stroke-opacity:1"
         inkscape:connector-curvature="0" /></g><path
       id="path2480"
       d="m 3658.137,306.59164 16.0833,16.07813"
       style="fill:none;stroke:#1e1c1c;stroke-width:2.66666651;stroke-linecap:butt;stroke-linejoin:miter;stroke-miterlimit:10;stroke-opacity:1"
       inkscape:connector-curvature="0" /><g
       transform="matrix(1.3333332,0,0,1.3333332,1640.606,26.404221)"
       id="g2484"
       clip-path="url(#clip10)"
       style="clip-rule:nonzero"><path
         id="path2482"
         transform="matrix(0.1,0,0,-0.1,0,805.66)"
         d="m 15270.586,5834.6078 120.625,120.586"
         style="fill:none;stroke:#1e1c1c;stroke-width:20;stroke-linecap:butt;stroke-linejoin:miter;stroke-miterlimit:10;stroke-opacity:1"
         inkscape:connector-curvature="0" /></g></g></svg>