<?xml version="1.0" encoding="UTF-8" standalone="no"?>
<!-- Generator: Adobe Illustrator 18.0.0, SVG Export Plug-In . SVG Version: 6.00 Build 0)  -->

<svg
   xmlns:dc="http://purl.org/dc/elements/1.1/"
   xmlns:cc="http://creativecommons.org/ns#"
   xmlns:rdf="http://www.w3.org/1999/02/22-rdf-syntax-ns#"
   xmlns:svg="http://www.w3.org/2000/svg"
   xmlns="http://www.w3.org/2000/svg"
   xmlns:sodipodi="http://sodipodi.sourceforge.net/DTD/sodipodi-0.dtd"
   xmlns:inkscape="http://www.inkscape.org/namespaces/inkscape"
   version="1.1"
   id="Layer_1"
   x="0px"
   y="0px"
   viewBox="0 0 48 48"
   enable-background="new 0 0 1650 1231.9"
   xml:space="preserve"
   sodipodi:docname="icon-map.svg"
   width="48"
   height="48"
   inkscape:version="0.92.4 5da689c313, 2019-01-14"><metadata
     id="metadata1863"><rdf:RDF><cc:Work
         rdf:about=""><dc:format>image/svg+xml</dc:format><dc:type
           rdf:resource="http://purl.org/dc/dcmitype/StillImage" /><dc:title /></cc:Work></rdf:RDF></metadata><defs
     id="defs1861"><clipPath
       id="clip1"><path
         id="path1865"
         d="m 1467,0 h 92.6016 V 88 H 1467 Z m 0,0"
         inkscape:connector-curvature="0" /></clipPath><clipPath
       id="clip2"><path
         id="path1868"
         d="m 1495,0 h 64.6016 V 66 H 1495 Z m 0,0"
         inkscape:connector-curvature="0" /></clipPath><clipPath
       id="clip3"><path
         id="path1871"
         d="m 1509,0 h 50.6016 V 66 H 1509 Z m 0,0"
         inkscape:connector-curvature="0" /></clipPath><clipPath
       id="clip4"><path
         id="path1874"
         d="m 1485,193 h 74.6016 v 73 H 1485 Z m 0,0"
         inkscape:connector-curvature="0" /></clipPath><clipPath
       id="clip5"><path
         id="path1877"
         d="m 1466,199 h 93.6016 V 303 H 1466 Z m 0,0"
         inkscape:connector-curvature="0" /></clipPath><clipPath
       id="clip6"><path
         id="path1880"
         d="m 1470,203 h 89.6016 v 96 H 1470 Z m 0,0"
         inkscape:connector-curvature="0" /></clipPath><clipPath
       id="clip7"><path
         id="path1883"
         d="m 1473,216 h 86.6016 v 70 H 1473 Z m 0,0"
         inkscape:connector-curvature="0" /></clipPath><clipPath
       id="clip8"><path
         id="path1886"
         d="m 1516,231 h 43.6016 v 66 H 1516 Z m 0,0"
         inkscape:connector-curvature="0" /></clipPath><clipPath
       id="clip9"><path
         id="path1889"
         d="m 1518,232 h 41.6016 v 64 H 1518 Z m 0,0"
         inkscape:connector-curvature="0" /></clipPath><clipPath
       id="clip10"><path
         id="path1892"
         d="m 1498,181 h 61.6016 v 70 H 1498 Z m 0,0"
         inkscape:connector-curvature="0" /></clipPath><clipPath
       id="clip11"><path
         id="path1895"
         d="m 1502,291 h 57.6016 v 84 H 1502 Z m 0,0"
         inkscape:connector-curvature="0" /></clipPath><clipPath
       id="clip12"><path
         id="path1898"
         d="m 1470,296 h 89.6016 V 407 H 1470 Z m 0,0"
         inkscape:connector-curvature="0" /></clipPath><clipPath
       id="clip13"><path
         id="path1901"
         d="m 1495,634 h 64.6016 v 65 H 1495 Z m 0,0"
         inkscape:connector-curvature="0" /></clipPath><clipPath
       id="clip14"><path
         id="path1904"
         d="m 1166,756 h 78 v 49.66016 h -78 z m 0,0"
         inkscape:connector-curvature="0" /></clipPath><clipPath
       id="clip15"><path
         id="path1907"
         d="m 1167,743 h 75 v 62.66016 h -75 z m 0,0"
         inkscape:connector-curvature="0" /></clipPath><clipPath
       id="clip16"><path
         id="path1910"
         d="m 1084,799 h 31 v 6.66016 h -31 z m 0,0"
         inkscape:connector-curvature="0" /></clipPath><clipPath
       id="clip17"><path
         id="path1913"
         d="m 720,733 h 115 v 72.66016 H 720 Z m 0,0"
         inkscape:connector-curvature="0" /></clipPath><clipPath
       id="clip18"><path
         id="path1916"
         d="m 613,712 h 119 v 93.66016 H 613 Z m 0,0"
         inkscape:connector-curvature="0" /></clipPath><clipPath
       id="clip19"><path
         id="path1919"
         d="m 622,721 h 101 v 84.66016 H 622 Z m 0,0"
         inkscape:connector-curvature="0" /></clipPath><clipPath
       id="clip20"><path
         id="path1922"
         d="m 612,741 h 91 v 64.66016 h -91 z m 0,0"
         inkscape:connector-curvature="0" /></clipPath><clipPath
       id="clip21"><path
         id="path1925"
         d="m 400,720 h 119 v 85.66016 H 400 Z m 0,0"
         inkscape:connector-curvature="0" /></clipPath><clipPath
       id="clip22"><path
         id="path1928"
         d="m 317,726 h 95 v 79.66016 h -95 z m 0,0"
         inkscape:connector-curvature="0" /></clipPath><clipPath
       id="clip23"><path
         id="path1931"
         d="m 293,744 h 77 v 61.66016 h -77 z m 0,0"
         inkscape:connector-curvature="0" /></clipPath><clipPath
       id="clip24"><path
         id="path1934"
         d="m 301,753 h 60 v 52.66016 h -60 z m 0,0"
         inkscape:connector-curvature="0" /></clipPath><clipPath
       id="clip25"><path
         id="path1937"
         d="m 303,722 h 90 v 83.66016 h -90 z m 0,0"
         inkscape:connector-curvature="0" /></clipPath><clipPath
       id="clip26"><path
         id="path1940"
         d="m 210,762 h 69 v 43.66016 h -69 z m 0,0"
         inkscape:connector-curvature="0" /></clipPath><clipPath
       id="clip27"><path
         id="path1943"
         d="m 88,761 h 69 v 44.66016 H 88 Z m 0,0"
         inkscape:connector-curvature="0" /></clipPath><clipPath
       id="clip28"><path
         id="path1946"
         d="m 116,761 h 69 v 44.66016 h -69 z m 0,0"
         inkscape:connector-curvature="0" /></clipPath><clipPath
       id="clip29"><path
         id="path1949"
         d="m 0,761 h 45 v 44.66016 H 0 Z m 0,0"
         inkscape:connector-curvature="0" /></clipPath><clipPath
       id="clip30"><path
         id="path1952"
         d="m 16,761 h 69 v 44.66016 H 16 Z m 0,0"
         inkscape:connector-curvature="0" /></clipPath><clipPath
       id="clip31"><path
         id="path1955"
         d="m 0,761 h 65 v 44.66016 H 0 Z m 0,0"
         inkscape:connector-curvature="0" /></clipPath><clipPath
       id="clip32"><path
         id="path1958"
         d="m 0,741 h 79 v 64.66016 H 0 Z m 0,0"
         inkscape:connector-curvature="0" /></clipPath><clipPath
       id="clip33"><path
         id="path1961"
         d="m 1478,502 h 81.6016 V 622 H 1478 Z m 0,0"
         inkscape:connector-curvature="0" /></clipPath><clipPath
       id="clip1-5"><path
         inkscape:connector-curvature="0"
         d="m 1467,0 h 92.6016 V 88 H 1467 Z m 0,0"
         id="path1865-3" /></clipPath><clipPath
       id="clip2-5"><path
         inkscape:connector-curvature="0"
         d="m 1495,0 h 64.6016 V 66 H 1495 Z m 0,0"
         id="path1868-6" /></clipPath><clipPath
       id="clip3-2"><path
         inkscape:connector-curvature="0"
         d="m 1509,0 h 50.6016 V 66 H 1509 Z m 0,0"
         id="path1871-9" /></clipPath><clipPath
       id="clip4-1"><path
         inkscape:connector-curvature="0"
         d="m 1485,193 h 74.6016 v 73 H 1485 Z m 0,0"
         id="path1874-2" /></clipPath><clipPath
       id="clip5-7"><path
         inkscape:connector-curvature="0"
         d="m 1466,199 h 93.6016 V 303 H 1466 Z m 0,0"
         id="path1877-0" /></clipPath><clipPath
       id="clip6-9"><path
         inkscape:connector-curvature="0"
         d="m 1470,203 h 89.6016 v 96 H 1470 Z m 0,0"
         id="path1880-3" /></clipPath><clipPath
       id="clip7-6"><path
         inkscape:connector-curvature="0"
         d="m 1473,216 h 86.6016 v 70 H 1473 Z m 0,0"
         id="path1883-0" /></clipPath><clipPath
       id="clip8-6"><path
         inkscape:connector-curvature="0"
         d="m 1516,231 h 43.6016 v 66 H 1516 Z m 0,0"
         id="path1886-2" /></clipPath><clipPath
       id="clip9-6"><path
         inkscape:connector-curvature="0"
         d="m 1518,232 h 41.6016 v 64 H 1518 Z m 0,0"
         id="path1889-1" /></clipPath><clipPath
       id="clip10-8"><path
         inkscape:connector-curvature="0"
         d="m 1498,181 h 61.6016 v 70 H 1498 Z m 0,0"
         id="path1892-7" /></clipPath><clipPath
       id="clip11-9"><path
         inkscape:connector-curvature="0"
         d="m 1502,291 h 57.6016 v 84 H 1502 Z m 0,0"
         id="path1895-2" /></clipPath><clipPath
       id="clip12-0"><path
         inkscape:connector-curvature="0"
         d="m 1470,296 h 89.6016 V 407 H 1470 Z m 0,0"
         id="path1898-2" /></clipPath><clipPath
       id="clip13-3"><path
         inkscape:connector-curvature="0"
         d="m 1495,634 h 64.6016 v 65 H 1495 Z m 0,0"
         id="path1901-7" /></clipPath><clipPath
       id="clip14-5"><path
         inkscape:connector-curvature="0"
         d="m 1166,756 h 78 v 49.66016 h -78 z m 0,0"
         id="path1904-9" /></clipPath><clipPath
       id="clip15-2"><path
         inkscape:connector-curvature="0"
         d="m 1167,743 h 75 v 62.66016 h -75 z m 0,0"
         id="path1907-2" /></clipPath><clipPath
       id="clip16-8"><path
         inkscape:connector-curvature="0"
         d="m 1084,799 h 31 v 6.66016 h -31 z m 0,0"
         id="path1910-9" /></clipPath><clipPath
       id="clip17-7"><path
         inkscape:connector-curvature="0"
         d="m 720,733 h 115 v 72.66016 H 720 Z m 0,0"
         id="path1913-3" /></clipPath><clipPath
       id="clip18-6"><path
         inkscape:connector-curvature="0"
         d="m 613,712 h 119 v 93.66016 H 613 Z m 0,0"
         id="path1916-1" /></clipPath><clipPath
       id="clip19-2"><path
         inkscape:connector-curvature="0"
         d="m 622,721 h 101 v 84.66016 H 622 Z m 0,0"
         id="path1919-9" /></clipPath><clipPath
       id="clip20-3"><path
         inkscape:connector-curvature="0"
         d="m 612,741 h 91 v 64.66016 h -91 z m 0,0"
         id="path1922-1" /></clipPath><clipPath
       id="clip21-9"><path
         inkscape:connector-curvature="0"
         d="m 400,720 h 119 v 85.66016 H 400 Z m 0,0"
         id="path1925-4" /></clipPath><clipPath
       id="clip22-7"><path
         inkscape:connector-curvature="0"
         d="m 317,726 h 95 v 79.66016 h -95 z m 0,0"
         id="path1928-8" /></clipPath><clipPath
       id="clip23-4"><path
         inkscape:connector-curvature="0"
         d="m 293,744 h 77 v 61.66016 h -77 z m 0,0"
         id="path1931-5" /></clipPath><clipPath
       id="clip24-0"><path
         inkscape:connector-curvature="0"
         d="m 301,753 h 60 v 52.66016 h -60 z m 0,0"
         id="path1934-3" /></clipPath><clipPath
       id="clip25-6"><path
         inkscape:connector-curvature="0"
         d="m 303,722 h 90 v 83.66016 h -90 z m 0,0"
         id="path1937-1" /></clipPath><clipPath
       id="clip26-0"><path
         inkscape:connector-curvature="0"
         d="m 210,762 h 69 v 43.66016 h -69 z m 0,0"
         id="path1940-6" /></clipPath><clipPath
       id="clip27-3"><path
         inkscape:connector-curvature="0"
         d="m 88,761 h 69 v 44.66016 H 88 Z m 0,0"
         id="path1943-2" /></clipPath><clipPath
       id="clip28-0"><path
         inkscape:connector-curvature="0"
         d="m 116,761 h 69 v 44.66016 h -69 z m 0,0"
         id="path1946-6" /></clipPath><clipPath
       id="clip29-1"><path
         inkscape:connector-curvature="0"
         d="m 0,761 h 45 v 44.66016 H 0 Z m 0,0"
         id="path1949-5" /></clipPath><clipPath
       id="clip30-5"><path
         inkscape:connector-curvature="0"
         d="m 16,761 h 69 v 44.66016 H 16 Z m 0,0"
         id="path1952-4" /></clipPath><clipPath
       id="clip31-7"><path
         inkscape:connector-curvature="0"
         d="m 0,761 h 65 v 44.66016 H 0 Z m 0,0"
         id="path1955-6" /></clipPath><clipPath
       id="clip32-5"><path
         inkscape:connector-curvature="0"
         d="m 0,741 h 79 v 64.66016 H 0 Z m 0,0"
         id="path1958-6" /></clipPath><clipPath
       id="clip33-9"><path
         inkscape:connector-curvature="0"
         d="m 1478,502 h 81.6016 V 622 H 1478 Z m 0,0"
         id="path1961-3" /></clipPath></defs><sodipodi:namedview
     pagecolor="#ffffff"
     bordercolor="#666666"
     borderopacity="1"
     objecttolerance="10"
     gridtolerance="10"
     guidetolerance="10"
     inkscape:pageopacity="0"
     inkscape:pageshadow="2"
     inkscape:window-width="1920"
     inkscape:window-height="1016"
     id="namedview1859"
     showgrid="false"
     inkscape:zoom="12.179394"
     inkscape:cx="44.179246"
     inkscape:cy="29.877051"
     inkscape:window-x="0"
     inkscape:window-y="27"
     inkscape:window-maximized="1"
     inkscape:current-layer="Layer_1" /><g
     id="g9445"
     transform="matrix(0.55871649,0,0,0.55871649,-45.841431,9.0633154)"><path
       id="path2088"
       d="m 151.67,12.067361 c 0,14.72917 -26.6666,56 -26.6666,56 0,0 -26.666705,-41.27083 -26.666705,-56 0,-14.7239499 11.942705,-26.66666 26.666705,-26.66666 14.7291,0 26.6666,11.9427101 26.6666,26.66666"
       style="fill:#eedeba;fill-opacity:1;fill-rule:nonzero;stroke:none;stroke-width:1.33333325"
       inkscape:connector-curvature="0" /><path
       id="path2090"
       d="m 151.67,12.067311 c 0,14.72917 -26.6666,56 -26.6666,56 0,0 -26.666705,-41.27083 -26.666705,-56 0,-14.7239599 11.942705,-26.66666 26.666705,-26.66666 14.7291,0 26.6666,11.9427001 26.6666,26.66666 z m 0,0"
       style="fill:none;stroke:#1e1c1c;stroke-width:2.66666651;stroke-linecap:butt;stroke-linejoin:round;stroke-miterlimit:10;stroke-opacity:1"
       inkscape:connector-curvature="0" /><path
       id="path2092"
       d="m 151.67,12.067361 c 0,14.72917 -26.6666,56 -26.6666,56 0,0 -26.666705,-41.27083 -26.666705,-56 0,-14.7239499 11.942705,-26.66666 26.666705,-26.66666 14.7291,0 26.6666,11.9427101 26.6666,26.66666"
       style="fill:#eedeba;fill-opacity:1;fill-rule:nonzero;stroke:none;stroke-width:1.33333325"
       inkscape:connector-curvature="0" /><path
       id="path2094"
       d="m 151.67,12.067311 c 0,14.72917 -26.6666,56 -26.6666,56 0,0 -26.666705,-41.27083 -26.666705,-56 0,-14.7239599 11.942705,-26.66666 26.666705,-26.66666 14.7291,0 26.6666,11.9427001 26.6666,26.66666 z m 0,0"
       style="fill:none;stroke:#1e1c1c;stroke-width:2.66666651;stroke-linecap:butt;stroke-linejoin:round;stroke-miterlimit:10;stroke-opacity:1"
       inkscape:connector-curvature="0" /><path
       id="path2096"
       d="m 134.3367,12.067361 c 0,5.15625 -4.1771,9.33334 -9.3333,9.33334 -5.1563,0 -9.3334,-4.17709 -9.3334,-9.33334 0,-5.1562499 4.1771,-9.3333299 9.3334,-9.3333299 5.1562,0 9.3333,4.17708 9.3333,9.3333299"
       style="fill:#e63d38;fill-opacity:1;fill-rule:nonzero;stroke:none;stroke-width:1.33333325"
       inkscape:connector-curvature="0" /><path
       id="path2098"
       d="m 134.3367,12.067311 c 0,5.15625 -4.1771,9.33333 -9.3333,9.33333 -5.1563,0 -9.3334,-4.17708 -9.3334,-9.33333 0,-5.1562399 4.1771,-9.3333299 9.3334,-9.3333299 5.1562,0 9.3333,4.17709 9.3333,9.3333299 z m 0,0"
       style="fill:none;stroke:#1e1c1c;stroke-width:2.66666651;stroke-linecap:butt;stroke-linejoin:miter;stroke-miterlimit:10;stroke-opacity:1"
       inkscape:connector-curvature="0" /></g></svg>